SplineFontDB: 3.0
FontName: AlmendraSC-BoldItalic
FullName: Almendra SC Bold Italic
FamilyName: Almendra SC
Weight: Bold
Copyright: Copyright (c) 2011-2012, Ana Sanfelippo (anasanfe@gmail.com), with Reserved Font Name 'Almendra'
Version: 1.003
ItalicAngle: -12
UnderlinePosition: -50
UnderlineWidth: 50
Ascent: 800
Descent: 200
sfntRevision: 0x000100c5
LayerCount: 2
Layer: 0 1 "Back"  1
Layer: 1 1 "Fore"  0
XUID: [1021 69 1633765285 2195367]
FSType: 0
OS2Version: 3
OS2_WeightWidthSlopeOnly: 0
OS2_UseTypoMetrics: 1
CreationTime: 1273876560
ModificationTime: 1352832812
PfmFamily: 17
TTFWeight: 700
TTFWidth: 5
LineGap: 0
VLineGap: 0
Panose: 2 0 0 0 0 0 0 0 0 0
OS2TypoAscent: 951
OS2TypoAOffset: 0
OS2TypoDescent: -345
OS2TypoDOffset: 0
OS2TypoLinegap: 0
OS2WinAscent: 951
OS2WinAOffset: 0
OS2WinDescent: 345
OS2WinDOffset: 0
HheadAscent: 951
HheadAOffset: 0
HheadDescent: -345
HheadDOffset: 0
OS2SubXSize: 650
OS2SubYSize: 600
OS2SubXOff: -16
OS2SubYOff: 75
OS2SupXSize: 650
OS2SupYSize: 600
OS2SupXOff: 74
OS2SupYOff: 350
OS2StrikeYSize: 50
OS2StrikeYPos: 330
OS2Vendor: 'pyrs'
OS2CodePages: 20000001.00000000
OS2UnicodeRanges: 8000006f.00000002.00000000.00000000
Lookup: 258 0 0 "'kern' Horizontal Kerning in Latin lookup 0"  {"'kern' Horizontal Kerning in Latin lookup 0 subtable"  } ['kern' ('latn' <'dflt' > ) ]
DEI: 91125
TtTable: prep
PUSHW_1
 511
SCANCTRL
PUSHB_1
 4
SCANTYPE
EndTTInstrs
ShortTable: maxp 16
  1
  0
  245
  93
  4
  0
  0
  2
  0
  1
  1
  0
  64
  0
  0
  0
EndShort
LangName: 1033 "" "" "Bold Italic" "AnaSanfelippo: Almendra SC Bold Italic: 2011" "" "Version 1.003" "" "Almendra is a trademark of Ana Sanfelippo." "Ana Sanfelippo" "Ana Sanfelippo" "" "" "www.anasanfelippo.com.ar" "This Font Software is licensed under the SIL Open Font License, Version 1.1. This license is available with a FAQ at: http://scripts.sil.org/OFL" "http://scripts.sil.org/OFL" 
GaspTable: 1 65535 15 1
Encoding: UnicodeBmp
UnicodeInterp: none
NameList: AGL For New Fonts
DisplaySize: -24

StartChar: exclam
Encoding: 33 33 4
Width: 259
GlyphClass: 2
Flags: W
LayerCount: 2
Fore
SplineSet
199 93 m 1,0,1
 184 69 184 69 153.5 35 c 128,-1,2
 123 1 123 1 100 -15 c 1,3,4
 79 0 79 0 56 33 c 128,-1,5
 33 66 33 66 21 93 c 1,6,7
 32 114 32 114 62.5 140 c 128,-1,8
 93 166 93 166 118 179 c 1,9,10
 161 152 161 152 199 93 c 1,0,1
225 711 m 0,11,12
 229 711 229 711 233 711 c 1,13,14
 258 687 258 687 280 642 c 1,15,16
 183 431 183 431 142 243 c 1,17,-1
 96 238 l 1,18,-1
 112 681 l 1,19,20
 179 711 179 711 225 711 c 0,11,12
EndSplineSet
EndChar

StartChar: quotedbl
Encoding: 34 34 5
Width: 334
GlyphClass: 2
Flags: W
LayerCount: 2
Fore
SplineSet
66 652 m 1,0,1
 83 660 83 660 116 667 c 128,-1,2
 149 674 149 674 158.5 674 c 128,-1,3
 168 674 168 674 170 674 c 1,4,-1
 186 657 l 1,5,6
 125 543 125 543 86 376 c 1,7,-1
 48 371 l 1,8,-1
 66 652 l 1,0,1
214 652 m 1,9,10
 231 660 231 660 264 667 c 128,-1,11
 297 674 297 674 306.5 674 c 128,-1,12
 316 674 316 674 318 674 c 1,13,-1
 334 657 l 1,14,15
 273 543 273 543 234 376 c 1,16,-1
 196 371 l 1,17,-1
 214 652 l 1,9,10
EndSplineSet
EndChar

StartChar: numbersign
Encoding: 35 35 6
Width: 572
GlyphClass: 2
Flags: W
LayerCount: 2
Fore
SplineSet
413 372 m 1,0,1
 427 372 427 372 453.5 372 c 128,-1,2
 480 372 480 372 532 373 c 1,3,-1
 538 368 l 1,4,-1
 509 309 l 1,5,-1
 402 312 l 1,6,-1
 379 189 l 1,7,8
 392 189 392 189 417.5 189 c 128,-1,9
 443 189 443 189 494 190 c 1,10,-1
 500 185 l 1,11,-1
 471 126 l 1,12,-1
 368 129 l 1,13,-1
 326 -96 l 1,14,-1
 321 -96 l 1,15,16
 286 -88 286 -88 266 -71 c 1,17,18
 299 60 299 60 312 131 c 1,19,-1
 218 133 l 1,20,-1
 175 -96 l 1,21,-1
 170 -96 l 1,22,23
 135 -88 135 -88 115 -71 c 1,24,25
 150 75 150 75 162 134 c 1,26,-1
 45 137 l 1,27,-1
 37 144 l 1,28,-1
 66 206 l 1,29,-1
 111 202 l 2,30,31
 150 198 150 198 173 197 c 1,32,-1
 196 317 l 1,33,-1
 83 320 l 1,34,-1
 75 327 l 1,35,-1
 104 389 l 1,36,-1
 149 385 l 2,37,38
 186 381 186 381 208 380 c 1,39,-1
 247 587 l 1,40,41
 284 587 284 587 307 594 c 1,42,-1
 311 591 l 1,43,44
 285 494 285 494 263 377 c 1,45,46
 294 375 294 375 358 373 c 1,47,-1
 398 587 l 1,48,49
 435 587 435 587 458 594 c 1,50,-1
 462 591 l 1,51,52
 436 493 436 493 414 376 c 1,53,-1
 413 372 l 1,0,1
229 194 m 1,54,55
 259 192 259 192 323 190 c 1,56,-1
 347 314 l 1,57,-1
 252 316 l 1,58,-1
 229 194 l 1,54,55
EndSplineSet
EndChar

StartChar: dollar
Encoding: 36 36 7
Width: 387
GlyphClass: 2
Flags: W
LayerCount: 2
Fore
SplineSet
121 168 m 0,0,1
 121 122 121 122 162 79 c 1,2,-1
 173 217 l 1,3,4
 115 252 115 252 88 272 c 0,5,6
 39 307 39 307 39 347 c 128,-1,7
 39 387 39 387 99 435 c 128,-1,8
 159 483 159 483 226 512 c 1,9,-1
 232 588 l 1,10,11
 255 591 255 591 264 594 c 1,12,-1
 268 591 l 1,13,14
 262 562 262 562 257 515 c 1,15,16
 295 504 295 504 329 504 c 128,-1,17
 363 504 363 504 376 513 c 1,18,-1
 386 502 l 1,19,20
 340 448 340 448 320 388 c 1,21,-1
 310 385 l 1,22,-1
 284 404 l 1,23,-1
 249 427 l 1,24,-1
 243 347 l 1,25,26
 332 294 332 294 348 266 c 0,27,28
 357 251 357 251 357 235 c 0,29,30
 357 178 357 178 305 112 c 128,-1,31
 253 46 253 46 187 -2 c 1,32,-1
 182 -91 l 1,33,-1
 177 -92 l 1,34,35
 154 -85 154 -85 146 -77 c 1,36,-1
 153 -13 l 1,37,38
 112 -6 112 -6 72.5 17.5 c 128,-1,39
 33 41 33 41 13 68 c 2,40,-1
 4 80 l 1,41,42
 79 147 79 147 111 205 c 1,43,-1
 125 197 l 1,44,45
 121 184 121 184 121 168 c 0,0,1
241 157 m 0,46,47
 241 172 241 172 202 199 c 1,48,-1
 191 57 l 1,49,50
 210 74 210 74 225.5 104 c 128,-1,51
 241 134 241 134 241 157 c 0,46,47
193 451 m 1,52,53
 167 434 167 434 167 412.5 c 128,-1,54
 167 391 167 391 214 363 c 1,55,-1
 221 442 l 1,56,57
 201 450 201 450 193 451 c 1,52,53
EndSplineSet
EndChar

StartChar: percent
Encoding: 37 37 8
Width: 759
GlyphClass: 2
Flags: W
LayerCount: 2
Fore
SplineSet
208 570 m 2,0,-1
 212 570 l 1,1,2
 233 569 233 569 318 554.5 c 128,-1,3
 403 540 403 540 450 540 c 128,-1,4
 497 540 497 540 517.5 547 c 128,-1,5
 538 554 538 554 555 578 c 2,6,-1
 562 588 l 1,7,8
 612 590 612 590 643 600 c 1,9,-1
 646 597 l 1,10,11
 557 481 557 481 483 377 c 2,12,-1
 145 -104 l 1,13,-1
 140 -104 l 1,14,15
 108 -93 108 -93 91 -65 c 1,16,17
 104 -49 104 -49 132 -14 c 0,18,19
 207 77 207 77 224 102 c 2,20,-1
 418 376 l 2,21,22
 423 384 423 384 461.5 437.5 c 128,-1,23
 500 491 500 491 520 521 c 1,24,-1
 516 522 l 1,25,26
 484 492 484 492 444.5 492 c 128,-1,27
 405 492 405 492 289 534 c 1,28,-1
 286 531 l 1,29,30
 340 477 340 477 349 408 c 1,31,32
 332 326 332 326 281 276.5 c 128,-1,33
 230 227 230 227 185.5 227 c 128,-1,34
 141 227 141 227 97 277.5 c 128,-1,35
 53 328 53 328 46 390 c 1,36,37
 63 470 63 470 113.5 520 c 128,-1,38
 164 570 164 570 208 570 c 2,0,-1
572 328 m 128,-1,40
 616 328 616 328 660.5 278 c 128,-1,41
 705 228 705 228 713 166 c 1,42,43
 696 84 696 84 645 34.5 c 128,-1,44
 594 -15 594 -15 549.5 -15 c 128,-1,45
 505 -15 505 -15 461 35.5 c 128,-1,46
 417 86 417 86 410 148 c 1,47,48
 427 228 427 228 477.5 278 c 128,-1,39
 528 328 528 328 572 328 c 128,-1,40
165 384 m 0,49,50
 165 282 165 282 192 268 c 1,51,52
 229 279 229 279 229 397 c 128,-1,53
 229 515 229 515 202 529 c 1,54,55
 165 518 165 518 165 384 c 0,49,50
529 142 m 0,56,57
 529 40 529 40 556 26 c 1,58,59
 593 37 593 37 593 155 c 128,-1,60
 593 273 593 273 566 287 c 1,61,62
 529 276 529 276 529 142 c 0,56,57
EndSplineSet
EndChar

StartChar: ampersand
Encoding: 38 38 9
Width: 680
GlyphClass: 2
Flags: W
LayerCount: 2
Fore
SplineSet
462 387 m 1,0,1
 482 383 482 383 524.5 383 c 128,-1,2
 567 383 567 383 589 399 c 1,3,4
 591 407 591 407 591 415 c 0,5,6
 591 447 591 447 577 468 c 1,7,-1
 577 476 l 1,8,9
 619 511 619 511 645 561 c 1,10,11
 662 561 662 561 670.5 546.5 c 128,-1,12
 679 532 679 532 679 512 c 0,13,14
 679 400 679 400 560 327 c 1,15,16
 589 302 589 302 589 247 c 0,17,18
 589 163 589 163 494 85.5 c 128,-1,19
 399 8 399 8 300 -15 c 1,20,21
 178 -15 178 -15 99.5 36.5 c 128,-1,22
 21 88 21 88 21 194 c 0,23,24
 21 276 21 276 72.5 331 c 128,-1,25
 124 386 124 386 211 409 c 1,26,-1
 211 413 l 1,27,28
 174 415 174 415 145 438.5 c 128,-1,29
 116 462 116 462 116 496 c 1,30,31
 158 554 158 554 229.5 600.5 c 128,-1,32
 301 647 301 647 373 666 c 1,33,34
 407 666 407 666 447.5 656 c 128,-1,35
 488 646 488 646 514 630 c 1,36,37
 477 586 477 586 456 505 c 1,38,-1
 449 505 l 1,39,40
 395 575 395 575 322 575 c 0,41,42
 295 575 295 575 280 570 c 1,43,44
 274 550 274 550 274 529 c 0,45,46
 274 446 274 446 361 435 c 1,47,-1
 356 398 l 1,48,49
 189 365 189 365 189 212 c 0,50,51
 189 146 189 146 219.5 107.5 c 128,-1,52
 250 69 250 69 306 69 c 128,-1,53
 362 69 362 69 398 89 c 1,54,55
 414 116 414 116 424.5 156.5 c 128,-1,56
 435 197 435 197 435 230 c 0,57,58
 435 302 435 302 389 302 c 0,59,60
 374 302 374 302 361 296 c 1,61,62
 359 288 359 288 359 280 c 0,63,64
 359 248 359 248 373 227 c 1,65,-1
 373 219 l 1,66,67
 331 184 331 184 305 134 c 1,68,69
 288 134 288 134 279.5 148.5 c 128,-1,70
 271 163 271 163 271 183 c 0,71,72
 271 325 271 325 462 387 c 1,0,1
EndSplineSet
EndChar

StartChar: quotesingle
Encoding: 39 39 10
Width: 186
GlyphClass: 2
Flags: W
LayerCount: 2
Fore
SplineSet
66 652 m 1,0,1
 83 660 83 660 116 667 c 128,-1,2
 149 674 149 674 158.5 674 c 128,-1,3
 168 674 168 674 170 674 c 1,4,-1
 186 657 l 1,5,6
 125 543 125 543 86 376 c 1,7,-1
 48 371 l 1,8,-1
 66 652 l 1,0,1
EndSplineSet
EndChar

StartChar: parenleft
Encoding: 40 40 11
Width: 296
GlyphClass: 2
Flags: W
LayerCount: 2
Fore
SplineSet
303 695 m 1,0,1
 132 482 132 482 132 199 c 0,2,3
 132 106 132 106 155.5 -0.5 c 128,-1,4
 179 -107 179 -107 241 -200 c 1,5,-1
 217 -215 l 1,6,7
 128 -134 128 -134 84.5 -16 c 128,-1,8
 41 102 41 102 41 214 c 0,9,10
 41 373 41 373 110.5 501 c 128,-1,11
 180 629 180 629 282 711 c 1,12,-1
 303 695 l 1,0,1
EndSplineSet
EndChar

StartChar: parenright
Encoding: 41 41 12
Width: 296
GlyphClass: 2
Flags: W
LayerCount: 2
Fore
SplineSet
-7 -199 m 1,0,1
 164 14 164 14 164 297 c 0,2,3
 164 390 164 390 140.5 496.5 c 128,-1,4
 117 603 117 603 55 696 c 1,5,-1
 79 711 l 1,6,7
 168 630 168 630 211.5 512 c 128,-1,8
 255 394 255 394 255 282 c 0,9,10
 255 123 255 123 185.5 -5 c 128,-1,11
 116 -133 116 -133 14 -215 c 1,12,-1
 -7 -199 l 1,0,1
EndSplineSet
EndChar

StartChar: asterisk
Encoding: 42 42 13
Width: 371
GlyphClass: 2
Flags: W
LayerCount: 2
Fore
SplineSet
211 677 m 1,0,-1
 244 683 l 1,1,-1
 246 681 l 1,2,3
 211 628 211 628 203 576 c 1,4,5
 248 609 248 609 277 661 c 1,6,-1
 280 661 l 1,7,8
 284 654 284 654 288 628 c 1,9,10
 304 631 304 631 313 631 c 128,-1,11
 322 631 322 631 326 629 c 1,12,13
 326 621 326 621 303 595 c 1,14,15
 304 593 304 593 309 588 c 0,16,17
 322 576 322 576 323 571 c 1,18,-1
 322 569 l 1,19,20
 318 569 318 569 314 569 c 0,21,22
 268 569 268 569 215 547 c 1,23,24
 261 525 261 525 311 525 c 0,25,26
 315 525 315 525 319 525 c 1,27,-1
 320 523 l 1,28,29
 318 520 318 520 297 499 c 1,30,31
 316 475 316 475 316 465 c 1,32,33
 312 462 312 462 302 462 c 128,-1,34
 292 462 292 462 277 465 c 1,35,36
 271 447 271 447 265 435 c 1,37,-1
 262 435 l 1,38,39
 241 482 241 482 199 518 c 1,40,41
 200 463 200 463 227 412 c 1,42,-1
 226 410 l 1,43,-1
 195 418 l 1,44,45
 181 387 181 387 173 383 c 1,46,47
 164 388 164 388 156 419 c 1,48,-1
 125 412 l 1,49,-1
 123 414 l 1,50,51
 157 469 157 469 166 518 c 1,52,53
 125 488 125 488 92 434 c 1,54,-1
 89 434 l 1,55,-1
 82 466 l 1,56,57
 66 463 66 463 56.5 463 c 128,-1,58
 47 463 47 463 43 465 c 1,59,60
 44 474 44 474 65 501 c 1,61,-1
 46 525 l 1,62,-1
 47 527 l 1,63,64
 52 527 52 527 57 527 c 0,65,66
 109 527 109 527 154 547 c 1,67,68
 107 568 107 568 59 568 c 0,69,70
 55 568 55 568 51 568 c 1,71,-1
 51 570 l 1,72,73
 54 576 54 576 72 594 c 1,74,75
 53 622 53 622 53 629 c 1,76,77
 57 631 57 631 66.5 631 c 128,-1,78
 76 631 76 631 93 628 c 1,79,80
 103 659 103 659 104 660 c 1,81,-1
 107 660 l 1,82,83
 131 608 131 608 170 576 c 1,84,85
 167 633 167 633 142 681 c 1,86,-1
 144 683 l 1,87,88
 151 683 151 683 175 677 c 1,89,90
 189 707 189 707 196 711 c 1,91,92
 203 707 203 707 211 677 c 1,0,-1
EndSplineSet
EndChar

StartChar: plus
Encoding: 43 43 14
Width: 576
GlyphClass: 2
Flags: W
LayerCount: 2
Fore
SplineSet
320 212 m 1,0,1
 320 85 320 85 329 -10 c 1,2,-1
 259 -19 l 1,3,-1
 249 -12 l 1,4,-1
 249 212 l 1,5,-1
 65 212 l 1,6,-1
 57 219 l 1,7,-1
 66 290 l 1,8,9
 188 284 188 284 249 283 c 1,10,-1
 249 486 l 1,11,-1
 320 495 l 1,12,-1
 325 489 l 1,13,14
 320 356 320 356 320 283 c 2,15,-1
 320 282 l 1,16,17
 357 281 357 281 416 281 c 128,-1,18
 475 281 475 281 514 284 c 1,19,-1
 520 278 l 1,20,-1
 511 212 l 1,21,-1
 320 212 l 1,0,1
EndSplineSet
EndChar

StartChar: comma
Encoding: 44 44 15
Width: 220
GlyphClass: 2
Flags: W
LayerCount: 2
Fore
SplineSet
199 93 m 1,0,1
 187 21 187 21 132.5 -51 c 128,-1,2
 78 -123 78 -123 10 -169 c 1,3,-1
 -5 -152 l 1,4,5
 68 -75 68 -75 84 -1 c 1,6,7
 44 39 44 39 21 93 c 1,8,9
 32 114 32 114 62.5 140 c 128,-1,10
 93 166 93 166 118 179 c 1,11,12
 161 152 161 152 199 93 c 1,0,1
EndSplineSet
EndChar

StartChar: hyphen
Encoding: 45 45 16
Width: 300
GlyphClass: 2
Flags: W
LayerCount: 2
Fore
SplineSet
76 298 m 2,0,1
 184 298 184 298 268 308 c 1,2,-1
 276 303 l 1,3,-1
 270 241 l 1,4,-1
 33 226 l 1,5,-1
 24 232 l 1,6,-1
 30 298 l 1,7,-1
 76 298 l 2,0,1
EndSplineSet
EndChar

StartChar: period
Encoding: 46 46 17
Width: 220
GlyphClass: 2
Flags: W
LayerCount: 2
Fore
SplineSet
199 93 m 1,0,1
 184 69 184 69 153.5 35 c 128,-1,2
 123 1 123 1 100 -15 c 1,3,4
 79 0 79 0 56 33 c 128,-1,5
 33 66 33 66 21 93 c 1,6,7
 32 114 32 114 62.5 140 c 128,-1,8
 93 166 93 166 118 179 c 1,9,10
 161 152 161 152 199 93 c 1,0,1
EndSplineSet
EndChar

StartChar: slash
Encoding: 47 47 18
Width: 408
GlyphClass: 2
Flags: W
LayerCount: 2
Fore
SplineSet
64 -47 m 1,0,-1
 57 -47 l 1,1,2
 30 -36 30 -36 7 -7 c 1,3,4
 55 85 55 85 93 171 c 2,5,-1
 240 495 l 2,6,7
 286 597 286 597 322 695 c 1,8,9
 360 697 360 697 396 706 c 1,10,-1
 401 702 l 1,11,12
 357 615 357 615 324 543 c 1,13,-1
 64 -47 l 1,0,-1
EndSplineSet
EndChar

StartChar: zero
Encoding: 48 48 19
Width: 450
GlyphClass: 2
Flags: W
LayerCount: 2
Fore
SplineSet
170 244 m 0,0,1
 170 175 170 175 182 112.5 c 128,-1,2
 194 50 194 50 218 36 c 1,3,4
 280 59 280 59 280 287 c 0,5,6
 280 475 280 475 231 504 c 1,7,8
 170 483 170 483 170 244 c 0,0,1
97 470 m 128,-1,10
 175 555 175 555 244 555 c 128,-1,11
 313 555 313 555 378.5 469.5 c 128,-1,12
 444 384 444 384 458 284 c 1,13,14
 431 155 431 155 353 70 c 128,-1,15
 275 -15 275 -15 205.5 -15 c 128,-1,16
 136 -15 136 -15 71 70.5 c 128,-1,17
 6 156 6 156 -8 255 c 1,18,9
 19 385 19 385 97 470 c 128,-1,10
EndSplineSet
EndChar

StartChar: one
Encoding: 49 49 20
Width: 450
GlyphClass: 2
Flags: W
LayerCount: 2
Fore
SplineSet
320 366.5 m 128,-1,1
 311 247 311 247 311 161.5 c 128,-1,2
 311 76 311 76 318 44 c 1,3,4
 346 25 346 25 374 17 c 1,5,-1
 367 -8 l 1,6,7
 322 1 322 1 240.5 1 c 128,-1,8
 159 1 159 1 84 -23 c 1,9,-1
 75 -3 l 1,10,11
 97 11 97 11 149 32 c 1,12,13
 172 174 172 174 172 350 c 0,14,15
 172 391 172 391 171 413 c 1,16,17
 135 408 135 408 94 406 c 1,18,-1
 88 437 l 1,19,20
 214 477 214 477 263 542 c 1,21,22
 321 547 321 547 340 555 c 1,23,-1
 347 551 l 1,24,0
 329 486 329 486 320 366.5 c 128,-1,1
EndSplineSet
EndChar

StartChar: two
Encoding: 50 50 21
Width: 450
GlyphClass: 2
Flags: W
LayerCount: 2
Fore
SplineSet
244 405 m 0,0,1
 244 469 244 469 203 469 c 0,2,3
 186 469 186 469 171 465 c 1,4,5
 161 445 161 445 161 417 c 128,-1,6
 161 389 161 389 176 378 c 1,7,-1
 174 369 l 1,8,9
 121 350 121 350 82 309 c 1,10,11
 52 309 52 309 52 343 c 0,12,13
 52 410 52 410 114.5 471.5 c 128,-1,14
 177 533 177 533 252 556 c 1,15,16
 328 556 328 556 372.5 512 c 128,-1,17
 417 468 417 468 417 392 c 1,18,19
 397 352 397 352 347.5 305 c 128,-1,20
 298 258 298 258 237 207.5 c 128,-1,21
 176 157 176 157 151 131 c 1,22,23
 209 118 209 118 269.5 118 c 128,-1,24
 330 118 330 118 355 132 c 1,25,26
 375 181 375 181 399 215 c 1,27,-1
 417 206 l 1,28,29
 392 145 392 145 392 80.5 c 128,-1,30
 392 16 392 16 407 -6 c 1,31,-1
 397 -21 l 1,32,33
 254 11 254 11 126 11 c 0,34,35
 46 11 46 11 12 -12 c 1,36,-1
 1 -1 l 1,37,38
 29 73 29 73 143 199 c 0,39,40
 182 242 182 242 213 298 c 128,-1,41
 244 354 244 354 244 405 c 0,0,1
EndSplineSet
EndChar

StartChar: three
Encoding: 51 51 22
Width: 450
GlyphClass: 2
Flags: W
LayerCount: 2
Fore
SplineSet
270 437 m 1,0,1
 244 440 244 440 204 440 c 128,-1,2
 164 440 164 440 141 428 c 1,3,4
 125 395 125 395 107 373 c 1,5,-1
 86 381 l 1,6,7
 108 437 108 437 108 485 c 128,-1,8
 108 533 108 533 96 553 c 1,9,-1
 106 564 l 1,10,11
 157 541 157 541 304 541 c 0,12,13
 370 541 370 541 411 547 c 1,14,-1
 420 533 l 1,15,16
 374 437 374 437 266 351 c 1,17,-1
 266 347 l 1,18,19
 411 347 411 347 411 227 c 0,20,21
 411 159 411 159 341 93 c 128,-1,22
 271 27 271 27 186 -15 c 1,23,24
 138 -11 138 -11 95 11 c 128,-1,25
 52 33 52 33 29 66 c 2,26,-1
 21 77 l 1,27,28
 92 135 92 135 123 196 c 1,29,-1
 143 185 l 1,30,31
 139 173 139 173 139 152.5 c 128,-1,32
 139 132 139 132 161.5 101 c 128,-1,33
 184 70 184 70 211 56 c 1,34,35
 231 79 231 79 242.5 118.5 c 128,-1,36
 254 158 254 158 254 191 c 0,37,38
 254 280 254 280 182 280 c 0,39,40
 166 280 166 280 151 275 c 1,41,-1
 144 297 l 1,42,43
 233 365 233 365 270 437 c 1,0,1
EndSplineSet
EndChar

StartChar: four
Encoding: 52 52 23
Width: 450
GlyphClass: 2
Flags: W
LayerCount: 2
Fore
SplineSet
356 138 m 1,0,1
 356 81 356 81 362 41 c 1,2,3
 382 22 382 22 414 10 c 1,4,-1
 409 -12 l 1,5,6
 350 -1 350 -1 269.5 -1 c 128,-1,7
 189 -1 189 -1 136 -13 c 1,8,-1
 131 8 l 1,9,10
 151 21 151 21 195 35 c 1,11,12
 205 81 205 81 209 138 c 1,13,-1
 -3 138 l 1,14,-1
 -7 151 l 1,15,16
 91 273 91 273 222 532 c 1,17,18
 331 538 331 538 386 555 c 1,19,-1
 393 551 l 1,20,21
 362 450 362 450 357 212 c 1,22,23
 399 212 399 212 437 228 c 1,24,-1
 442 223 l 1,25,26
 438 212 438 212 426 132 c 1,27,28
 386 138 386 138 356 138 c 1,0,1
224 442 m 1,29,30
 181 321 181 321 122 217 c 1,31,32
 150 213 150 213 215 213 c 1,33,-1
 230 442 l 1,34,-1
 224 442 l 1,29,30
EndSplineSet
EndChar

StartChar: five
Encoding: 53 53 24
Width: 450
GlyphClass: 2
Flags: W
LayerCount: 2
Fore
SplineSet
159 350 m 1,0,1
 199 361 199 361 259.5 361 c 128,-1,2
 320 361 320 361 365 329 c 128,-1,3
 410 297 410 297 410 228.5 c 128,-1,4
 410 160 410 160 340.5 92 c 128,-1,5
 271 24 271 24 186 -15 c 1,6,7
 138 -11 138 -11 95.5 11 c 128,-1,8
 53 33 53 33 29 66 c 2,9,-1
 21 77 l 1,10,11
 88 129 88 129 123 196 c 1,12,-1
 143 185 l 1,13,14
 139 173 139 173 139 152.5 c 128,-1,15
 139 132 139 132 162 101 c 128,-1,16
 185 70 185 70 211 56 c 1,17,18
 231 79 231 79 242.5 117.5 c 128,-1,19
 254 156 254 156 254 194 c 128,-1,20
 254 232 254 232 235.5 251.5 c 128,-1,21
 217 271 217 271 181 271 c 128,-1,22
 145 271 145 271 105 260 c 1,23,-1
 93 267 l 1,24,-1
 106 442 l 2,25,26
 106 450 106 450 106 473 c 128,-1,27
 106 496 106 496 94 532 c 1,28,-1
 103 546 l 1,29,30
 132 540 132 540 188 540 c 0,31,32
 300 540 300 540 351 563 c 1,33,-1
 361 552 l 1,34,35
 349 532 349 532 349 487.5 c 128,-1,36
 349 443 349 443 370 391 c 1,37,-1
 352 384 l 1,38,39
 341 394 341 394 321 428 c 1,40,41
 300 440 300 440 249.5 440 c 128,-1,42
 199 440 199 440 163 436 c 1,43,-1
 147 340 l 1,44,-1
 150 339 l 1,45,-1
 159 350 l 1,0,1
EndSplineSet
EndChar

StartChar: six
Encoding: 54 54 25
Width: 450
GlyphClass: 2
Flags: W
LayerCount: 2
Fore
SplineSet
191 181 m 0,0,1
 191 78 191 78 209 60 c 0,2,3
 218 50 218 50 234.5 50 c 128,-1,4
 251 50 251 50 261 60 c 1,5,6
 268 97 268 97 268 135 c 128,-1,7
 268 173 268 173 267 191 c 128,-1,8
 266 209 266 209 261 231 c 0,9,10
 252 272 252 272 213 272 c 1,11,-1
 213 279 l 1,12,13
 247 313 247 313 275 362 c 1,14,15
 427 362 427 362 427 147 c 1,16,17
 392 95 392 95 332 50.5 c 128,-1,18
 272 6 272 6 209 -15 c 1,19,20
 124 -15 124 -15 77 32.5 c 128,-1,21
 30 80 30 80 30 166 c 0,22,23
 30 231 30 231 60 294 c 128,-1,24
 90 357 90 357 140 406 c 0,25,26
 241 505 241 505 378 559 c 1,27,-1
 391 540 l 1,28,29
 191 420 191 420 191 181 c 0,0,1
EndSplineSet
EndChar

StartChar: seven
Encoding: 55 55 26
Width: 450
GlyphClass: 2
Flags: W
LayerCount: 2
Fore
SplineSet
302 425 m 1,0,1
 258 431 258 431 209 431 c 128,-1,2
 160 431 160 431 137 419 c 1,3,4
 119 383 119 383 104 364 c 1,5,-1
 86 373 l 1,6,7
 107 425 107 425 107 477.5 c 128,-1,8
 107 530 107 530 95 550 c 1,9,-1
 107 563 l 1,10,11
 158 540 158 540 291 540 c 0,12,13
 368 540 368 540 406 548 c 1,14,-1
 416 539 l 1,15,16
 273 278 273 278 270 31 c 1,17,18
 301 21 301 21 324 5 c 1,19,-1
 320 -13 l 1,20,21
 265 0 265 0 198.5 0 c 128,-1,22
 132 0 132 0 73 -11 c 1,23,-1
 68 7 l 1,24,25
 92 16 92 16 119 38 c 1,26,27
 133 140 133 140 174.5 224 c 128,-1,28
 216 308 216 308 302 425 c 1,0,1
EndSplineSet
EndChar

StartChar: eight
Encoding: 56 56 27
Width: 450
GlyphClass: 2
Flags: W
LayerCount: 2
Fore
SplineSet
395 474 m 0,0,1
 395 413 395 413 304 326 c 1,2,3
 337 301 337 301 354.5 285.5 c 128,-1,4
 372 270 372 270 390 240 c 128,-1,5
 408 210 408 210 410 177 c 1,6,7
 388 112 388 112 330 61.5 c 128,-1,8
 272 11 272 11 199 -15 c 1,9,10
 133 -15 133 -15 91.5 17 c 128,-1,11
 50 49 50 49 50 110 c 0,12,13
 50 151 50 151 82 192.5 c 128,-1,14
 114 234 114 234 158 265 c 1,15,16
 72 346 72 346 72 406 c 0,17,18
 72 410 72 410 72 414 c 1,19,20
 105 459 105 459 166.5 503.5 c 128,-1,21
 228 548 228 548 276 556 c 1,22,23
 395 556 395 556 395 474 c 0,0,1
170 136 m 0,24,25
 170 55 170 55 221 55 c 0,26,27
 250 55 250 55 265 69 c 1,28,29
 273 89 273 89 273 117 c 128,-1,30
 273 145 273 145 252 172 c 128,-1,31
 231 199 231 199 190 236 c 1,32,33
 170 198 170 198 170 136 c 0,24,25
209 452 m 0,34,35
 209 403 209 403 266 355 c 1,36,37
 277 394 277 394 277 440.5 c 128,-1,38
 277 487 277 487 240 487 c 0,39,40
 227 487 227 487 216 482 c 1,41,42
 209 471 209 471 209 452 c 0,34,35
EndSplineSet
EndChar

StartChar: nine
Encoding: 57 57 28
Width: 450
GlyphClass: 2
Flags: W
LayerCount: 2
Fore
SplineSet
266 359 m 0,0,1
 266 462 266 462 248 480 c 0,2,3
 239 490 239 490 222.5 490 c 128,-1,4
 206 490 206 490 196 480 c 1,5,6
 189 443 189 443 189 405 c 128,-1,7
 189 367 189 367 190 349 c 128,-1,8
 191 331 191 331 196 309 c 0,9,10
 205 268 205 268 244 268 c 1,11,-1
 244 261 l 1,12,13
 210 227 210 227 182 178 c 1,14,15
 30 178 30 178 30 393 c 1,16,17
 65 445 65 445 125 489.5 c 128,-1,18
 185 534 185 534 248 555 c 1,19,20
 333 555 333 555 380 507.5 c 128,-1,21
 427 460 427 460 427 374 c 0,22,23
 427 309 427 309 397 246 c 128,-1,24
 367 183 367 183 316 134 c 1,25,26
 216 35 216 35 79 -19 c 1,27,-1
 66 0 l 1,28,29
 266 120 266 120 266 359 c 0,0,1
EndSplineSet
EndChar

StartChar: colon
Encoding: 58 58 29
Width: 232
GlyphClass: 2
Flags: W
LayerCount: 2
Fore
SplineSet
211 419 m 1,0,1
 196 395 196 395 165.5 361 c 128,-1,2
 135 327 135 327 112 311 c 1,3,4
 91 326 91 326 68 359 c 128,-1,5
 45 392 45 392 33 419 c 1,6,7
 44 440 44 440 74.5 466 c 128,-1,8
 105 492 105 492 130 505 c 1,9,10
 173 478 173 478 211 419 c 1,0,1
199 93 m 1,11,12
 184 69 184 69 153.5 35 c 128,-1,13
 123 1 123 1 100 -15 c 1,14,15
 79 0 79 0 56 33 c 128,-1,16
 33 66 33 66 21 93 c 1,17,18
 32 114 32 114 62.5 140 c 128,-1,19
 93 166 93 166 118 179 c 1,20,21
 161 152 161 152 199 93 c 1,11,12
EndSplineSet
EndChar

StartChar: semicolon
Encoding: 59 59 30
Width: 232
GlyphClass: 2
Flags: W
LayerCount: 2
Fore
SplineSet
199 93 m 1,0,1
 187 21 187 21 132.5 -51 c 128,-1,2
 78 -123 78 -123 10 -169 c 1,3,-1
 -5 -152 l 1,4,5
 68 -75 68 -75 84 -1 c 1,6,7
 44 39 44 39 21 93 c 1,8,9
 32 114 32 114 62.5 140 c 128,-1,10
 93 166 93 166 118 179 c 1,11,12
 161 152 161 152 199 93 c 1,0,1
211 419 m 1,13,14
 196 395 196 395 165.5 361 c 128,-1,15
 135 327 135 327 112 311 c 1,16,17
 91 326 91 326 68 359 c 128,-1,18
 45 392 45 392 33 419 c 1,19,20
 44 440 44 440 74.5 466 c 128,-1,21
 105 492 105 492 130 505 c 1,22,23
 173 478 173 478 211 419 c 1,13,14
EndSplineSet
EndChar

StartChar: less
Encoding: 60 60 31
Width: 576
GlyphClass: 2
Flags: W
LayerCount: 2
Fore
SplineSet
495 45 m 1,0,1
 264 160 264 160 55 222 c 1,2,-1
 69 286 l 1,3,4
 125 303 125 303 253 351.5 c 128,-1,5
 381 400 381 400 497 459 c 1,6,-1
 521 393 l 1,7,-1
 516 383 l 1,8,-1
 167 254 l 1,9,-1
 167 250 l 1,10,-1
 516 122 l 1,11,-1
 521 112 l 1,12,-1
 495 45 l 1,0,1
EndSplineSet
EndChar

StartChar: equal
Encoding: 61 61 32
Width: 576
GlyphClass: 2
Flags: W
LayerCount: 2
Fore
SplineSet
65 208 m 1,0,1
 234 199 234 199 354 199 c 128,-1,2
 474 199 474 199 513 202 c 1,3,-1
 519 196 l 1,4,-1
 510 135 l 1,5,-1
 64 135 l 1,6,-1
 56 142 l 1,7,-1
 65 208 l 1,0,1
65 367 m 1,8,9
 234 358 234 358 354 358 c 128,-1,10
 474 358 474 358 513 361 c 1,11,-1
 519 355 l 1,12,-1
 510 294 l 1,13,-1
 64 294 l 1,14,-1
 56 301 l 1,15,-1
 65 367 l 1,8,9
EndSplineSet
EndChar

StartChar: greater
Encoding: 62 62 33
Width: 576
GlyphClass: 2
Flags: W
LayerCount: 2
Fore
SplineSet
521 222 m 1,0,1
 312 160 312 160 81 45 c 1,2,-1
 55 112 l 1,3,-1
 60 122 l 1,4,-1
 409 250 l 1,5,-1
 409 254 l 1,6,-1
 60 383 l 1,7,-1
 55 393 l 1,8,-1
 79 459 l 1,9,10
 195 400 195 400 323 351.5 c 128,-1,11
 451 303 451 303 507 286 c 1,12,-1
 521 222 l 1,0,1
EndSplineSet
EndChar

StartChar: question
Encoding: 63 63 34
Width: 315
GlyphClass: 2
Flags: W
LayerCount: 2
Fore
SplineSet
156.5 487 m 128,-1,1
 183 533 183 533 183 580.5 c 128,-1,2
 183 628 183 628 146 628 c 0,3,4
 130 628 130 628 117 623 c 1,5,6
 108 605 108 605 108 580.5 c 128,-1,7
 108 556 108 556 122 544 c 1,8,-1
 120 536 l 1,9,10
 64 511 64 511 31 478 c 1,11,12
 6 478 6 478 6 508 c 0,13,14
 6 577 6 577 61 631.5 c 128,-1,15
 116 686 116 686 193 711 c 1,16,17
 264 711 264 711 308.5 671 c 128,-1,18
 353 631 353 631 353 562 c 1,19,20
 334 538 334 538 322 527 c 128,-1,21
 310 516 310 516 303 509 c 128,-1,22
 296 502 296 502 283.5 492 c 128,-1,23
 271 482 271 482 264.5 477 c 128,-1,24
 258 472 258 472 243 462 c 2,25,-1
 223 448 l 2,26,27
 218 444 218 444 201.5 432 c 128,-1,28
 185 420 185 420 181 418 c 1,29,30
 171 389 171 389 161 330.5 c 128,-1,31
 151 272 151 272 148 260 c 1,32,-1
 86 250 l 1,33,-1
 91 410 l 1,34,0
 130 441 130 441 156.5 487 c 128,-1,1
199 93 m 1,35,36
 184 69 184 69 153.5 35 c 128,-1,37
 123 1 123 1 100 -15 c 1,38,39
 79 0 79 0 56 33 c 128,-1,40
 33 66 33 66 21 93 c 1,41,42
 33 115 33 115 64 146 c 128,-1,43
 95 177 95 177 118 189 c 1,44,45
 151 169 151 169 199 93 c 1,35,36
EndSplineSet
EndChar

StartChar: at
Encoding: 64 64 35
Width: 853
GlyphClass: 2
Flags: W
LayerCount: 2
Fore
SplineSet
616 193 m 0,0,1
 616 103 616 103 624 58 c 1,2,3
 683 110 683 110 714.5 200 c 128,-1,4
 746 290 746 290 746 375 c 0,5,6
 746 501 746 501 676 562.5 c 128,-1,7
 606 624 606 624 486 624 c 128,-1,8
 366 624 366 624 296 586 c 1,9,10
 209 510 209 510 159.5 380.5 c 128,-1,11
 110 251 110 251 110 129.5 c 128,-1,12
 110 8 110 8 174.5 -60.5 c 128,-1,13
 239 -129 239 -129 353 -129 c 0,14,15
 418 -129 418 -129 476 -106 c 1,16,-1
 482 -120 l 1,17,18
 394 -178 394 -178 341 -190 c 1,19,20
 193 -190 193 -190 111.5 -116 c 128,-1,21
 30 -42 30 -42 30 102 c 0,22,23
 30 330 30 330 147.5 490.5 c 128,-1,24
 265 651 265 651 477 685 c 1,25,26
 633 685 633 685 728 616.5 c 128,-1,27
 823 548 823 548 823 406.5 c 128,-1,28
 823 265 823 265 749 145.5 c 128,-1,29
 675 26 675 26 550 -15 c 1,30,31
 474 -4 474 -4 474 165 c 1,32,33
 456 170 456 170 425.5 170 c 128,-1,34
 395 170 395 170 373 165 c 1,35,36
 357 102 357 102 357 66 c 128,-1,37
 357 30 357 30 363 0 c 1,38,39
 264 0 264 0 196 -12 c 1,40,-1
 186 -5 l 1,41,-1
 363 483 l 1,42,43
 331 498 331 498 320 506 c 1,44,-1
 325 524 l 1,45,46
 384 515 384 515 478 515 c 128,-1,47
 572 515 572 515 638 526 c 1,48,-1
 642 522 l 1,49,50
 616 411 616 411 616 193 c 0,0,1
386 232 m 1,51,52
 398 227 398 227 430.5 227 c 128,-1,53
 463 227 463 227 476 233 c 1,54,55
 480 302 480 302 480 359 c 128,-1,56
 480 416 480 416 477 459 c 1,57,58
 472 462 472 462 464.5 462 c 128,-1,59
 457 462 457 462 452 460.5 c 128,-1,60
 447 459 447 459 443.5 454 c 128,-1,61
 440 449 440 449 437.5 446 c 128,-1,62
 435 443 435 443 432.5 435 c 128,-1,63
 430 427 430 427 429 424 c 0,64,65
 424 406 424 406 424 399 c 1,66,-1
 386 232 l 1,51,52
EndSplineSet
EndChar

StartChar: A
Encoding: 65 65 36
Width: 583
GlyphClass: 2
Flags: W
LayerCount: 2
Fore
SplineSet
184 671 m 1,0,1
 274 651 274 651 365.5 651 c 128,-1,2
 457 651 457 651 521 662 c 1,3,-1
 527 657 l 1,4,5
 513 598 513 598 503 459.5 c 128,-1,6
 493 321 493 321 493 189.5 c 128,-1,7
 493 58 493 58 504 0 c 1,8,9
 370 -4 370 -4 317 -15 c 1,10,-1
 311 -10 l 1,11,12
 329 69 329 69 338 213 c 1,13,14
 317 219 317 219 295 219 c 128,-1,15
 273 219 273 219 255 219 c 128,-1,16
 237 219 237 219 212 213 c 1,17,18
 191 128 191 128 191 81 c 128,-1,19
 191 34 191 34 198 -1 c 1,20,21
 91 -1 91 -1 11 -15 c 1,22,-1
 -1 -7 l 1,23,-1
 197 572 l 1,24,25
 220 580 220 580 251 587 c 1,26,-1
 252 594 l 1,27,28
 122 594 122 594 87 561 c 1,29,30
 85 553 85 553 85 545 c 0,31,32
 85 513 85 513 99 492 c 1,33,-1
 99 484 l 1,34,35
 57 449 57 449 31 399 c 1,36,37
 14 399 14 399 5.5 414 c 128,-1,38
 -3 429 -3 429 -3 449 c 0,39,40
 -3 525 -3 525 50 583 c 128,-1,41
 103 641 103 641 184 671 c 1,0,1
226 289 m 1,42,43
 244 282 244 282 283 282 c 128,-1,44
 322 282 322 282 341 290 c 1,45,46
 346 398 346 398 346 470 c 128,-1,47
 346 542 346 542 342 591 c 1,48,49
 338 594 338 594 324.5 594 c 128,-1,50
 311 594 311 594 305 591 c 1,51,52
 287 564 287 564 275 503 c 1,53,-1
 226 289 l 1,42,43
EndSplineSet
EndChar

StartChar: B
Encoding: 66 66 37
Width: 572
GlyphClass: 2
Flags: W
LayerCount: 2
Fore
SplineSet
353 651 m 0,0,1
 518 651 518 651 518 533 c 0,2,3
 518 426 518 426 390 368 c 1,4,-1
 390 364 l 1,5,6
 464 364 464 364 507.5 333.5 c 128,-1,7
 551 303 551 303 551 237 c 0,8,9
 551 193 551 193 523.5 151 c 128,-1,10
 496 109 496 109 451 78 c 0,11,12
 363 16 363 16 262 -15 c 1,13,-1
 230 -7 l 2,14,15
 161 11 161 11 127 11 c 128,-1,16
 93 11 93 11 73 7 c 1,17,-1
 67 20 l 1,18,19
 88 42 88 42 95 99 c 0,20,21
 113 267 113 267 113 388.5 c 128,-1,22
 113 510 113 510 109 561 c 1,23,24
 132 569 132 569 163 576 c 1,25,-1
 164 583 l 1,26,27
 50 583 50 583 16 551 c 1,28,29
 14 543 14 543 14 535 c 0,30,31
 14 503 14 503 28 482 c 1,32,-1
 28 474 l 1,33,34
 -14 439 -14 439 -40 389 c 1,35,36
 -57 389 -57 389 -65.5 403.5 c 128,-1,37
 -74 418 -74 418 -74 438 c 0,38,39
 -74 514 -74 514 -19.5 572 c 128,-1,40
 35 630 35 630 117 660 c 1,41,42
 163 651 163 651 353 651 c 0,0,1
331 586 m 0,43,44
 321 593 321 593 303.5 593 c 128,-1,45
 286 593 286 593 273 587 c 1,46,47
 259 410 259 410 259 192 c 0,48,49
 259 170 259 170 261 86 c 1,50,51
 283 73 283 73 314.5 73 c 128,-1,52
 346 73 346 73 366 89 c 1,53,54
 382 137 382 137 382 205.5 c 128,-1,55
 382 274 382 274 363 307 c 128,-1,56
 344 340 344 340 280 340 c 1,57,-1
 284 377 l 1,58,59
 309 379 309 379 324 386 c 1,60,61
 351 434 351 434 351 503 c 0,62,63
 351 570 351 570 331 586 c 0,43,44
EndSplineSet
EndChar

StartChar: C
Encoding: 67 67 38
Width: 466
GlyphClass: 2
Flags: W
LayerCount: 2
Fore
SplineSet
89 -33.5 m 128,-1,1
 30 48 30 48 30 195 c 128,-1,2
 30 342 30 342 100.5 465 c 128,-1,3
 171 588 171 588 309 666 c 1,4,5
 350 651 350 651 402 651 c 128,-1,6
 454 651 454 651 473 657 c 1,7,-1
 480 643 l 1,8,9
 453 607 453 607 437.5 540 c 128,-1,10
 422 473 422 473 422 420 c 1,11,-1
 405 420 l 1,12,13
 395 446 395 446 386 496 c 1,14,-1
 365 512 l 2,15,16
 288 570 288 570 252 570 c 1,17,18
 197 455 197 455 197 224 c 0,19,20
 197 138 197 138 217 62 c 0,21,22
 228 21 228 21 252 -4 c 128,-1,23
 276 -29 276 -29 310 -29 c 1,24,25
 337 19 337 19 337 96 c 0,26,27
 337 114 337 114 334 127 c 1,28,-1
 341 132 l 1,29,30
 406 133 406 133 466 143 c 1,31,32
 451 66 451 66 395.5 -6.5 c 128,-1,33
 340 -79 340 -79 270 -115 c 1,34,0
 148 -115 148 -115 89 -33.5 c 128,-1,1
EndSplineSet
EndChar

StartChar: D
Encoding: 68 68 39
Width: 616
GlyphClass: 2
Flags: W
LayerCount: 2
Fore
SplineSet
338 651 m 0,0,1
 470 651 470 651 528 584.5 c 128,-1,2
 586 518 586 518 586 377.5 c 128,-1,3
 586 237 586 237 496.5 130.5 c 128,-1,4
 407 24 407 24 263 -15 c 1,5,-1
 232 -7 l 2,6,7
 163 11 163 11 128 11 c 128,-1,8
 93 11 93 11 73 7 c 1,9,-1
 67 20 l 1,10,11
 88 42 88 42 95 99 c 0,12,13
 113 267 113 267 113 388.5 c 128,-1,14
 113 510 113 510 109 561 c 1,15,16
 132 569 132 569 163 576 c 1,17,-1
 164 583 l 1,18,19
 50 583 50 583 16 551 c 1,20,21
 14 543 14 543 14 535 c 0,22,23
 14 503 14 503 28 482 c 1,24,-1
 28 474 l 1,25,26
 -14 439 -14 439 -40 389 c 1,27,28
 -57 389 -57 389 -65.5 403.5 c 128,-1,29
 -74 418 -74 418 -74 438 c 0,30,31
 -74 514 -74 514 -19.5 572 c 128,-1,32
 35 630 35 630 117 660 c 1,33,34
 163 651 163 651 338 651 c 0,0,1
265 82 m 1,35,36
 280 73 280 73 318 73 c 128,-1,37
 356 73 356 73 380 94 c 1,38,39
 400 137 400 137 411 204 c 128,-1,40
 422 271 422 271 422 321 c 128,-1,41
 422 371 422 371 421 398 c 128,-1,42
 420 425 420 425 414.5 466 c 128,-1,43
 409 507 409 507 398.5 531.5 c 128,-1,44
 388 556 388 556 366.5 574.5 c 128,-1,45
 345 593 345 593 319 593 c 128,-1,46
 293 593 293 593 278 587 c 1,47,48
 260 399 260 399 260 192 c 0,49,50
 260 132 260 132 265 82 c 1,35,36
EndSplineSet
EndChar

StartChar: E
Encoding: 69 69 40
Width: 568
GlyphClass: 2
Flags: W
LayerCount: 2
Fore
SplineSet
538 200 m 0,0,1
 538 114 538 114 452.5 39.5 c 128,-1,2
 367 -35 367 -35 262 -72 c 1,3,4
 147 -72 147 -72 80.5 -19 c 128,-1,5
 14 34 14 34 14 123 c 128,-1,6
 14 212 14 212 69 270 c 128,-1,7
 124 328 124 328 210 346 c 1,8,9
 222 346 222 346 255 341 c 1,10,-1
 256 348 l 1,11,12
 98 379 98 379 98 476 c 1,13,14
 148 541 148 541 213 593.5 c 128,-1,15
 278 646 278 646 345 666 c 1,16,17
 436 666 436 666 497 630 c 1,18,19
 454 566 454 566 439 489 c 1,20,-1
 430 489 l 1,21,22
 394 526 394 526 362.5 546.5 c 128,-1,23
 331 567 331 567 293 567 c 0,24,25
 279 567 279 567 264 564 c 1,26,27
 258 549 258 549 258 524 c 0,28,29
 258 454 258 454 282.5 417 c 128,-1,30
 307 380 307 380 370 371 c 1,31,-1
 364 333 l 1,32,33
 276 333 276 333 229 288.5 c 128,-1,34
 182 244 182 244 182 157 c 0,35,36
 182 97 182 97 209.5 56.5 c 128,-1,37
 237 16 237 16 286 16 c 128,-1,38
 335 16 335 16 355 31 c 1,39,40
 390 80 390 80 390 166 c 0,41,42
 390 204 390 204 381.5 225.5 c 128,-1,43
 373 247 373 247 345 247 c 0,44,45
 337 247 337 247 329 245 c 1,46,47
 326 234 326 234 326 221 c 0,48,49
 326 181 326 181 348 159 c 1,50,-1
 348 151 l 1,51,52
 307 127 307 127 280 78 c 1,53,54
 245 78 245 78 245 141 c 0,55,56
 245 221 245 221 299 268.5 c 128,-1,57
 353 316 353 316 439 324 c 1,58,59
 491 311 491 311 514.5 282 c 128,-1,60
 538 253 538 253 538 200 c 0,0,1
EndSplineSet
EndChar

StartChar: F
Encoding: 70 70 41
Width: 492
GlyphClass: 2
Flags: W
LayerCount: 2
Fore
SplineSet
117 660 m 1,0,1
 216 648 216 648 337 648 c 128,-1,2
 458 648 458 648 501 677 c 1,3,-1
 513 666 l 1,4,5
 465 594 465 594 463 487 c 1,6,-1
 446 487 l 1,7,8
 432 531 432 531 428 580 c 1,9,10
 411 571 411 571 369.5 571 c 128,-1,11
 328 571 328 571 280 579 c 1,12,13
 267 489 267 489 260 383 c 1,14,15
 279 379 279 379 326.5 379 c 128,-1,16
 374 379 374 379 425 396 c 1,17,-1
 430 390 l 1,18,19
 424 373 424 373 415 306 c 1,20,21
 345 316 345 316 306.5 316 c 128,-1,22
 268 316 268 316 257 314 c 1,23,24
 254 246 254 246 254 157 c 128,-1,25
 254 68 254 68 269 0 c 1,26,27
 136 -4 136 -4 82 -15 c 1,28,-1
 76 -10 l 1,29,30
 90 50 90 50 100.5 185.5 c 128,-1,31
 111 321 111 321 111 422 c 128,-1,32
 111 523 111 523 109 561 c 1,33,34
 132 569 132 569 163 576 c 1,35,-1
 164 583 l 1,36,37
 50 583 50 583 16 551 c 1,38,39
 14 543 14 543 14 535 c 0,40,41
 14 503 14 503 28 482 c 1,42,-1
 28 474 l 1,43,44
 -14 439 -14 439 -40 389 c 1,45,46
 -57 389 -57 389 -65.5 403.5 c 128,-1,47
 -74 418 -74 418 -74 438 c 0,48,49
 -74 514 -74 514 -19.5 572 c 128,-1,50
 35 630 35 630 117 660 c 1,0,1
EndSplineSet
EndChar

StartChar: G
Encoding: 71 71 42
Width: 544
GlyphClass: 2
Flags: W
LayerCount: 2
Fore
SplineSet
30 234 m 0,0,1
 30 506 30 506 309 666 c 1,2,3
 350 651 350 651 412 651 c 128,-1,4
 474 651 474 651 493 657 c 1,5,-1
 500 643 l 1,6,7
 473 607 473 607 457.5 540 c 128,-1,8
 442 473 442 473 442 420 c 1,9,-1
 425 420 l 1,10,11
 415 446 415 446 406 496 c 1,12,-1
 385 512 l 2,13,14
 308 570 308 570 252 570 c 1,15,16
 227 512 227 512 212 428 c 128,-1,17
 197 344 197 344 197 290 c 128,-1,18
 197 236 197 236 202 203 c 128,-1,19
 207 170 207 170 218.5 138.5 c 128,-1,20
 230 107 230 107 253.5 89 c 128,-1,21
 277 71 277 71 310 71 c 1,22,23
 323 77 323 77 340 94 c 1,24,-1
 342 181 l 2,25,26
 342 215 342 215 336 248 c 1,27,28
 304 256 304 256 265 274 c 1,29,-1
 267 295 l 1,30,31
 304 289 304 289 338 289 c 0,32,33
 417 289 417 289 483 321 c 1,34,-1
 493 314 l 1,35,36
 481 288 481 288 478 256 c 0,37,38
 461 113 461 113 459 -49 c 1,39,40
 411 -105 411 -105 328 -152.5 c 128,-1,41
 245 -200 245 -200 179.5 -200 c 128,-1,42
 114 -200 114 -200 114 -161 c 1,43,44
 172 -132 172 -132 199 -86 c 1,45,-1
 207 -86 l 1,46,47
 236 -115 236 -115 267 -115 c 128,-1,48
 298 -115 298 -115 309 -109 c 1,49,50
 336 -62 336 -62 339 33 c 1,51,52
 306 4 306 4 270 -15 c 1,53,54
 158 -15 158 -15 94 52.5 c 128,-1,55
 30 120 30 120 30 234 c 0,0,1
EndSplineSet
EndChar

StartChar: H
Encoding: 72 72 43
Width: 677
GlyphClass: 2
Flags: W
LayerCount: 2
Fore
SplineSet
681 773 m 0,0,1
 662 773 662 773 646 767 c 1,2,3
 624 730 624 730 615 651 c 0,4,5
 587 404 587 404 587 227.5 c 128,-1,6
 587 51 587 51 598 0 c 1,7,8
 470 -4 470 -4 411 -15 c 1,9,-1
 405 -10 l 1,10,11
 430 102 430 102 437 315 c 1,12,13
 395 322 395 322 348 322 c 128,-1,14
 301 322 301 322 259 315 c 1,15,16
 253 271 253 271 253 169.5 c 128,-1,17
 253 68 253 68 268 0 c 1,18,19
 135 -4 135 -4 81 -15 c 1,20,-1
 75 -10 l 1,21,22
 89 49 89 49 99.5 190 c 128,-1,23
 110 331 110 331 110 411 c 128,-1,24
 110 491 110 491 108 561 c 1,25,26
 129 568 129 568 163 576 c 1,27,-1
 164 583 l 1,28,29
 50 583 50 583 16 551 c 1,30,31
 14 543 14 543 14 535 c 0,32,33
 14 503 14 503 28 482 c 1,34,-1
 28 474 l 1,35,36
 -14 439 -14 439 -40 389 c 1,37,38
 -57 389 -57 389 -65.5 403.5 c 128,-1,39
 -74 418 -74 418 -74 438 c 0,40,41
 -74 514 -74 514 -19.5 572 c 128,-1,42
 35 630 35 630 117 660 c 1,43,44
 150 653 150 653 197 653 c 128,-1,45
 244 653 244 653 286 664 c 1,46,-1
 292 659 l 1,47,48
 273 575 273 575 262 395 c 1,49,50
 305 385 305 385 352.5 385 c 128,-1,51
 400 385 400 385 439 394 c 1,52,53
 441 444 441 444 441 465 c 0,54,55
 441 596 441 596 429 649 c 1,56,57
 499 728 499 728 597.5 793 c 128,-1,58
 696 858 696 858 777 858 c 0,59,60
 841 858 841 858 841 819 c 1,61,62
 783 790 783 790 756 744 c 1,63,-1
 748 744 l 1,64,65
 719 773 719 773 681 773 c 0,0,1
EndSplineSet
EndChar

StartChar: I
Encoding: 73 73 44
Width: 344
GlyphClass: 2
Flags: W
LayerCount: 2
Fore
SplineSet
265 453 m 128,-1,1
 253 308 253 308 253 188 c 128,-1,2
 253 68 253 68 268 0 c 1,3,4
 135 -4 135 -4 81 -15 c 1,5,-1
 75 -10 l 1,6,7
 89 49 89 49 99.5 190 c 128,-1,8
 110 331 110 331 110 411 c 128,-1,9
 110 491 110 491 108 561 c 1,10,11
 129 568 129 568 163 576 c 1,12,-1
 164 583 l 1,13,14
 50 583 50 583 16 551 c 1,15,16
 14 543 14 543 14 535 c 0,17,18
 14 503 14 503 28 482 c 1,19,-1
 28 474 l 1,20,21
 -14 439 -14 439 -40 389 c 1,22,23
 -57 389 -57 389 -65.5 403.5 c 128,-1,24
 -74 418 -74 418 -74 438 c 0,25,26
 -74 514 -74 514 -19.5 572 c 128,-1,27
 35 630 35 630 117 660 c 1,28,29
 150 653 150 653 197 653 c 128,-1,30
 244 653 244 653 286 664 c 1,31,-1
 292 659 l 1,32,0
 277 598 277 598 265 453 c 128,-1,1
EndSplineSet
EndChar

StartChar: J
Encoding: 74 74 45
Width: 344
GlyphClass: 2
Flags: W
LayerCount: 2
Fore
SplineSet
264.5 443 m 128,-1,1
 253 301 253 301 253 195.5 c 128,-1,2
 253 90 253 90 273 13 c 1,3,4
 221 -49 221 -49 144 -106 c 128,-1,5
 67 -163 67 -163 -14 -201 c 1,6,-1
 -26 -185 l 1,7,8
 40 -122 40 -122 66 -42 c 0,9,10
 110 95 110 95 110 457 c 0,11,12
 110 491 110 491 108 561 c 1,13,14
 129 568 129 568 163 576 c 1,15,-1
 164 583 l 1,16,17
 50 583 50 583 16 551 c 1,18,19
 14 543 14 543 14 535 c 0,20,21
 14 503 14 503 28 482 c 1,22,-1
 28 474 l 1,23,24
 -14 439 -14 439 -40 389 c 1,25,26
 -57 389 -57 389 -65.5 403.5 c 128,-1,27
 -74 418 -74 418 -74 438 c 0,28,29
 -74 514 -74 514 -19.5 572 c 128,-1,30
 35 630 35 630 117 660 c 1,31,32
 150 653 150 653 197 653 c 128,-1,33
 244 653 244 653 286 664 c 1,34,-1
 292 659 l 1,35,0
 276 585 276 585 264.5 443 c 128,-1,1
EndSplineSet
EndChar

StartChar: K
Encoding: 75 75 46
Width: 598
GlyphClass: 2
Flags: W
LayerCount: 2
Fore
SplineSet
254 279 m 1,0,1
 253 247 253 247 253 157.5 c 128,-1,2
 253 68 253 68 268 0 c 1,3,4
 135 -4 135 -4 81 -15 c 1,5,-1
 75 -10 l 1,6,7
 89 49 89 49 99.5 190 c 128,-1,8
 110 331 110 331 110 411 c 128,-1,9
 110 491 110 491 108 561 c 1,10,11
 129 568 129 568 163 576 c 1,12,-1
 164 583 l 1,13,14
 50 583 50 583 16 551 c 1,15,16
 14 543 14 543 14 535 c 0,17,18
 14 503 14 503 28 482 c 1,19,-1
 28 474 l 1,20,21
 -14 439 -14 439 -40 389 c 1,22,23
 -57 389 -57 389 -65.5 403.5 c 128,-1,24
 -74 418 -74 418 -74 438 c 0,25,26
 -74 514 -74 514 -19.5 572 c 128,-1,27
 35 630 35 630 117 660 c 1,28,29
 150 653 150 653 197 653 c 128,-1,30
 244 653 244 653 286 664 c 1,31,-1
 292 659 l 1,32,33
 268 559 268 559 256 335 c 1,34,-1
 319 408 l 1,35,36
 395 494 395 494 395 616 c 0,37,38
 395 622 395 622 393 646 c 1,39,-1
 400 651 l 1,40,41
 515 651 515 651 590 660 c 1,42,43
 564 586 564 586 513 513 c 128,-1,44
 462 440 462 440 399 385 c 1,45,46
 559 29 559 29 649 -44 c 1,47,48
 666 -50 666 -50 684 -50 c 0,49,50
 727 -50 727 -50 753 -15 c 1,51,-1
 761 -15 l 1,52,53
 794 -62 794 -62 854 -86 c 1,54,55
 854 -125 854 -125 790 -125 c 0,56,57
 707 -125 707 -125 591.5 -82 c 128,-1,58
 476 -39 476 -39 397 11 c 1,59,60
 365 163 365 163 289 305 c 1,61,-1
 254 279 l 1,0,1
EndSplineSet
EndChar

StartChar: L
Encoding: 76 76 47
Width: 521
GlyphClass: 2
Flags: W
LayerCount: 2
Fore
SplineSet
265 457 m 128,-1,1
 253 317 253 317 253 219.5 c 128,-1,2
 253 122 253 122 261 66 c 1,3,4
 281 62 281 62 308 62 c 0,5,6
 399 62 399 62 438 105 c 1,7,8
 440 113 440 113 440 121 c 0,9,10
 440 153 440 153 426 174 c 1,11,-1
 426 182 l 1,12,13
 468 217 468 217 494 267 c 1,14,15
 511 267 511 267 519.5 252 c 128,-1,16
 528 237 528 237 528 217 c 0,17,18
 528 146 528 146 479 79.5 c 128,-1,19
 430 13 430 13 361 -15 c 1,20,21
 319 0 319 0 236 0 c 128,-1,22
 153 0 153 0 81 -15 c 1,23,-1
 75 -10 l 1,24,25
 89 49 89 49 99.5 190 c 128,-1,26
 110 331 110 331 110 411 c 128,-1,27
 110 491 110 491 108 561 c 1,28,29
 129 568 129 568 163 576 c 1,30,-1
 164 583 l 1,31,32
 50 583 50 583 16 551 c 1,33,34
 14 543 14 543 14 535 c 0,35,36
 14 503 14 503 28 482 c 1,37,-1
 28 474 l 1,38,39
 -14 439 -14 439 -40 389 c 1,40,41
 -57 389 -57 389 -65.5 403.5 c 128,-1,42
 -74 418 -74 418 -74 438 c 0,43,44
 -74 514 -74 514 -19.5 572 c 128,-1,45
 35 630 35 630 117 660 c 1,46,47
 150 653 150 653 197 653 c 128,-1,48
 244 653 244 653 286 664 c 1,49,-1
 292 659 l 1,50,0
 277 597 277 597 265 457 c 128,-1,1
EndSplineSet
EndChar

StartChar: M
Encoding: 77 77 48
Width: 741
GlyphClass: 2
Flags: W
LayerCount: 2
Fore
SplineSet
317 614 m 0,0,1
 317 543 317 543 351 387 c 2,2,-1
 372 289 l 1,3,-1
 379 291 l 1,4,5
 378 302 378 302 378 322 c 128,-1,6
 378 342 378 342 386 372 c 2,7,-1
 451 596 l 2,8,9
 457 615 457 615 457 628 c 128,-1,10
 457 641 457 641 454 647 c 1,11,-1
 457 654 l 1,12,13
 476 651 476 651 550 651 c 128,-1,14
 624 651 624 651 671 665 c 1,15,-1
 678 660 l 1,16,17
 656 544 656 544 656 316 c 128,-1,18
 656 88 656 88 677 0 c 1,19,20
 524 -9 524 -9 496 -15 c 1,21,-1
 489 -10 l 1,22,23
 512 113 512 113 512 324 c 0,24,25
 512 409 512 409 501 503 c 1,26,-1
 497 503 l 1,27,28
 423 274 423 274 414 195 c 0,29,30
 411 163 411 163 411 122 c 1,31,32
 402 119 402 119 370 111 c 0,33,34
 292 91 292 91 274 79 c 1,35,-1
 262 87 l 1,36,37
 264 109 264 109 264 120 c 0,38,39
 264 232 264 232 194 496 c 1,40,-1
 190 495 l 1,41,42
 146 231 146 231 144 0 c 1,43,44
 56 -2 56 -2 7 -14 c 1,45,-1
 1 -9 l 1,46,47
 30 77 30 77 69.5 258.5 c 128,-1,48
 109 440 109 440 125 561 c 1,49,50
 146 568 146 568 180 576 c 1,51,-1
 181 583 l 1,52,53
 63 583 63 583 29 551 c 1,54,55
 27 543 27 543 27 535 c 0,56,57
 27 503 27 503 41 482 c 1,58,-1
 41 474 l 1,59,60
 -1 439 -1 439 -27 389 c 1,61,62
 -44 389 -44 389 -52.5 403.5 c 128,-1,63
 -61 418 -61 418 -61 438 c 0,64,65
 -61 514 -61 514 -6.5 572 c 128,-1,66
 48 630 48 630 130 660 c 1,67,68
 163 653 163 653 221.5 653 c 128,-1,69
 280 653 280 653 318 666 c 1,70,-1
 323 661 l 1,71,72
 317 640 317 640 317 614 c 0,0,1
EndSplineSet
EndChar

StartChar: N
Encoding: 78 78 49
Width: 641
GlyphClass: 2
Flags: W
LayerCount: 2
Fore
SplineSet
577 466.5 m 128,-1,1
 566 333 566 333 566 210.5 c 128,-1,2
 566 88 566 88 581 0 c 1,3,4
 575 -1 575 -1 531 -3 c 0,5,6
 408 -9 408 -9 395 -13 c 1,7,-1
 388 -10 l 1,8,9
 336 170 336 170 227 407 c 0,10,11
 202 461 202 461 184 485 c 1,12,-1
 180 483 l 1,13,14
 180 306 180 306 189 172 c 128,-1,15
 198 38 198 38 206 0 c 1,16,17
 122 -5 122 -5 82 -15 c 1,18,-1
 76 -10 l 1,19,20
 90 49 90 49 100 189 c 128,-1,21
 110 329 110 329 110 410 c 128,-1,22
 110 491 110 491 108 561 c 1,23,24
 129 568 129 568 163 576 c 1,25,-1
 164 583 l 1,26,27
 50 583 50 583 16 551 c 1,28,29
 14 543 14 543 14 535 c 0,30,31
 14 503 14 503 28 482 c 1,32,-1
 28 474 l 1,33,34
 -14 439 -14 439 -40 389 c 1,35,36
 -57 389 -57 389 -65.5 403.5 c 128,-1,37
 -74 418 -74 418 -74 438 c 0,38,39
 -74 514 -74 514 -19.5 572 c 128,-1,40
 35 630 35 630 117 660 c 1,41,42
 150 653 150 653 204.5 653 c 128,-1,43
 259 653 259 653 301 664 c 1,44,-1
 307 659 l 1,45,46
 324 571 324 571 369.5 445.5 c 128,-1,47
 415 320 415 320 461 239 c 2,48,-1
 495 179 l 1,49,-1
 498 180 l 1,50,51
 498 357 498 357 489 484.5 c 128,-1,52
 480 612 480 612 472 651 c 1,53,54
 557 656 557 656 596 666 c 1,55,-1
 602 661 l 1,56,0
 588 600 588 600 577 466.5 c 128,-1,1
EndSplineSet
EndChar

StartChar: O
Encoding: 79 79 50
Width: 588
GlyphClass: 2
Flags: W
LayerCount: 2
Fore
SplineSet
198 282 m 1,0,1
 137 314 137 314 137 406 c 128,-1,2
 137 498 137 498 189.5 568 c 128,-1,3
 242 638 242 638 324 666 c 1,4,5
 558 666 558 666 558 413 c 0,6,7
 558 277 558 277 474 152 c 128,-1,8
 390 27 390 27 265 -15 c 1,9,10
 154 -15 154 -15 92 54 c 128,-1,11
 30 123 30 123 30 234 c 128,-1,12
 30 345 30 345 82 446 c 0,13,14
 105 490 105 490 131 523 c 1,15,-1
 146 516 l 1,16,17
 120 467 120 467 120 412 c 0,18,19
 120 304 120 304 197 255 c 1,20,21
 197 177 197 177 219.5 122.5 c 128,-1,22
 242 68 242 68 288 68 c 0,23,24
 318 68 318 68 337 79 c 1,25,26
 364 133 364 133 377.5 225.5 c 128,-1,27
 391 318 391 318 391 396 c 0,28,29
 391 582 391 582 300 582 c 0,30,31
 269 582 269 582 250 571 c 1,32,33
 215 522 215 522 215 436 c 0,34,35
 215 398 215 398 223.5 376.5 c 128,-1,36
 232 355 232 355 260 355 c 0,37,38
 268 355 268 355 276 357 c 1,39,40
 279 368 279 368 279 381 c 0,41,42
 279 421 279 421 257 443 c 1,43,-1
 257 451 l 1,44,45
 301 481 301 481 325 524 c 1,46,47
 361 524 361 524 361 458.5 c 128,-1,48
 361 393 361 393 316.5 345.5 c 128,-1,49
 272 298 272 298 198 282 c 1,0,1
EndSplineSet
EndChar

StartChar: P
Encoding: 80 80 51
Width: 558
GlyphClass: 2
Flags: W
LayerCount: 2
Fore
SplineSet
102.5 185.5 m 128,-1,1
 113 321 113 321 113 415.5 c 128,-1,2
 113 510 113 510 109 561 c 1,3,4
 132 569 132 569 163 576 c 1,5,-1
 164 583 l 1,6,7
 50 583 50 583 16 551 c 1,8,9
 14 543 14 543 14 535 c 0,10,11
 14 503 14 503 28 482 c 1,12,-1
 28 474 l 1,13,14
 -14 439 -14 439 -40 389 c 1,15,16
 -57 389 -57 389 -65.5 403.5 c 128,-1,17
 -74 418 -74 418 -74 438 c 0,18,19
 -74 514 -74 514 -19.5 572 c 128,-1,20
 35 630 35 630 117 660 c 1,21,22
 163 651 163 651 348 651 c 0,23,24
 449 651 449 651 503 619.5 c 128,-1,25
 557 588 557 588 557 504 c 0,26,27
 557 403 557 403 476 349 c 128,-1,28
 395 295 395 295 280 295 c 1,29,-1
 283 332 l 1,30,31
 388 332 388 332 388 474 c 0,32,33
 388 593 388 593 320 593 c 0,34,35
 297 593 297 593 276 587 c 1,36,37
 256 447 256 447 256 185 c 0,38,39
 256 68 256 68 271 0 c 1,40,41
 138 -4 138 -4 84 -15 c 1,42,-1
 78 -10 l 1,43,0
 92 50 92 50 102.5 185.5 c 128,-1,1
EndSplineSet
EndChar

StartChar: Q
Encoding: 81 81 52
Width: 588
GlyphClass: 2
Flags: W
LayerCount: 2
Fore
SplineSet
11 238 m 0,0,1
 11 377 11 377 93 497 c 128,-1,2
 175 617 175 617 305 666 c 1,3,4
 539 666 539 666 539 413 c 0,5,6
 539 278 539 278 456 154 c 128,-1,7
 373 30 373 30 246 -15 c 0,8,9
 148 -50 148 -50 111 -82 c 1,10,-1
 116 -88 l 1,11,12
 174 -51 174 -51 246 -45 c 1,13,14
 295 -54 295 -54 391 -108 c 128,-1,15
 487 -162 487 -162 542 -162 c 0,16,17
 562 -162 562 -162 572 -138.5 c 128,-1,18
 582 -115 582 -115 582 -87 c 1,19,-1
 586 -80 l 1,20,21
 639 -77 639 -77 691 -50 c 1,22,23
 703 -59 703 -59 703 -72 c 0,24,25
 703 -113 703 -113 638 -154.5 c 128,-1,26
 573 -196 573 -196 496 -220 c 128,-1,27
 419 -244 419 -244 372 -244 c 1,28,29
 316 -193 316 -193 243 -156.5 c 128,-1,30
 170 -120 170 -120 111 -120 c 128,-1,31
 52 -120 52 -120 6 -166 c 1,32,-1
 -13 -151 l 1,33,34
 63 -57 63 -57 170 -4 c 1,35,36
 92 16 92 16 51.5 82.5 c 128,-1,37
 11 149 11 149 11 238 c 0,0,1
372 396 m 0,38,39
 372 582 372 582 281 582 c 0,40,41
 250 582 250 582 231 571 c 1,42,43
 178 436 178 436 178 255 c 0,44,45
 178 177 178 177 200.5 122.5 c 128,-1,46
 223 68 223 68 269 68 c 0,47,48
 299 68 299 68 318 79 c 1,49,50
 345 133 345 133 358.5 225.5 c 128,-1,51
 372 318 372 318 372 396 c 0,38,39
EndSplineSet
EndChar

StartChar: R
Encoding: 82 82 53
Width: 611
GlyphClass: 2
Flags: W
LayerCount: 2
Fore
SplineSet
102.5 185.5 m 128,-1,1
 113 321 113 321 113 415.5 c 128,-1,2
 113 510 113 510 109 561 c 1,3,4
 132 569 132 569 163 576 c 1,5,-1
 164 583 l 1,6,7
 50 583 50 583 16 551 c 1,8,9
 14 543 14 543 14 535 c 0,10,11
 14 503 14 503 28 482 c 1,12,-1
 28 474 l 1,13,14
 -14 439 -14 439 -40 389 c 1,15,16
 -57 389 -57 389 -65.5 403.5 c 128,-1,17
 -74 418 -74 418 -74 438 c 0,18,19
 -74 514 -74 514 -19.5 572 c 128,-1,20
 35 630 35 630 117 660 c 1,21,22
 163 651 163 651 344 651 c 0,23,24
 501 651 501 651 541 576 c 0,25,26
 557 547 557 547 557 503 c 0,27,28
 557 390 557 390 432 331 c 1,29,30
 445 304 445 304 509 187 c 128,-1,31
 573 70 573 70 625 0 c 1,32,33
 518 -2 518 -2 431 -15 c 1,34,-1
 424 -13 l 1,35,36
 413 37 413 37 379 126 c 128,-1,37
 345 215 345 215 301 299 c 1,38,-1
 276 299 l 1,39,-1
 279 336 l 1,40,41
 331 336 331 336 359.5 370 c 128,-1,42
 388 404 388 404 388 473 c 0,43,44
 388 593 388 593 320 593 c 0,45,46
 297 593 297 593 276 587 c 1,47,48
 256 447 256 447 256 185 c 0,49,50
 256 68 256 68 271 0 c 1,51,52
 138 -4 138 -4 84 -15 c 1,53,-1
 78 -10 l 1,54,0
 92 50 92 50 102.5 185.5 c 128,-1,1
EndSplineSet
EndChar

StartChar: S
Encoding: 83 83 54
Width: 462
GlyphClass: 2
Flags: W
LayerCount: 2
Fore
SplineSet
103 119 m 0,0,1
 103 67 103 67 132.5 29 c 128,-1,2
 162 -9 162 -9 212 -22 c 1,3,4
 244 6 244 6 273.5 59.5 c 128,-1,5
 303 113 303 113 303 147.5 c 128,-1,6
 303 182 303 182 276.5 211 c 128,-1,7
 250 240 250 240 212 263 c 128,-1,8
 174 286 174 286 136 310 c 1,9,10
 44 365 44 365 44 426 c 128,-1,11
 44 487 44 487 105 563.5 c 128,-1,12
 166 640 166 640 229 666 c 1,13,14
 284 651 284 651 347.5 651 c 128,-1,15
 411 651 411 651 436 659 c 1,16,-1
 442 646 l 1,17,18
 415 610 415 610 400 551 c 128,-1,19
 385 492 385 492 385 441 c 1,20,-1
 368 441 l 1,21,22
 356 471 356 471 348 517 c 1,23,-1
 318 535 l 1,24,25
 250 577 250 577 183 577 c 1,26,27
 172 566 172 566 172 537.5 c 128,-1,28
 172 509 172 509 199.5 480 c 128,-1,29
 227 451 227 451 265.5 427.5 c 128,-1,30
 304 404 304 404 343 380 c 0,31,32
 437 324 437 324 437 265 c 0,33,34
 437 172 437 172 357 59 c 128,-1,35
 277 -54 277 -54 186 -115 c 1,36,37
 96 -115 96 -115 37.5 -71 c 128,-1,38
 -21 -27 -21 -27 -21 55 c 1,39,40
 14 121 14 121 74 173.5 c 128,-1,41
 134 226 134 226 185 226 c 0,42,43
 249 226 249 226 249 187 c 1,44,45
 216 156 216 156 194 112 c 1,46,-1
 186 112 l 1,47,48
 164 141 164 141 129 141 c 0,49,50
 116 141 116 141 105 138 c 1,51,52
 103 128 103 128 103 119 c 0,0,1
EndSplineSet
EndChar

StartChar: T
Encoding: 84 84 55
Width: 528
GlyphClass: 2
Flags: W
LayerCount: 2
Fore
SplineSet
304 656 m 2,0,1
 416 647 416 647 450.5 647 c 128,-1,2
 485 647 485 647 497 651 c 1,3,4
 529 684 529 684 553 704 c 1,5,-1
 566 698 l 1,6,7
 532 634 532 634 519 550 c 1,8,-1
 496 557 l 2,9,10
 460 567 460 567 390 573 c 1,11,12
 365 385 365 385 365 226.5 c 128,-1,13
 365 68 365 68 380 0 c 1,14,15
 247 -4 247 -4 193 -15 c 1,16,-1
 187 -10 l 1,17,18
 201 49 201 49 211.5 190 c 128,-1,19
 222 331 222 331 222 412.5 c 128,-1,20
 222 494 222 494 220 566 c 1,21,22
 248 574 248 574 273 577 c 1,23,-1
 274 584 l 1,24,25
 250 585 250 585 219 585 c 128,-1,26
 188 585 188 585 157.5 579.5 c 128,-1,27
 127 574 127 574 104 552 c 1,28,29
 102 544 102 544 102 536 c 0,30,31
 102 504 102 504 116 483 c 1,32,-1
 116 475 l 1,33,34
 74 440 74 440 48 390 c 1,35,36
 31 390 31 390 22.5 405 c 128,-1,37
 14 420 14 420 14 440 c 0,38,39
 14 517 14 517 63.5 577 c 128,-1,40
 113 637 113 637 191 666 c 1,41,-1
 304 656 l 2,0,1
EndSplineSet
EndChar

StartChar: U
Encoding: 85 85 56
Width: 651
GlyphClass: 2
Flags: W
LayerCount: 2
Fore
SplineSet
95 205 m 1,0,-1
 110 457 l 1,1,2
 110 491 110 491 108 561 c 1,3,4
 129 568 129 568 163 576 c 1,5,-1
 164 583 l 1,6,7
 50 583 50 583 16 551 c 1,8,9
 14 543 14 543 14 535 c 0,10,11
 14 503 14 503 28 482 c 1,12,-1
 28 474 l 1,13,14
 -14 439 -14 439 -40 389 c 1,15,16
 -57 389 -57 389 -65.5 403.5 c 128,-1,17
 -74 418 -74 418 -74 438 c 0,18,19
 -74 514 -74 514 -19.5 572 c 128,-1,20
 35 630 35 630 117 660 c 1,21,22
 150 653 150 653 196 653 c 128,-1,23
 242 653 242 653 284 664 c 1,24,-1
 290 659 l 1,25,26
 275 592 275 592 263.5 479.5 c 128,-1,27
 252 367 252 367 252 297 c 128,-1,28
 252 227 252 227 253 202.5 c 128,-1,29
 254 178 254 178 259 147 c 0,30,31
 269 88 269 88 308 80 c 1,32,33
 371 125 371 125 406 200 c 1,34,35
 413 316 413 316 413 457 c 128,-1,36
 413 598 413 598 402 649 c 1,37,38
 536 653 536 653 589 664 c 1,39,-1
 595 659 l 1,40,41
 579 587 579 587 569.5 447 c 128,-1,42
 560 307 560 307 560 179 c 128,-1,43
 560 51 560 51 571 0 c 1,44,45
 440 -6 440 -6 397 -15 c 1,46,-1
 390 -10 l 1,47,48
 409 62 409 62 416 125 c 1,49,-1
 412 126 l 1,50,51
 356 22 356 22 273 -15 c 1,52,53
 175 -13 175 -13 135 42 c 128,-1,54
 95 97 95 97 95 205 c 1,0,-1
EndSplineSet
EndChar

StartChar: V
Encoding: 86 86 57
Width: 562
GlyphClass: 2
Flags: W
LayerCount: 2
Fore
SplineSet
390 514 m 0,0,1
 390 598 390 598 359 626 c 1,2,-1
 359 635 l 1,3,4
 444 658 444 658 495 690 c 1,5,6
 558 658 558 658 558 554 c 0,7,8
 558 294 558 294 305 -13 c 1,9,-1
 296 -15 l 1,10,-1
 262 1 l 2,11,12
 253 5 253 5 226 18.5 c 128,-1,13
 199 32 199 32 184 38 c 0,14,15
 139 57 139 57 111 57 c 128,-1,16
 83 57 83 57 70 53 c 1,17,-1
 65 67 l 1,18,19
 92 89 92 89 97 144 c 0,20,21
 111 315 111 315 111 403 c 128,-1,22
 111 491 111 491 109 561 c 1,23,24
 130 568 130 568 164 576 c 1,25,-1
 165 583 l 1,26,27
 51 583 51 583 17 551 c 1,28,29
 15 543 15 543 15 535 c 0,30,31
 15 503 15 503 29 482 c 1,32,-1
 29 474 l 1,33,34
 -13 439 -13 439 -39 389 c 1,35,36
 -56 389 -56 389 -64.5 403.5 c 128,-1,37
 -73 418 -73 418 -73 438 c 0,38,39
 -73 514 -73 514 -18.5 572 c 128,-1,40
 36 630 36 630 118 660 c 1,41,42
 151 653 151 653 198 653 c 128,-1,43
 245 653 245 653 287 664 c 1,44,-1
 293 659 l 1,45,46
 258 504 258 504 254 192 c 0,47,48
 254 155 254 155 255 133 c 1,49,50
 274 101 274 101 315 84 c 1,51,52
 390 296 390 296 390 514 c 0,0,1
EndSplineSet
EndChar

StartChar: W
Encoding: 87 87 58
Width: 808
GlyphClass: 2
Flags: W
LayerCount: 2
Fore
SplineSet
390 514 m 0,0,1
 390 624 390 624 338 642 c 1,2,-1
 340 656 l 1,3,4
 417 651 417 651 513.5 651 c 128,-1,5
 610 651 610 651 696.5 664 c 128,-1,6
 783 677 783 677 830 703 c 1,7,-1
 839 692 l 1,8,9
 820 669 820 669 778 642 c 1,10,11
 794 611 794 611 794 554 c 0,12,13
 794 405 794 405 722.5 252 c 128,-1,14
 651 99 651 99 537 -13 c 1,15,-1
 528 -15 l 1,16,-1
 494 1 l 1,17,18
 421 34 421 34 376 82 c 1,19,20
 343 33 343 33 305 -13 c 1,21,-1
 296 -15 l 1,22,-1
 262 1 l 1,23,24
 184 40 184 40 152.5 48.5 c 128,-1,25
 121 57 121 57 102 57 c 128,-1,26
 83 57 83 57 70 53 c 1,27,-1
 65 67 l 1,28,29
 92 89 92 89 97 144 c 0,30,31
 111 315 111 315 111 403 c 128,-1,32
 111 491 111 491 109 561 c 1,33,34
 130 568 130 568 164 576 c 1,35,-1
 165 583 l 1,36,37
 51 583 51 583 17 551 c 1,38,39
 15 543 15 543 15 535 c 0,40,41
 15 503 15 503 29 482 c 1,42,-1
 29 474 l 1,43,44
 -13 439 -13 439 -39 389 c 1,45,46
 -56 389 -56 389 -64.5 403.5 c 128,-1,47
 -73 418 -73 418 -73 438 c 0,48,49
 -73 514 -73 514 -18.5 572 c 128,-1,50
 36 630 36 630 118 660 c 1,51,52
 151 653 151 653 198 653 c 128,-1,53
 245 653 245 653 287 664 c 1,54,-1
 293 659 l 1,55,56
 258 504 258 504 254 192 c 0,57,58
 254 155 254 155 255 133 c 1,59,60
 274 101 274 101 315 84 c 1,61,62
 390 296 390 296 390 514 c 0,0,1
626 514 m 0,63,64
 626 570 626 570 610 596 c 128,-1,65
 594 622 594 622 554 622 c 0,66,67
 552 622 552 622 530 620 c 1,68,69
 538 607 538 607 538 554 c 0,70,71
 538 389 538 389 451 212 c 1,72,73
 462 177 462 177 495.5 133.5 c 128,-1,74
 529 90 529 90 557 84 c 1,75,76
 626 279 626 279 626 514 c 0,63,64
EndSplineSet
EndChar

StartChar: X
Encoding: 88 88 59
Width: 546
GlyphClass: 2
Flags: W
LayerCount: 2
Fore
SplineSet
375 511.5 m 128,-1,1
 394 573 394 573 394 602.5 c 128,-1,2
 394 632 394 632 389 646 c 1,3,-1
 393 651 l 1,4,5
 488 651 488 651 547 666 c 1,6,7
 544 609 544 609 501 540 c 0,8,9
 459 473 459 473 432 441.5 c 128,-1,10
 405 410 405 410 381 382 c 128,-1,11
 357 354 357 354 353 349 c 1,12,13
 388 262 388 262 439 173 c 1,14,15
 495 70 495 70 547 0 c 1,16,17
 418 -2 418 -2 333 -15 c 1,18,-1
 326 -13 l 1,19,20
 269 183 269 183 241 262 c 1,21,22
 217 209 217 209 197.5 141.5 c 128,-1,23
 178 74 178 74 178 47 c 128,-1,24
 178 20 178 20 183 6 c 1,25,-1
 179 1 l 1,26,27
 84 1 84 1 25 -14 c 1,28,29
 28 32 28 32 65.5 100 c 128,-1,30
 103 168 103 168 136.5 212 c 128,-1,31
 170 256 170 256 221 316 c 1,32,33
 188 397 188 397 146 478 c 0,34,35
 142 484 142 484 97 561 c 1,36,37
 118 568 118 568 152 576 c 1,38,-1
 153 583 l 1,39,40
 55 583 55 583 21 551 c 1,41,42
 19 543 19 543 19 535 c 0,43,44
 19 503 19 503 33 482 c 1,45,-1
 33 474 l 1,46,47
 -9 439 -9 439 -35 389 c 1,48,49
 -52 389 -52 389 -60.5 403.5 c 128,-1,50
 -69 418 -69 418 -69 438 c 0,51,52
 -69 511 -69 511 -16.5 570.5 c 128,-1,53
 36 630 36 630 112 660 c 1,54,55
 147 652 147 652 190.5 652 c 128,-1,56
 234 652 234 652 258 658 c 1,57,-1
 263 653 l 1,58,59
 294 519 294 519 333 405 c 1,60,0
 356 450 356 450 375 511.5 c 128,-1,1
EndSplineSet
EndChar

StartChar: Y
Encoding: 89 89 60
Width: 526
GlyphClass: 2
Flags: W
LayerCount: 2
Fore
SplineSet
354 491.5 m 128,-1,1
 374 571 374 571 374 601.5 c 128,-1,2
 374 632 374 632 369 646 c 1,3,-1
 373 651 l 1,4,5
 468 651 468 651 527 666 c 1,6,7
 523 597 523 597 467.5 503.5 c 128,-1,8
 412 410 412 410 343 327 c 1,9,10
 338 258 338 258 338 163 c 128,-1,11
 338 68 338 68 353 0 c 1,12,13
 220 -4 220 -4 166 -15 c 1,14,-1
 160 -10 l 1,15,16
 187 101 187 101 194 294 c 1,17,18
 173 342 173 342 134 437 c 128,-1,19
 95 532 95 532 78 572 c 0,20,21
 30 682 30 682 -27 727 c 1,22,23
 -42 732 -42 732 -54 732 c 0,24,25
 -97 732 -97 732 -124 693 c 1,26,-1
 -132 693 l 1,27,28
 -164 746 -164 746 -207 768 c 1,29,30
 -207 807 -207 807 -143 807 c 128,-1,31
 -79 807 -79 807 33.5 755 c 128,-1,32
 146 703 146 703 243 645 c 1,33,34
 251 565 251 565 313 371 c 1,35,0
 334 412 334 412 354 491.5 c 128,-1,1
EndSplineSet
EndChar

StartChar: Z
Encoding: 90 90 61
Width: 450
GlyphClass: 2
Flags: W
LayerCount: 2
Fore
SplineSet
260 683 m 1,0,1
 310 651 310 651 373.5 651 c 128,-1,2
 437 651 437 651 470 680 c 1,3,-1
 486 670 l 1,4,5
 468 647 468 647 411.5 555 c 128,-1,6
 355 463 355 463 309 375 c 2,7,-1
 180 131 l 1,8,9
 216 121 216 121 264.5 78 c 128,-1,10
 313 35 313 35 352 -9.5 c 128,-1,11
 391 -54 391 -54 435 -90 c 128,-1,12
 479 -126 479 -126 510 -126 c 0,13,14
 530 -126 530 -126 540 -102.5 c 128,-1,15
 550 -79 550 -79 550 -51 c 1,16,-1
 554 -44 l 1,17,18
 607 -41 607 -41 659 -14 c 1,19,20
 671 -23 671 -23 671 -36 c 0,21,22
 671 -81 671 -81 602.5 -123 c 128,-1,23
 534 -165 534 -165 453.5 -186.5 c 128,-1,24
 373 -208 373 -208 320 -208 c 1,25,26
 245 -91 245 -91 191.5 -37.5 c 128,-1,27
 138 16 138 16 79 16 c 128,-1,28
 20 16 20 16 -26 -30 c 1,29,-1
 -45 -15 l 1,30,31
 18 60 18 60 115 220 c 2,32,-1
 284 497 l 1,33,-1
 281 500 l 1,34,35
 274 496 274 496 258 492 c 1,36,37
 240 501 240 501 227 508 c 128,-1,38
 214 515 214 515 204 519 c 0,39,40
 187 526 187 526 168 526 c 0,41,42
 140 526 140 526 140 471 c 0,43,44
 140 461 140 461 142 445 c 1,45,-1
 139 438 l 1,46,47
 85 424 85 424 41 390 c 1,48,49
 25 398 25 398 25 418 c 0,50,51
 25 474 25 474 110.5 563.5 c 128,-1,52
 196 653 196 653 260 683 c 1,0,1
EndSplineSet
EndChar

StartChar: bracketleft
Encoding: 91 91 62
Width: 320
GlyphClass: 2
Flags: W
LayerCount: 2
Fore
SplineSet
243 -193 m 0,0,1
 134 -193 134 -193 71 -208 c 1,2,-1
 64 -203 l 1,3,4
 80 -133 80 -133 104 220.5 c 128,-1,5
 128 574 128 574 128 631.5 c 128,-1,6
 128 689 128 689 127 699 c 1,7,-1
 135 704 l 1,8,9
 195 689 195 689 305 689 c 0,10,11
 318 689 318 689 332 689 c 1,12,-1
 330 664 l 1,13,14
 277 662 277 662 207 644 c 1,15,-1
 151 -147 l 1,16,17
 220 -166 220 -166 271 -168 c 1,18,-1
 270 -193 l 1,19,20
 256 -193 256 -193 243 -193 c 0,0,1
EndSplineSet
EndChar

StartChar: backslash
Encoding: 92 92 63
Width: 284
GlyphClass: 2
Flags: W
LayerCount: 2
Fore
SplineSet
219 -48 m 1,0,-1
 212 -48 l 1,1,-1
 75 460 l 2,2,3
 35 606 35 606 7 694 c 1,4,5
 50 708 50 708 74 722 c 1,6,-1
 80 722 l 1,7,8
 104 594 104 594 134 480 c 1,9,-1
 219 179 l 1,10,11
 242 93 242 93 277 -11 c 1,12,13
 256 -33 256 -33 219 -48 c 1,0,-1
EndSplineSet
EndChar

StartChar: bracketright
Encoding: 93 93 64
Width: 320
GlyphClass: 2
Flags: W
LayerCount: 2
Fore
SplineSet
77 689 m 0,0,1
 186 689 186 689 249 704 c 1,2,-1
 256 699 l 1,3,4
 240 629 240 629 216 275.5 c 128,-1,5
 192 -78 192 -78 192 -135.5 c 128,-1,6
 192 -193 192 -193 193 -203 c 1,7,-1
 185 -208 l 1,8,9
 125 -193 125 -193 15 -193 c 0,10,11
 2 -193 2 -193 -12 -193 c 1,12,-1
 -10 -168 l 1,13,14
 43 -166 43 -166 113 -148 c 1,15,-1
 169 643 l 1,16,17
 100 662 100 662 49 664 c 1,18,-1
 50 689 l 1,19,20
 64 689 64 689 77 689 c 0,0,1
EndSplineSet
EndChar

StartChar: asciicircum
Encoding: 94 94 65
Width: 518
GlyphClass: 2
Flags: W
LayerCount: 2
Fore
SplineSet
259 550 m 1,0,-1
 79 278 l 1,1,-1
 45 296 l 1,2,3
 103 399 103 399 139.5 474 c 128,-1,4
 176 549 176 549 231 686 c 1,5,-1
 284 696 l 1,6,7
 341 556 341 556 379 475.5 c 128,-1,8
 417 395 417 395 473 296 c 1,9,-1
 439 278 l 1,10,-1
 259 550 l 1,0,-1
EndSplineSet
EndChar

StartChar: underscore
Encoding: 95 95 66
Width: 663
GlyphClass: 2
Flags: W
LayerCount: 2
Fore
SplineSet
47 -125 m 1,0,1
 200 -137 200 -137 388.5 -137 c 128,-1,2
 577 -137 577 -137 647 -131 c 1,3,-1
 656 -139 l 1,4,-1
 616 -194 l 1,5,-1
 18 -194 l 1,6,-1
 7 -184 l 1,7,-1
 47 -125 l 1,0,1
EndSplineSet
EndChar

StartChar: grave
Encoding: 96 96 67
Width: 278
GlyphClass: 2
Flags: W
LayerCount: 2
Fore
SplineSet
-6 745 m 1,0,1
 5 747 5 747 19.5 747 c 128,-1,2
 34 747 34 747 48 746 c 1,3,4
 93 663 93 663 238 567 c 1,5,-1
 224 543 l 1,6,-1
 -40 648 l 1,7,8
 -39 664 -39 664 -27.5 699.5 c 128,-1,9
 -16 735 -16 735 -6 745 c 1,0,1
EndSplineSet
EndChar

StartChar: a
Encoding: 97 97 68
Width: 526
GlyphClass: 2
Flags: W
LayerCount: 2
Fore
SplineSet
296 171 m 1,0,1
 276 176 276 176 244 176 c 128,-1,2
 212 176 212 176 190 171 c 1,3,4
 173 105 173 105 173 67 c 128,-1,5
 173 29 173 29 179 -3 c 1,6,7
 75 -3 75 -3 3 -15 c 1,8,-1
 -7 -8 l 1,9,-1
 179 506 l 1,10,11
 149 519 149 519 134 530 c 1,12,-1
 139 549 l 1,13,14
 201 540 201 540 300 540 c 128,-1,15
 399 540 399 540 468 551 c 1,16,-1
 473 547 l 1,17,18
 461 498 461 498 453 382 c 128,-1,19
 445 266 445 266 445 155 c 128,-1,20
 445 44 445 44 454 -3 c 1,21,22
 343 -3 343 -3 278 -15 c 1,23,-1
 273 -11 l 1,24,25
 289 60 289 60 296 171 c 1,0,1
203 242 m 1,26,27
 219 236 219 236 250 236 c 128,-1,28
 281 236 281 236 298 243 c 1,29,30
 302 315 302 315 302 374.5 c 128,-1,31
 302 434 302 434 299 481 c 1,32,33
 294 484 294 484 283 484 c 128,-1,34
 272 484 272 484 265 481 c 1,35,36
 254 464 254 464 243 417 c 2,37,-1
 203 242 l 1,26,27
EndSplineSet
EndChar

StartChar: b
Encoding: 98 98 69
Width: 513
GlyphClass: 2
Flags: W
LayerCount: 2
Fore
SplineSet
42 540 m 1,0,-1
 307 549 l 1,1,2
 355 549 355 549 387 542.5 c 128,-1,3
 419 536 419 536 442 513.5 c 128,-1,4
 465 491 465 491 465 451 c 0,5,6
 465 360 465 360 337 308 c 1,7,-1
 337 305 l 1,8,9
 410 305 410 305 451 281 c 128,-1,10
 492 257 492 257 492 195 c 0,11,12
 492 158 492 158 465 123 c 128,-1,13
 438 88 438 88 394 62 c 0,14,15
 314 13 314 13 231 -15 c 1,16,-1
 204 -8 l 2,17,18
 156 5 156 5 113 5 c 128,-1,19
 70 5 70 5 54 1 c 1,20,-1
 48 14 l 1,21,22
 66 34 66 34 72 79 c 1,23,24
 87 220 87 220 87 335 c 128,-1,25
 87 450 87 450 81 507 c 1,26,27
 57 513 57 513 41 521 c 1,28,-1
 42 540 l 1,0,-1
229 161 m 1,29,-1
 230 75 l 1,30,31
 248 64 248 64 275.5 64 c 128,-1,32
 303 64 303 64 318 75 c 1,33,34
 332 112 332 112 332 169.5 c 128,-1,35
 332 227 332 227 315 254.5 c 128,-1,36
 298 282 298 282 246 282 c 1,37,-1
 250 317 l 1,38,39
 271 319 271 319 284 325 c 1,40,41
 306 366 306 366 306 429 c 128,-1,42
 306 492 306 492 268 492 c 0,43,44
 253 492 253 492 240 487 c 1,45,46
 229 339 229 339 229 161 c 1,29,-1
EndSplineSet
EndChar

StartChar: c
Encoding: 99 99 70
Width: 418
GlyphClass: 2
Flags: W
LayerCount: 2
Fore
SplineSet
28 192 m 0,0,1
 28 410 28 410 280 552 c 1,2,3
 313 540 313 540 356.5 540 c 128,-1,4
 400 540 400 540 418 546 c 1,5,-1
 425 533 l 1,6,7
 403 503 403 503 390 447.5 c 128,-1,8
 377 392 377 392 377 348 c 1,9,-1
 358 348 l 1,10,11
 348 376 348 376 343 403 c 1,12,-1
 327 416 l 2,13,14
 269 464 269 464 230 464 c 1,15,16
 187 361 187 361 187 225 c 0,17,18
 187 65 187 65 281 65 c 1,19,20
 301 105 301 105 301 165 c 0,21,22
 301 180 301 180 299 194 c 1,23,-1
 305 198 l 1,24,25
 373 200 373 200 422 208 c 1,26,27
 410 140 410 140 361.5 79 c 128,-1,28
 313 18 313 18 248 -15 c 1,29,30
 145 -15 145 -15 86.5 38.5 c 128,-1,31
 28 92 28 92 28 192 c 0,0,1
EndSplineSet
EndChar

StartChar: d
Encoding: 100 100 71
Width: 550
GlyphClass: 2
Flags: W
LayerCount: 2
Fore
SplineSet
42 540 m 1,0,-1
 293 549 l 1,1,2
 411 549 411 549 466.5 493 c 128,-1,3
 522 437 522 437 522 315.5 c 128,-1,4
 522 194 522 194 440.5 106.5 c 128,-1,5
 359 19 359 19 233 -15 c 1,6,-1
 207 -8 l 2,7,8
 157 5 157 5 114 5 c 128,-1,9
 71 5 71 5 55 1 c 1,10,-1
 49 14 l 1,11,12
 67 34 67 34 73 79 c 0,13,14
 88 195 88 195 88 327.5 c 128,-1,15
 88 460 88 460 81 507 c 1,16,17
 57 513 57 513 41 521 c 1,18,-1
 42 540 l 1,0,-1
235 71 m 1,19,20
 247 64 247 64 280.5 64 c 128,-1,21
 314 64 314 64 333 79 c 1,22,23
 365 152 365 152 365 276 c 0,24,25
 365 386 365 386 356.5 411 c 128,-1,26
 348 436 348 436 338 456 c 0,27,28
 320 493 320 493 276 493 c 0,29,30
 258 493 258 493 245 487 c 1,31,32
 230 329 230 329 230 221 c 128,-1,33
 230 113 230 113 235 71 c 1,19,20
EndSplineSet
EndChar

StartChar: e
Encoding: 101 101 72
Width: 416
GlyphClass: 2
Flags: W
LayerCount: 2
Fore
SplineSet
290.5 457 m 128,-1,1
 268 469 268 469 251 469 c 128,-1,2
 234 469 234 469 222 466 c 1,3,4
 217 456 217 456 217 433 c 0,5,6
 217 373 217 373 243.5 345 c 128,-1,7
 270 317 270 317 331 312 c 1,8,-1
 326 273 l 1,9,10
 260 273 260 273 220.5 243 c 128,-1,11
 181 213 181 213 181 153 c 0,12,13
 181 113 181 113 201.5 90 c 128,-1,14
 222 67 222 67 258 67 c 128,-1,15
 294 67 294 67 311 80 c 1,16,17
 316 97 316 97 316 122 c 128,-1,18
 316 147 316 147 302 162 c 1,19,-1
 304 169 l 1,20,21
 360 187 360 187 388 222 c 1,22,23
 418 216 418 216 418 183 c 0,24,25
 418 120 418 120 363 65 c 128,-1,26
 308 10 308 10 237 -15 c 1,27,28
 112 -15 112 -15 54 48 c 1,29,30
 21 82 21 82 21 133 c 0,31,32
 21 202 21 202 74 242.5 c 128,-1,33
 127 283 127 283 207 291 c 1,34,-1
 207 294 l 1,35,36
 146 294 146 294 104 320 c 128,-1,37
 62 346 62 346 62 397 c 1,38,39
 163 515 163 515 290 556 c 1,40,41
 367 556 367 556 419 525 c 1,42,43
 385 473 385 473 369 400 c 1,44,-1
 360 400 l 1,45,46
 336 424 336 424 324.5 434.5 c 128,-1,0
 313 445 313 445 290.5 457 c 128,-1,1
EndSplineSet
EndChar

StartChar: f
Encoding: 102 102 73
Width: 427
GlyphClass: 2
Flags: W
LayerCount: 2
Fore
SplineSet
45 549 m 1,0,1
 116 540 116 540 237.5 540 c 128,-1,2
 359 540 359 540 436 553 c 1,3,-1
 441 544 l 1,4,5
 407 505 407 505 402 412 c 1,6,-1
 384 412 l 1,7,8
 376 434 376 434 371 469 c 1,9,10
 333 485 333 485 298.5 485 c 128,-1,11
 264 485 264 485 248 481 c 1,12,13
 238 403 238 403 233 322 c 1,14,15
 253 318 253 318 290.5 318 c 128,-1,16
 328 318 328 318 372 332 c 1,17,-1
 377 327 l 1,18,19
 367 303 367 303 362 248 c 1,20,21
 303 257 303 257 273.5 257 c 128,-1,22
 244 257 244 257 230 254 c 1,23,24
 228 217 228 217 228 132.5 c 128,-1,25
 228 48 228 48 240 -3 c 1,26,27
 126 -3 126 -3 64 -15 c 1,28,-1
 59 -11 l 1,29,30
 71 38 71 38 79.5 156 c 128,-1,31
 88 274 88 274 88 368 c 128,-1,32
 88 462 88 462 84 514 c 1,33,34
 62 520 62 520 44 530 c 1,35,-1
 45 549 l 1,0,1
EndSplineSet
EndChar

StartChar: g
Encoding: 103 103 74
Width: 501
GlyphClass: 2
Flags: W
LayerCount: 2
Fore
SplineSet
28 192 m 0,0,1
 28 407 28 407 279 552 c 1,2,3
 310 540 310 540 371 540 c 128,-1,4
 432 540 432 540 451 546 c 1,5,-1
 458 533 l 1,6,7
 433 502 433 502 417.5 448 c 128,-1,8
 402 394 402 394 400 348 c 1,9,-1
 381 348 l 1,10,11
 371 378 371 378 366 403 c 1,12,-1
 349 417 l 2,13,14
 291 464 291 464 229 464 c 1,15,16
 209 416 209 416 197 348.5 c 128,-1,17
 185 281 185 281 185 220.5 c 128,-1,18
 185 160 185 160 207 113 c 128,-1,19
 229 66 229 66 280 66 c 1,20,21
 288 69 288 69 306 85 c 1,22,-1
 308 150 l 2,23,24
 308 178 308 178 302 205 c 1,25,26
 272 213 272 213 251 222 c 1,27,-1
 255 243 l 1,28,29
 279 240 279 240 303 240 c 0,30,31
 378 240 378 240 442 268 c 1,32,-1
 452 259 l 1,33,34
 427 199 427 199 424 -62 c 1,35,36
 381 -106 381 -106 303 -153 c 128,-1,37
 225 -200 225 -200 170 -200 c 0,38,39
 146 -200 146 -200 127 -192.5 c 128,-1,40
 108 -185 108 -185 108 -168 c 1,41,42
 159 -141 159 -141 186 -97 c 1,43,-1
 195 -97 l 1,44,45
 221 -121 221 -121 247.5 -121 c 128,-1,46
 274 -121 274 -121 282 -116 c 1,47,48
 303 -76 303 -76 305 26 c 1,49,50
 286 11 286 11 248 -15 c 1,51,52
 145 -15 145 -15 86.5 39 c 128,-1,53
 28 93 28 93 28 192 c 0,0,1
EndSplineSet
EndChar

StartChar: h
Encoding: 104 104 75
Width: 610
GlyphClass: 2
Flags: W
LayerCount: 2
Fore
SplineSet
232 256 m 1,0,1
 227 217 227 217 227 135.5 c 128,-1,2
 227 54 227 54 240 -2 c 1,3,4
 121 -2 121 -2 62 -15 c 1,5,-1
 57 -11 l 1,6,7
 69 40 69 40 78.5 157.5 c 128,-1,8
 88 275 88 275 88 365 c 128,-1,9
 88 455 88 455 84 507 c 1,10,11
 60 513 60 513 44 521 c 1,12,-1
 45 540 l 1,13,14
 179 540 179 540 255 551 c 1,15,-1
 260 547 l 1,16,17
 244 478 244 478 235 331 c 1,18,19
 272 322 272 322 310.5 322 c 128,-1,20
 349 322 349 322 382 330 c 1,21,22
 384 372 384 372 384 385 c 0,23,24
 384 497 384 497 374 538 c 1,25,26
 494 538 494 538 552 551 c 1,27,-1
 557 547 l 1,28,29
 544 486 544 486 535 368 c 128,-1,30
 526 250 526 250 526 143.5 c 128,-1,31
 526 37 526 37 535 -2 c 1,32,33
 422 -2 422 -2 359 -15 c 1,34,-1
 354 -11 l 1,35,36
 374 81 374 81 381 256 c 1,37,38
 343 262 343 262 306.5 262 c 128,-1,39
 270 262 270 262 232 256 c 1,0,1
EndSplineSet
EndChar

StartChar: i
Encoding: 105 105 76
Width: 313
GlyphClass: 2
Flags: W
LayerCount: 2
Fore
SplineSet
237.5 374.5 m 128,-1,1
 227 254 227 254 227 154 c 128,-1,2
 227 54 227 54 240 -2 c 1,3,4
 121 -2 121 -2 62 -15 c 1,5,-1
 57 -11 l 1,6,7
 69 40 69 40 78.5 157.5 c 128,-1,8
 88 275 88 275 88 365 c 128,-1,9
 88 455 88 455 84 507 c 1,10,11
 60 513 60 513 44 521 c 1,12,-1
 45 540 l 1,13,14
 177 540 177 540 255 551 c 1,15,-1
 260 547 l 1,16,0
 248 495 248 495 237.5 374.5 c 128,-1,1
EndSplineSet
EndChar

StartChar: j
Encoding: 106 106 77
Width: 321
GlyphClass: 2
Flags: W
LayerCount: 2
Fore
SplineSet
245.5 364.5 m 128,-1,1
 236 246 236 246 236 149 c 128,-1,2
 236 52 236 52 253 -15 c 1,3,4
 174 -99 174 -99 -22 -201 c 1,5,-1
 -34 -183 l 1,6,7
 27 -125 27 -125 52 -61 c 128,-1,8
 77 3 77 3 82 108 c 0,9,10
 92 313 92 313 92 384 c 128,-1,11
 92 455 92 455 88 507 c 1,12,13
 64 513 64 513 48 521 c 1,14,-1
 49 540 l 1,15,16
 186 540 186 540 264 551 c 1,17,-1
 269 547 l 1,18,0
 255 483 255 483 245.5 364.5 c 128,-1,1
EndSplineSet
EndChar

StartChar: k
Encoding: 107 107 78
Width: 534
GlyphClass: 2
Flags: W
LayerCount: 2
Fore
SplineSet
346 508 m 0,0,1
 346 516 346 516 344 536 c 1,2,-1
 350 540 l 1,3,4
 464 540 464 540 528 548 c 1,5,6
 488 432 488 432 365 323 c 1,7,8
 410 223 410 223 459 132.5 c 128,-1,9
 508 42 508 42 541 -2 c 1,10,11
 433 -4 433 -4 359 -15 c 1,12,-1
 353 -13 l 1,13,14
 328 117 328 117 258 248 c 1,15,-1
 228 226 l 1,16,-1
 228 152 l 2,17,18
 228 49 228 49 240 -2 c 1,19,20
 102 -7 102 -7 64 -15 c 1,21,-1
 59 -11 l 1,22,23
 71 39 71 39 79.5 155.5 c 128,-1,24
 88 272 88 272 88 363.5 c 128,-1,25
 88 455 88 455 84 507 c 1,26,27
 60 513 60 513 44 521 c 1,28,-1
 45 540 l 1,29,30
 179 540 179 540 255 551 c 1,31,-1
 260 547 l 1,32,33
 240 465 240 465 230 281 c 1,34,-1
 283 342 l 2,35,36
 346 414 346 414 346 508 c 0,0,1
EndSplineSet
EndChar

StartChar: l
Encoding: 108 108 79
Width: 395
GlyphClass: 2
Flags: W
LayerCount: 2
Fore
SplineSet
237.5 378 m 128,-1,1
 227 263 227 263 227 184.5 c 128,-1,2
 227 106 227 106 233 61 c 1,3,4
 253 57 253 57 298.5 57 c 128,-1,5
 344 57 344 57 389 74 c 1,6,-1
 394 68 l 1,7,8
 380 25 380 25 378 -13 c 1,9,10
 309 -2 309 -2 215 -2 c 128,-1,11
 121 -2 121 -2 64 -15 c 1,12,-1
 59 -11 l 1,13,14
 70 40 70 40 79 157.5 c 128,-1,15
 88 275 88 275 88 365 c 128,-1,16
 88 455 88 455 84 507 c 1,17,18
 60 513 60 513 44 521 c 1,19,-1
 45 540 l 1,20,21
 177 540 177 540 255 551 c 1,22,-1
 260 547 l 1,23,0
 248 493 248 493 237.5 378 c 128,-1,1
EndSplineSet
EndChar

StartChar: m
Encoding: 109 109 80
Width: 677
GlyphClass: 2
Flags: W
LayerCount: 2
Fore
SplineSet
298 509 m 0,0,1
 298 455 298 455 326 320 c 2,2,-1
 343 239 l 1,3,-1
 349 241 l 1,4,5
 348 250 348 250 348 266 c 128,-1,6
 348 282 348 282 355 307 c 2,7,-1
 409 494 l 2,8,9
 414 512 414 512 414 522 c 128,-1,10
 414 532 414 532 411 537 c 1,11,-1
 416 545 l 1,12,13
 443 540 443 540 513 540 c 128,-1,14
 583 540 583 540 621 552 c 1,15,-1
 627 548 l 1,16,17
 609 452 609 452 609 261 c 128,-1,18
 609 70 609 70 626 -2 c 1,19,20
 510 -2 510 -2 455 -15 c 1,21,-1
 449 -11 l 1,22,23
 468 89 468 89 468 268 c 0,24,25
 468 344 468 344 459 417 c 1,26,-1
 456 417 l 1,27,28
 395 230 395 230 387 162 c 0,29,30
 384 136 384 136 384 102 c 1,31,32
 279 84 279 84 243 61 c 1,33,-1
 232 67 l 1,34,35
 234 85 234 85 234 95 c 0,36,37
 234 186 234 186 176 411 c 1,38,-1
 172 410 l 1,39,40
 136 196 136 196 134 -2 c 1,41,42
 60 -2 60 -2 12 -14 c 1,43,-1
 7 -10 l 1,44,45
 34 75 34 75 71.5 248.5 c 128,-1,46
 109 422 109 422 116 507 c 1,47,48
 92 513 92 513 76 521 c 1,49,-1
 77 540 l 1,50,51
 221 540 221 540 298 553 c 1,52,-1
 303 547 l 1,53,54
 298 527 298 527 298 509 c 0,0,1
EndSplineSet
EndChar

StartChar: n
Encoding: 110 110 81
Width: 610
GlyphClass: 2
Flags: W
LayerCount: 2
Fore
SplineSet
459 155 m 1,0,1
 459 447 459 447 441 540 c 1,2,3
 504 540 504 540 552 552 c 1,4,-1
 557 548 l 1,5,6
 544 495 544 495 534 383.5 c 128,-1,7
 524 272 524 272 524 171.5 c 128,-1,8
 524 71 524 71 537 -3 c 1,9,10
 418 -3 418 -3 354 -13 c 1,11,-1
 348 -11 l 1,12,13
 329 54 329 54 270 177 c 128,-1,14
 211 300 211 300 194 336 c 128,-1,15
 177 372 177 372 161 394 c 1,16,-1
 158 393 l 1,17,18
 158 106 158 106 179 -3 c 1,19,20
 118 -3 118 -3 68 -15 c 1,21,-1
 63 -11 l 1,22,23
 75 38 75 38 83 154 c 128,-1,24
 91 270 91 270 91 359.5 c 128,-1,25
 91 449 91 449 83 507 c 1,26,27
 61 512 61 512 44 521 c 1,28,-1
 45 540 l 1,29,30
 202 540 202 540 283 553 c 1,31,32
 306 419 306 419 429 204 c 2,33,-1
 457 155 l 1,34,-1
 459 155 l 1,0,1
EndSplineSet
EndChar

StartChar: o
Encoding: 111 111 82
Width: 538
GlyphClass: 2
Flags: W
LayerCount: 2
Fore
SplineSet
28 197 m 0,0,1
 28 317 28 317 100.5 410.5 c 128,-1,2
 173 504 173 504 295 555 c 1,3,4
 397 555 397 555 453.5 499.5 c 128,-1,5
 510 444 510 444 510 335 c 128,-1,6
 510 226 510 226 435 127.5 c 128,-1,7
 360 29 360 29 244 -15 c 1,8,9
 149 -15 149 -15 88.5 44 c 128,-1,10
 28 103 28 103 28 197 c 0,0,1
309 72 m 1,11,12
 351 189 351 189 351 332.5 c 128,-1,13
 351 476 351 476 274 476 c 0,14,15
 247 476 247 476 229 468 c 1,16,17
 187 351 187 351 187 207.5 c 128,-1,18
 187 64 187 64 264 64 c 0,19,20
 291 64 291 64 309 72 c 1,11,12
EndSplineSet
EndChar

StartChar: p
Encoding: 112 112 83
Width: 493
GlyphClass: 2
Flags: W
LayerCount: 2
Fore
SplineSet
45 540 m 1,0,-1
 303 549 l 1,1,2
 451 549 451 549 485 490 c 0,3,4
 500 465 500 465 500 426 c 0,5,6
 500 366 500 366 462 324 c 0,7,8
 392 244 392 244 249 244 c 1,9,-1
 252 282 l 1,10,11
 339 282 339 282 339 397 c 0,12,13
 339 493 339 493 283 493 c 0,14,15
 265 493 265 493 245 488 c 1,16,17
 229 380 229 380 229 152 c 0,18,19
 229 53 229 53 242 -3 c 1,20,21
 117 -5 117 -5 66 -15 c 1,22,-1
 61 -11 l 1,23,24
 73 39 73 39 81.5 155.5 c 128,-1,25
 90 272 90 272 90 361 c 128,-1,26
 90 450 90 450 84 507 c 1,27,28
 60 513 60 513 44 521 c 1,29,-1
 45 540 l 1,0,-1
EndSplineSet
EndChar

StartChar: q
Encoding: 113 113 84
Width: 538
GlyphClass: 2
Flags: W
LayerCount: 2
Fore
SplineSet
28 197 m 0,0,1
 28 317 28 317 100.5 410.5 c 128,-1,2
 173 504 173 504 295 555 c 1,3,4
 397 555 397 555 453.5 499.5 c 128,-1,5
 510 444 510 444 510 338.5 c 128,-1,6
 510 233 510 233 444 139.5 c 128,-1,7
 378 46 378 46 273 -2 c 1,8,9
 298 -11 298 -11 374 -60.5 c 128,-1,10
 450 -110 450 -110 484 -110 c 0,11,12
 501 -110 501 -110 509 -92 c 128,-1,13
 517 -74 517 -74 517 -51 c 1,14,-1
 520 -45 l 1,15,16
 582 -41 582 -41 628 -15 c 1,17,18
 639 -24 639 -24 639 -34 c 0,19,20
 639 -68 639 -68 581 -104 c 128,-1,21
 523 -140 523 -140 458.5 -161 c 128,-1,22
 394 -182 394 -182 351 -188 c 1,23,24
 316 -156 316 -156 291.5 -136 c 128,-1,25
 267 -116 267 -116 228 -96 c 128,-1,26
 189 -76 189 -76 146.5 -76 c 128,-1,27
 104 -76 104 -76 71 -96 c 1,28,-1
 59 -82 l 1,29,30
 79 -60 79 -60 118.5 -38 c 128,-1,31
 158 -16 158 -16 191 -9 c 1,32,33
 118 6 118 6 73 61.5 c 128,-1,34
 28 117 28 117 28 197 c 0,0,1
309 72 m 1,35,36
 351 189 351 189 351 332.5 c 128,-1,37
 351 476 351 476 274 476 c 0,38,39
 247 476 247 476 229 468 c 1,40,41
 187 351 187 351 187 207.5 c 128,-1,42
 187 64 187 64 264 64 c 0,43,44
 291 64 291 64 309 72 c 1,35,36
EndSplineSet
EndChar

StartChar: r
Encoding: 114 114 85
Width: 551
GlyphClass: 2
Flags: W
LayerCount: 2
Fore
SplineSet
45 540 m 1,0,-1
 303 549 l 1,1,2
 397 549 397 549 447.5 524 c 128,-1,3
 498 499 498 499 498 426 c 0,4,5
 498 378 498 378 469 339 c 128,-1,6
 440 300 440 300 392 276 c 1,7,8
 417 226 417 226 468.5 135.5 c 128,-1,9
 520 45 520 45 555 -3 c 1,10,11
 456 -3 456 -3 373 -15 c 1,12,-1
 368 -13 l 1,13,14
 358 31 358 31 330.5 105.5 c 128,-1,15
 303 180 303 180 267 248 c 1,16,-1
 244 248 l 1,17,-1
 247 286 l 1,18,19
 289 286 289 286 313.5 313.5 c 128,-1,20
 338 341 338 341 338 397 c 0,21,22
 338 493 338 493 281 493 c 0,23,24
 263 493 263 493 243 488 c 1,25,26
 228 378 228 378 228 152 c 0,27,28
 228 48 228 48 240 -3 c 1,29,30
 115 -5 115 -5 64 -15 c 1,31,-1
 59 -11 l 1,32,33
 71 39 71 39 79.5 155.5 c 128,-1,34
 88 272 88 272 88 370 c 128,-1,35
 88 468 88 468 84 507 c 1,36,37
 60 513 60 513 44 521 c 1,38,-1
 45 540 l 1,0,-1
EndSplineSet
EndChar

StartChar: s
Encoding: 115 115 86
Width: 407
GlyphClass: 2
Flags: W
LayerCount: 2
Fore
SplineSet
164 444 m 0,0,1
 164 417 164 417 197.5 393 c 128,-1,2
 231 369 231 369 271 353 c 128,-1,3
 311 337 311 337 344.5 312 c 128,-1,4
 378 287 378 287 378 260 c 0,5,6
 378 198 378 198 314.5 115 c 128,-1,7
 251 32 251 32 185 -15 c 1,8,9
 76 -15 76 -15 24 71 c 2,10,-1
 10 94 l 1,11,12
 79 157 79 157 105 221 c 1,13,-1
 128 213 l 1,14,15
 122 192 122 192 122 168 c 128,-1,16
 122 144 122 144 149.5 112.5 c 128,-1,17
 177 81 177 81 210 68 c 1,18,19
 227 85 227 85 241.5 114 c 128,-1,20
 256 143 256 143 256 167.5 c 128,-1,21
 256 192 256 192 223.5 216.5 c 128,-1,22
 191 241 191 241 152 257.5 c 128,-1,23
 113 274 113 274 80.5 299 c 128,-1,24
 48 324 48 324 48 352 c 0,25,26
 48 403 48 403 103 466.5 c 128,-1,27
 158 530 158 530 211 552 c 1,28,29
 260 540 260 540 315.5 540 c 128,-1,30
 371 540 371 540 393 547 c 1,31,-1
 399 536 l 1,32,33
 376 506 376 506 363.5 456 c 128,-1,34
 351 406 351 406 351 362 c 1,35,-1
 331 362 l 1,36,37
 326 377 326 377 317 415 c 1,38,-1
 295 430 l 2,39,40
 272 446 272 446 236 458 c 128,-1,41
 200 470 200 470 171 470 c 1,42,43
 164 460 164 460 164 444 c 0,0,1
EndSplineSet
EndChar

StartChar: t
Encoding: 116 116 87
Width: 465
GlyphClass: 2
Flags: W
LayerCount: 2
Fore
SplineSet
268 546.5 m 128,-1,1
 348 539 348 539 382.5 539 c 128,-1,2
 417 539 417 539 428 545 c 1,3,4
 432 549 432 549 445 563 c 128,-1,5
 458 577 458 577 465 583 c 1,6,-1
 479 576 l 1,7,8
 456 529 456 529 444 450 c 1,9,-1
 424 456 l 2,10,11
 394 465 394 465 336 469 c 1,12,13
 315 315 315 315 315 186.5 c 128,-1,14
 315 58 315 58 327 -2 c 1,15,16
 189 -7 189 -7 151 -15 c 1,17,-1
 146 -11 l 1,18,19
 158 39 158 39 166.5 156 c 128,-1,20
 175 273 175 273 175 349.5 c 128,-1,21
 175 426 175 426 172 479 c 1,22,23
 115 479 115 479 88 457 c 1,24,25
 85 450 85 450 85 431 c 128,-1,26
 85 412 85 412 96 394 c 1,27,-1
 96 387 l 1,28,29
 63 363 63 363 36 306 c 1,30,31
 20 306 20 306 10.5 318.5 c 128,-1,32
 1 331 1 331 1 348 c 0,33,34
 1 421 1 421 43.5 475 c 128,-1,35
 86 529 86 529 159 555 c 1,36,0
 188 554 188 554 268 546.5 c 128,-1,1
EndSplineSet
EndChar

StartChar: u
Encoding: 117 117 88
Width: 579
GlyphClass: 2
Flags: W
LayerCount: 2
Fore
SplineSet
69 168 m 1,0,-1
 82 378 l 1,1,2
 82 455 82 455 74 507 c 1,3,4
 50 513 50 513 34 521 c 1,5,-1
 35 540 l 1,6,7
 167 540 167 540 245 551 c 1,8,-1
 250 547 l 1,9,10
 220 414 220 414 220 227 c 0,11,12
 220 113 220 113 240 88 c 0,13,14
 251 75 251 75 267 72 c 1,15,16
 322 111 322 111 350 172 c 1,17,18
 354 264 354 264 354 381.5 c 128,-1,19
 354 499 354 499 345 538 c 1,20,21
 462 538 462 538 521 551 c 1,22,-1
 526 547 l 1,23,24
 513 487 513 487 505 370.5 c 128,-1,25
 497 254 497 254 497 145.5 c 128,-1,26
 497 37 497 37 506 -2 c 1,27,28
 401 -2 401 -2 341 -15 c 1,29,-1
 335 -11 l 1,30,31
 352 56 352 56 357 102 c 1,32,-1
 353 103 l 1,33,34
 308 19 308 19 238 -15 c 1,35,36
 150 -13 150 -13 109.5 32.5 c 128,-1,37
 69 78 69 78 69 168 c 1,0,-1
EndSplineSet
EndChar

StartChar: v
Encoding: 118 118 89
Width: 494
GlyphClass: 2
Flags: W
LayerCount: 2
Fore
SplineSet
333 426 m 0,0,1
 333 495 333 495 307 520 c 1,2,-1
 307 527 l 1,3,4
 392 545 392 545 440 573 c 1,5,6
 493 546 493 546 493 460 c 0,7,8
 493 338 493 338 430 222 c 128,-1,9
 367 106 367 106 262 -13 c 1,10,-1
 254 -15 l 1,11,-1
 226 -2 l 2,12,13
 127 45 127 45 83 45 c 0,14,15
 61 45 61 45 47 39 c 1,16,-1
 41 52 l 1,17,18
 64 73 64 73 69 118 c 1,19,20
 80 261 80 261 80 358 c 128,-1,21
 80 455 80 455 76 507 c 1,22,23
 52 513 52 513 36 521 c 1,24,-1
 37 540 l 1,25,26
 169 540 169 540 247 551 c 1,27,-1
 252 547 l 1,28,29
 223 419 223 419 219 173 c 0,30,31
 219 135 219 135 220 116 c 1,32,33
 235 90 235 90 273 76 c 1,34,35
 333 246 333 246 333 426 c 0,0,1
EndSplineSet
EndChar

StartChar: w
Encoding: 119 119 90
Width: 726
GlyphClass: 2
Flags: W
LayerCount: 2
Fore
SplineSet
332 426 m 0,0,1
 332 515 332 515 288 530 c 1,2,-1
 291 545 l 1,3,4
 354 540 354 540 446 540 c 0,5,6
 653 540 653 540 729 583 c 1,7,-1
 740 569 l 1,8,9
 723 550 723 550 696 532 c 1,10,11
 709 507 709 507 709 460 c 0,12,13
 709 216 709 216 476 -13 c 1,14,-1
 469 -15 l 1,15,-1
 440 -2 l 2,16,17
 360 34 360 34 331 66 c 1,18,19
 297 16 297 16 262 -13 c 1,20,-1
 254 -15 l 1,21,-1
 226 -2 l 2,22,23
 127 45 127 45 83 45 c 0,24,25
 61 45 61 45 47 39 c 1,26,-1
 41 52 l 1,27,28
 64 73 64 73 69 118 c 1,29,30
 80 261 80 261 80 358 c 128,-1,31
 80 455 80 455 76 507 c 1,32,33
 52 513 52 513 36 521 c 1,34,-1
 37 540 l 1,35,36
 169 540 169 540 247 551 c 1,37,-1
 252 547 l 1,38,-1
 252 546 l 1,39,40
 223 420 223 420 219 173 c 0,41,42
 219 135 219 135 220 116 c 1,43,44
 241 86 241 86 278 75 c 1,45,46
 332 237 332 237 332 426 c 0,0,1
550 418 m 0,47,48
 550 464 550 464 536.5 485.5 c 128,-1,49
 523 507 523 507 490 507 c 0,50,51
 479 507 479 507 470 506 c 1,52,53
 477 493 477 493 477 452 c 0,54,55
 477 326 477 326 404 173 c 1,56,57
 413 145 413 145 442 112 c 128,-1,58
 471 79 471 79 495 75 c 1,59,60
 550 240 550 240 550 418 c 0,47,48
EndSplineSet
EndChar

StartChar: x
Encoding: 120 120 91
Width: 466
GlyphClass: 2
Flags: W
LayerCount: 2
Fore
SplineSet
324 508 m 0,0,1
 324 524 324 524 320 536 c 1,2,-1
 323 540 l 1,3,4
 415 540 415 540 467 553 c 1,5,6
 463 483 463 483 404 407 c 1,7,8
 353 343 353 343 300 288 c 1,9,10
 325 225 325 225 376.5 134 c 128,-1,11
 428 43 428 43 462 -2 c 1,12,13
 352 -2 352 -2 263 -15 c 1,14,-1
 257 -13 l 1,15,16
 215 134 215 134 188 209 c 1,17,18
 145 110 145 110 145 31 c 0,19,20
 145 15 145 15 149 3 c 1,21,-1
 146 -2 l 1,22,23
 50 -2 50 -2 2 -14 c 1,24,25
 8 103 8 103 170 261 c 1,26,27
 135 348 135 348 110.5 391.5 c 128,-1,28
 86 435 86 435 40 507 c 1,29,30
 18 512 18 512 1 521 c 1,31,-1
 2 540 l 1,32,33
 139 540 139 540 217 551 c 1,34,-1
 222 547 l 1,35,36
 274 358 274 358 280 341 c 1,37,38
 324 433 324 433 324 508 c 0,0,1
EndSplineSet
EndChar

StartChar: y
Encoding: 121 121 92
Width: 464
GlyphClass: 2
Flags: W
LayerCount: 2
Fore
SplineSet
306 404.5 m 128,-1,1
 322 472 322 472 322 499 c 128,-1,2
 322 526 322 526 318 535 c 1,3,-1
 322 540 l 1,4,5
 417 540 417 540 465 552 c 1,6,7
 459 452 459 452 306 269 c 1,8,9
 302 209 302 209 302 131.5 c 128,-1,10
 302 54 302 54 315 -2 c 1,11,12
 177 -7 177 -7 140 -15 c 1,13,-1
 135 -11 l 1,14,15
 157 80 157 80 162 243 c 1,16,17
 155 263 155 263 143.5 288.5 c 128,-1,18
 132 314 132 314 118 346 c 0,19,20
 65 466 65 466 32 507 c 1,21,22
 10 512 10 512 -7 521 c 1,23,-1
 -6 540 l 1,24,25
 131 540 131 540 209 551 c 1,26,-1
 214 547 l 1,27,28
 222 449 222 449 272 303 c 1,29,0
 290 337 290 337 306 404.5 c 128,-1,1
EndSplineSet
EndChar

StartChar: z
Encoding: 122 122 93
Width: 432
GlyphClass: 2
Flags: W
LayerCount: 2
Fore
SplineSet
240 567 m 1,0,1
 289 540 289 540 342.5 540 c 128,-1,2
 396 540 396 540 426 567 c 1,3,-1
 440 556 l 1,4,5
 419 530 419 530 369 454.5 c 128,-1,6
 319 379 319 379 281 308 c 2,7,-1
 186 132 l 1,8,-1
 189 129 l 1,9,10
 200 134 200 134 209 137 c 1,11,12
 267 98 267 98 312 98 c 0,13,14
 336 98 336 98 336 144 c 0,15,16
 336 152 336 152 334 166 c 1,17,-1
 336 172 l 1,18,19
 379 183 379 183 429 222 c 1,20,21
 442 216 442 216 442 199 c 0,22,23
 442 147 442 147 354 58 c 128,-1,24
 266 -31 266 -31 211 -44 c 1,25,26
 125 7 125 7 61 7 c 0,27,28
 20 7 20 7 1 -19 c 1,29,-1
 -14 -8 l 1,30,31
 36 51 36 51 116 182 c 2,32,-1
 250 402 l 1,33,-1
 248 404 l 1,34,35
 239 400 239 400 228 398 c 1,36,37
 190 425 190 425 157 425 c 0,38,39
 133 425 133 425 133 379 c 0,40,41
 133 371 133 371 135 357 c 1,42,-1
 132 351 l 1,43,44
 90 340 90 340 40 301 c 1,45,46
 26 308 26 308 26 324 c 0,47,48
 26 371 26 371 106.5 456.5 c 128,-1,49
 187 542 187 542 240 567 c 1,0,1
EndSplineSet
EndChar

StartChar: braceleft
Encoding: 123 123 94
Width: 300
GlyphClass: 2
Flags: W
LayerCount: 2
Fore
SplineSet
192 596 m 1,0,1
 191 585 191 585 191 556.5 c 128,-1,2
 191 528 191 528 202.5 453.5 c 128,-1,3
 214 379 214 379 214 356.5 c 128,-1,4
 214 334 214 334 214 329 c 1,5,6
 197 297 197 297 115 250 c 1,7,-1
 115 246 l 1,8,9
 190 200 190 200 202 167 c 1,10,11
 199 128 199 128 172 38.5 c 128,-1,12
 145 -51 145 -51 142 -99 c 1,13,14
 149 -127 149 -127 170.5 -154.5 c 128,-1,15
 192 -182 192 -182 217 -196 c 1,16,-1
 208 -215 l 1,17,18
 159 -200 159 -200 114 -159.5 c 128,-1,19
 69 -119 69 -119 69 -78 c 0,20,21
 69 -44 69 -44 92 54 c 128,-1,22
 115 152 115 152 115 189 c 0,23,24
 115 208 115 208 96 220 c 128,-1,25
 77 232 77 232 50 236 c 1,26,-1
 47 255 l 1,27,28
 121 271 121 271 123 309 c 0,29,30
 124 325 124 325 124 354.5 c 128,-1,31
 124 384 124 384 118.5 442 c 128,-1,32
 113 500 113 500 113 528 c 128,-1,33
 113 556 113 556 114 569 c 0,34,35
 117 612 117 612 169.5 654 c 128,-1,36
 222 696 222 696 273 711 c 1,37,-1
 280 693 l 1,38,39
 253 680 253 680 228 652 c 128,-1,40
 203 624 203 624 192 596 c 1,0,1
EndSplineSet
EndChar

StartChar: bar
Encoding: 124 124 95
Width: 261
GlyphClass: 2
Flags: W
LayerCount: 2
Fore
SplineSet
166 -195 m 1,0,1
 142 -209 142 -209 111 -218 c 1,2,-1
 101 -214 l 1,3,4
 101 534 101 534 92 719 c 1,5,6
 133 735 133 735 162 755 c 1,7,-1
 169 754 l 1,8,9
 166 466 166 466 166 -195 c 1,0,1
EndSplineSet
EndChar

StartChar: braceright
Encoding: 125 125 96
Width: 294
GlyphClass: 2
Flags: W
LayerCount: 2
Fore
SplineSet
108 -100 m 1,0,1
 109 -89 109 -89 109 -60.5 c 128,-1,2
 109 -32 109 -32 97.5 42.5 c 128,-1,3
 86 117 86 117 86 139.5 c 128,-1,4
 86 162 86 162 86 167 c 1,5,6
 103 199 103 199 185 246 c 1,7,-1
 185 250 l 1,8,9
 110 296 110 296 98 329 c 1,10,11
 101 368 101 368 128 457.5 c 128,-1,12
 155 547 155 547 158 595 c 1,13,14
 151 623 151 623 129.5 650.5 c 128,-1,15
 108 678 108 678 83 692 c 1,16,-1
 92 711 l 1,17,18
 141 696 141 696 186 655.5 c 128,-1,19
 231 615 231 615 231 574 c 0,20,21
 231 535 231 535 208 437.5 c 128,-1,22
 185 340 185 340 185 307 c 0,23,24
 185 288 185 288 204 276 c 128,-1,25
 223 264 223 264 250 260 c 1,26,-1
 253 241 l 1,27,28
 179 225 179 225 177 187 c 0,29,30
 176 171 176 171 176 141.5 c 128,-1,31
 176 112 176 112 181.5 54 c 128,-1,32
 187 -4 187 -4 187 -32 c 128,-1,33
 187 -60 187 -60 186 -73 c 0,34,35
 183 -116 183 -116 130.5 -158 c 128,-1,36
 78 -200 78 -200 27 -215 c 1,37,-1
 20 -197 l 1,38,39
 47 -184 47 -184 72 -156 c 128,-1,40
 97 -128 97 -128 108 -100 c 1,0,1
EndSplineSet
EndChar

StartChar: asciitilde
Encoding: 126 126 97
Width: 724
GlyphClass: 2
Flags: W
LayerCount: 2
Fore
SplineSet
508 277 m 0,0,1
 593 277 593 277 680 362 c 1,2,-1
 703 343 l 1,3,4
 669 289 669 289 603 238 c 128,-1,5
 537 187 537 187 477 170 c 1,6,7
 433 170 433 170 334 214 c 128,-1,8
 235 258 235 258 190 258 c 0,9,10
 105 258 105 258 44 179 c 1,11,-1
 21 198 l 1,12,13
 59 257 59 257 129.5 310.5 c 128,-1,14
 200 364 200 364 261 371 c 1,15,16
 400 277 400 277 508 277 c 0,0,1
EndSplineSet
EndChar

StartChar: exclamdown
Encoding: 161 161 99
Width: 259
GlyphClass: 2
Flags: W
LayerCount: 2
Fore
SplineSet
238 419 m 1,0,1
 223 395 223 395 192.5 361 c 128,-1,2
 162 327 162 327 139 311 c 1,3,4
 118 326 118 326 95 359 c 128,-1,5
 72 392 72 392 60 419 c 1,6,7
 71 440 71 440 101.5 466 c 128,-1,8
 132 492 132 492 157 505 c 1,9,10
 200 478 200 478 238 419 c 1,0,1
34 -217 m 0,11,12
 30 -217 30 -217 26 -217 c 1,13,14
 1 -193 1 -193 -21 -148 c 1,15,16
 77 67 77 67 117 247 c 1,17,-1
 163 252 l 1,18,-1
 147 -187 l 1,19,20
 80 -217 80 -217 34 -217 c 0,11,12
EndSplineSet
EndChar

StartChar: cent
Encoding: 162 162 100
Width: 355
GlyphClass: 2
Flags: W
LayerCount: 2
Fore
SplineSet
67.5 47.5 m 128,-1,1
 20 94 20 94 20 183 c 128,-1,2
 20 272 20 272 78.5 355 c 128,-1,3
 137 438 137 438 232 497 c 1,4,-1
 237 588 l 1,5,6
 255 590 255 590 267 594 c 1,7,-1
 271 591 l 1,8,9
 267 561 267 561 262 500 c 1,10,11
 299 490 299 490 323.5 490 c 128,-1,12
 348 490 348 490 359 494 c 1,13,-1
 365 479 l 1,14,15
 320 429 320 429 313 311 c 1,16,-1
 295 311 l 1,17,18
 290 330 290 330 284 361 c 1,19,-1
 270 382 l 2,20,21
 264 390 264 390 253 399 c 1,22,-1
 234 105 l 1,23,24
 275 146 275 146 308 229 c 1,25,-1
 332 224 l 1,26,27
 302 97 302 97 227 23 c 1,28,-1
 222 -91 l 1,29,-1
 217 -92 l 1,30,31
 198 -86 198 -86 188 -77 c 1,32,-1
 198 0 l 1,33,-1
 197 -1 l 1,34,0
 115 1 115 1 67.5 47.5 c 128,-1,1
202 424 m 1,35,36
 175 326 175 326 175 232 c 128,-1,37
 175 138 175 138 206 112 c 1,38,-1
 227 416 l 1,39,40
 216 422 216 422 202 424 c 1,35,36
EndSplineSet
EndChar

StartChar: sterling
Encoding: 163 163 101
Width: 402
GlyphClass: 2
Flags: W
LayerCount: 2
Fore
SplineSet
66 135 m 1,0,-1
 60 240 l 1,1,-1
 15 238 l 1,2,-1
 7 243 l 1,3,-1
 23 289 l 1,4,-1
 65 289 l 1,5,6
 82 359 82 359 144.5 427 c 128,-1,7
 207 495 207 495 280 538 c 1,8,9
 324 523 324 523 365 523 c 128,-1,10
 406 523 406 523 417 527 c 1,11,-1
 423 512 l 1,12,13
 390 483 390 483 371.5 436.5 c 128,-1,14
 353 390 353 390 351 340 c 1,15,-1
 333 340 l 1,16,17
 328 358 328 358 322 390 c 1,18,-1
 308 411 l 2,19,20
 297 427 297 427 275.5 441.5 c 128,-1,21
 254 456 254 456 236 457 c 1,22,23
 224 429 224 429 214.5 379.5 c 128,-1,24
 205 330 205 330 205 299 c 2,25,-1
 205 293 l 1,26,27
 248 295 248 295 330 303 c 1,28,-1
 338 298 l 1,29,-1
 321 257 l 1,30,-1
 202 249 l 1,31,32
 192 175 192 175 141 126 c 1,33,34
 182 118 182 118 232 118 c 128,-1,35
 282 118 282 118 305 128 c 1,36,37
 332 177 332 177 345 193 c 1,38,-1
 361 185 l 1,39,40
 338 128 338 128 338 70.5 c 128,-1,41
 338 13 338 13 352 -7 c 1,42,-1
 343 -21 l 1,43,44
 234 8 234 8 118 8 c 0,45,46
 55 8 55 8 24 -13 c 1,47,-1
 14 -3 l 1,48,49
 38 21 38 21 52 60 c 128,-1,50
 66 99 66 99 66 135 c 1,0,-1
EndSplineSet
EndChar

StartChar: currency
Encoding: 164 164 102
Width: 567
GlyphClass: 2
Flags: W
LayerCount: 2
Fore
SplineSet
74 279 m 0,0,1
 74 361 74 361 131 426 c 1,2,3
 88 467 88 467 37 515 c 1,4,5
 44 538 44 538 77 571 c 1,6,-1
 83 571 l 1,7,-1
 179 468 l 1,8,9
 239 509 239 509 311 523 c 1,10,11
 385 523 385 523 433 492 c 1,12,-1
 513 570 l 1,13,14
 550 556 550 556 577 551 c 1,15,-1
 579 546 l 1,16,-1
 470 451 l 1,17,18
 494 413 494 413 494 357 c 0,19,20
 494 267 494 267 426 199 c 1,21,-1
 423 197 l 1,22,23
 523 106 523 106 549 84 c 1,24,-1
 547 80 l 1,25,26
 524 77 524 77 480 61 c 1,27,-1
 379 160 l 1,28,29
 331 128 331 128 271 116 c 1,30,31
 190 116 190 116 139 148 c 1,32,-1
 36 60 l 1,33,-1
 30 60 l 1,34,35
 9 83 9 83 5 114 c 1,36,37
 27 130 27 130 99 189 c 1,38,39
 74 225 74 225 74 279 c 0,0,1
279 457 m 0,40,41
 226 457 226 457 195 435 c 1,42,43
 162 391 162 391 162 323.5 c 128,-1,44
 162 256 162 256 194 219 c 128,-1,45
 226 182 226 182 284 182 c 128,-1,46
 342 182 342 182 373 204 c 1,47,48
 407 248 407 248 407 317 c 0,49,50
 407 457 407 457 279 457 c 0,40,41
EndSplineSet
EndChar

StartChar: yen
Encoding: 165 165 103
Width: 521
GlyphClass: 2
Flags: W
LayerCount: 2
Fore
SplineSet
329 197 m 1,0,-1
 328 164 l 1,1,2
 403 167 403 167 425 169 c 1,3,-1
 428 165 l 1,4,5
 416 150 416 150 411 133 c 1,6,-1
 328 130 l 1,7,8
 328 69 328 69 343 0 c 1,9,10
 226 -3 226 -3 170 -15 c 1,11,-1
 164 -10 l 1,12,13
 180 57 180 57 189 126 c 1,14,15
 124 124 124 124 85 119 c 1,16,-1
 82 123 l 1,17,18
 111 152 111 152 114 156 c 1,19,-1
 194 159 l 1,20,-1
 196 193 l 1,21,22
 129 191 129 191 89 186 c 1,23,-1
 86 190 l 1,24,25
 115 219 115 219 118 223 c 1,26,-1
 192 226 l 1,27,28
 103 431 103 431 49 486 c 1,29,30
 16 492 16 492 -7 503 c 1,31,-1
 -6 521 l 1,32,33
 144 521 144 521 237 535 c 1,34,-1
 242 529 l 1,35,36
 266 402 266 402 310 284 c 1,37,38
 333 328 333 328 350 385.5 c 128,-1,39
 367 443 367 443 367 472.5 c 128,-1,40
 367 502 367 502 362 516 c 1,41,-1
 366 521 l 1,42,43
 455 521 455 521 514 536 c 1,44,45
 512 494 512 494 493 458 c 128,-1,46
 474 422 474 422 463.5 404 c 128,-1,47
 453 386 453 386 432 358.5 c 128,-1,48
 411 331 411 331 400 318 c 0,49,50
 353 260 353 260 333 237 c 1,51,-1
 332 231 l 1,52,53
 407 234 407 234 429 236 c 1,54,-1
 432 232 l 1,55,56
 420 217 420 217 415 200 c 1,57,-1
 329 197 l 1,0,-1
EndSplineSet
EndChar

StartChar: brokenbar
Encoding: 166 166 104
Width: 261
GlyphClass: 2
Flags: W
LayerCount: 2
Fore
SplineSet
166 345 m 1,0,1
 142 331 142 331 111 322 c 1,2,-1
 101 326 l 1,3,4
 101 517 101 517 97 599.5 c 128,-1,5
 93 682 93 682 92 726 c 1,6,7
 133 742 133 742 162 762 c 1,8,-1
 169 761 l 1,9,10
 166 473 166 473 166 345 c 1,0,1
166 -194 m 1,11,12
 142 -208 142 -208 111 -217 c 1,13,-1
 101 -213 l 1,14,15
 101 -21 101 -21 97 58 c 128,-1,16
 93 137 93 137 92 182 c 1,17,18
 140 203 140 203 162 219 c 1,19,-1
 169 218 l 1,20,21
 166 -70 166 -70 166 -194 c 1,11,12
EndSplineSet
EndChar

StartChar: section
Encoding: 167 167 105
Width: 426
GlyphClass: 2
Flags: W
LayerCount: 2
Fore
SplineSet
416 309 m 0,0,1
 416 233 416 233 306 144 c 1,2,3
 358 101 358 101 358 64.5 c 128,-1,4
 358 28 358 28 320 -10 c 0,5,6
 247 -81 247 -81 153 -115 c 1,7,8
 106 -100 106 -100 70 -100 c 128,-1,9
 34 -100 34 -100 21 -109 c 1,10,-1
 11 -98 l 1,11,12
 57 -44 57 -44 77 16 c 1,13,-1
 87 19 l 1,14,-1
 113 0 l 2,15,16
 130 -13 130 -13 158 -28.5 c 128,-1,17
 186 -44 186 -44 204 -47 c 1,18,19
 230 -32 230 -32 230 -1.5 c 128,-1,20
 230 29 230 29 195.5 59 c 128,-1,21
 161 89 161 89 120 113.5 c 128,-1,22
 79 138 79 138 44.5 173 c 128,-1,23
 10 208 10 208 10 242 c 0,24,25
 10 321 10 321 120 406 c 1,26,27
 68 451 68 451 68 487 c 128,-1,28
 68 523 68 523 106 561 c 0,29,30
 179 632 179 632 273 666 c 1,31,32
 320 651 320 651 356 651 c 128,-1,33
 392 651 392 651 405 660 c 1,34,-1
 415 649 l 1,35,36
 369 595 369 595 349 535 c 1,37,-1
 339 532 l 1,38,-1
 313 551 l 2,39,40
 296 564 296 564 268 579.5 c 128,-1,41
 240 595 240 595 222 598 c 1,42,43
 196 583 196 583 196 552.5 c 128,-1,44
 196 522 196 522 230.5 492 c 128,-1,45
 265 462 265 462 306 437.5 c 128,-1,46
 347 413 347 413 381.5 378 c 128,-1,47
 416 343 416 343 416 309 c 0,0,1
266 299 m 128,-1,49
 232 327 232 327 198.5 349.5 c 128,-1,50
 165 372 165 372 152 381 c 1,51,52
 126 350 126 350 126 310 c 0,53,54
 126 272 126 272 192 226 c 0,55,56
 207 215 207 215 234 196.5 c 128,-1,57
 261 178 261 178 274 169 c 1,58,59
 300 200 300 200 300 235.5 c 128,-1,48
 300 271 300 271 266 299 c 128,-1,49
EndSplineSet
EndChar

StartChar: dieresis
Encoding: 168 168 106
Width: 405
GlyphClass: 2
Flags: W
LayerCount: 2
Fore
SplineSet
184 652 m 1,0,1
 169 629 169 629 139.5 597 c 128,-1,2
 110 565 110 565 89 550 c 1,3,4
 49 580 49 580 14 652 c 1,5,6
 25 672 25 672 54 697 c 128,-1,7
 83 722 83 722 107 734 c 1,8,9
 146 709 146 709 184 652 c 1,0,1
405 652 m 1,10,11
 390 629 390 629 360.5 597 c 128,-1,12
 331 565 331 565 310 550 c 1,13,14
 270 580 270 580 235 652 c 1,15,16
 246 672 246 672 275 697 c 128,-1,17
 304 722 304 722 328 734 c 1,18,19
 367 709 367 709 405 652 c 1,10,11
EndSplineSet
EndChar

StartChar: copyright
Encoding: 169 169 107
Width: 741
GlyphClass: 2
Flags: W
LayerCount: 2
Fore
SplineSet
248.5 158.5 m 128,-1,1
 206 198 206 198 206 271.5 c 128,-1,2
 206 345 206 345 254.5 421.5 c 128,-1,3
 303 498 303 498 367 536 c 1,4,5
 416 522 416 522 450.5 522 c 128,-1,6
 485 522 485 522 501 526 c 1,7,-1
 506 518 l 1,8,9
 473 481 473 481 473 387 c 1,10,-1
 455 387 l 1,11,12
 445 410 445 410 440 436 c 1,13,-1
 429 447 l 2,14,15
 417 459 417 459 396 468 c 128,-1,16
 375 477 375 477 367.5 477 c 128,-1,17
 360 477 360 477 359 477 c 0,18,19
 321 389 321 389 321 296 c 0,20,21
 321 175 321 175 391 175 c 1,22,23
 418 197 418 197 418 260 c 0,24,25
 418 263 418 263 416 275 c 1,26,-1
 419 278 l 1,27,28
 433 279 433 279 465.5 285 c 128,-1,29
 498 291 498 291 509 295 c 1,30,31
 498 242 498 242 457.5 193 c 128,-1,32
 417 144 417 144 365 119 c 1,33,0
 291 119 291 119 248.5 158.5 c 128,-1,1
125 80 m 128,-1,35
 30 175 30 175 30 313 c 128,-1,36
 30 451 30 451 132.5 558.5 c 128,-1,37
 235 666 235 666 377.5 666 c 128,-1,38
 520 666 520 666 615.5 570 c 128,-1,39
 711 474 711 474 711 336 c 128,-1,40
 711 198 711 198 607 91.5 c 128,-1,41
 503 -15 503 -15 361.5 -15 c 128,-1,34
 220 -15 220 -15 125 80 c 128,-1,35
577 533.5 m 128,-1,43
 496 615 496 615 379 615 c 128,-1,44
 262 615 262 615 172.5 526.5 c 128,-1,45
 83 438 83 438 83 318 c 128,-1,46
 83 198 83 198 163 117 c 128,-1,47
 243 36 243 36 362 36 c 128,-1,48
 481 36 481 36 569.5 124.5 c 128,-1,49
 658 213 658 213 658 332.5 c 128,-1,42
 658 452 658 452 577 533.5 c 128,-1,43
EndSplineSet
EndChar

StartChar: ordfeminine
Encoding: 170 170 108
Width: 439
GlyphClass: 2
Flags: W
LayerCount: 2
Fore
SplineSet
248 397 m 1,0,1
 252 411 252 411 260 462 c 1,2,-1
 247 464 l 1,3,4
 217 306 217 306 150 259 c 1,5,6
 98 259 98 259 68 299 c 128,-1,7
 38 339 38 339 38 397 c 0,8,9
 38 486 38 486 93 560 c 128,-1,10
 148 634 148 634 234 672 c 1,11,12
 279 672 279 672 338 645 c 1,13,14
 366 690 366 690 372 698 c 1,15,-1
 385 694 l 1,16,17
 358 624 358 624 358 470 c 0,18,19
 358 385 358 385 364 339 c 1,20,21
 390 373 390 373 420 469 c 1,22,-1
 433 466 l 1,23,24
 404 305 404 305 338 259 c 1,25,26
 284 259 284 259 266 293.5 c 128,-1,27
 248 328 248 328 248 397 c 1,0,1
184 601 m 1,28,29
 163 506 163 506 163 430.5 c 128,-1,30
 163 355 163 355 176 346 c 1,31,32
 202 382 202 382 221 458.5 c 128,-1,33
 240 535 240 535 240 587 c 1,34,35
 224 606 224 606 208 606 c 128,-1,36
 192 606 192 606 184 601 c 1,28,29
EndSplineSet
EndChar

StartChar: guillemotleft
Encoding: 171 171 109
Width: 485
GlyphClass: 2
Flags: W
LayerCount: 2
Fore
SplineSet
164 285 m 1,0,-1
 259 87 l 1,1,-1
 231 70 l 1,2,3
 133 202 133 202 34 267 c 1,4,-1
 36 292 l 1,5,6
 163 357 163 357 281 480 c 1,7,-1
 304 464 l 1,8,-1
 164 285 l 1,0,-1
355 285 m 1,9,-1
 440 107 l 1,10,-1
 409 89 l 1,11,12
 365 149 365 149 324 189 c 128,-1,13
 283 229 283 229 225 267 c 1,14,-1
 227 292 l 1,15,16
 352 356 352 356 452 460 c 1,17,-1
 478 441 l 1,18,-1
 355 285 l 1,9,-1
EndSplineSet
EndChar

StartChar: logicalnot
Encoding: 172 172 110
Width: 576
GlyphClass: 2
Flags: W
LayerCount: 2
Fore
SplineSet
450 228 m 1,0,-1
 62 228 l 1,1,-1
 54 235 l 1,2,-1
 63 301 l 1,3,4
 233 292 233 292 352.5 292 c 128,-1,5
 472 292 472 292 511 295 c 1,6,-1
 517 289 l 1,7,8
 517 220 517 220 522 88 c 1,9,-1
 517 82 l 1,10,-1
 450 91 l 1,11,-1
 450 228 l 1,0,-1
EndSplineSet
EndChar

StartChar: registered
Encoding: 174 174 111
Width: 434
GlyphClass: 2
Flags: W
LayerCount: 2
Fore
SplineSet
75.5 358.5 m 128,-1,1
 21 413 21 413 21 495 c 128,-1,2
 21 577 21 577 80 636.5 c 128,-1,3
 139 696 139 696 221.5 696 c 128,-1,4
 304 696 304 696 358.5 641 c 128,-1,5
 413 586 413 586 413 504.5 c 128,-1,6
 413 423 413 423 353 363.5 c 128,-1,7
 293 304 293 304 211.5 304 c 128,-1,0
 130 304 130 304 75.5 358.5 c 128,-1,1
110.5 609 m 128,-1,9
 63 564 63 564 63 499 c 128,-1,10
 63 434 63 434 104.5 389 c 128,-1,11
 146 344 146 344 211 344 c 128,-1,12
 276 344 276 344 322.5 390 c 128,-1,13
 369 436 369 436 369 501 c 128,-1,14
 369 566 369 566 328.5 610 c 128,-1,15
 288 654 288 654 223 654 c 128,-1,8
 158 654 158 654 110.5 609 c 128,-1,9
127 605 m 1,16,-1
 231 608 l 1,17,18
 297 608 297 608 297 562.5 c 128,-1,19
 297 517 297 517 255 506 c 1,20,-1
 280 461 l 2,21,22
 295 434 295 434 314 407 c 1,23,24
 307 407 307 407 290.5 407 c 128,-1,25
 274 407 274 407 249 402 c 1,26,-1
 247 403 l 1,27,28
 231 467 231 467 214 502 c 1,29,-1
 205 502 l 1,30,-1
 207 520 l 1,31,32
 240 520 240 520 240 554 c 128,-1,33
 240 588 240 588 220 588 c 0,34,35
 210 588 210 588 203 584 c 1,36,37
 197 535 197 535 197 477 c 128,-1,38
 197 419 197 419 200 407 c 1,39,40
 160 407 160 407 139 403 c 1,41,-1
 137 405 l 1,42,43
 147 451 147 451 147 512 c 128,-1,44
 147 573 147 573 144 587 c 1,45,46
 134 590 134 590 125 594 c 1,47,-1
 127 605 l 1,16,-1
EndSplineSet
EndChar

StartChar: macron
Encoding: 175 175 112
Width: 361
GlyphClass: 2
Flags: W
LayerCount: 2
Fore
SplineSet
65 694 m 2,0,1
 119 689 119 689 198 689 c 128,-1,2
 277 689 277 689 350 694 c 1,3,-1
 361 685 l 1,4,-1
 333 610 l 1,5,-1
 10 606 l 1,6,-1
 0 613 l 1,7,-1
 28 698 l 1,8,-1
 65 694 l 2,0,1
EndSplineSet
EndChar

StartChar: degree
Encoding: 176 176 113
Width: 364
GlyphClass: 2
Flags: W
LayerCount: 2
Fore
SplineSet
85 425.5 m 128,-1,1
 45 455 45 455 45 512.5 c 128,-1,2
 45 570 45 570 86.5 613 c 128,-1,3
 128 656 128 656 192 667 c 1,4,5
 250 667 250 667 286 637 c 128,-1,6
 322 607 322 607 322 549.5 c 128,-1,7
 322 492 322 492 284 450.5 c 128,-1,8
 246 409 246 409 184 396 c 1,9,0
 125 396 125 396 85 425.5 c 128,-1,1
174 614 m 0,10,11
 142 614 142 614 127 602 c 1,12,13
 114 574 114 574 114 535.5 c 128,-1,14
 114 497 114 497 134 473 c 128,-1,15
 154 449 154 449 189.5 449 c 128,-1,16
 225 449 225 449 240 461 c 1,17,18
 253 489 253 489 253 525 c 0,19,20
 253 614 253 614 174 614 c 0,10,11
EndSplineSet
EndChar

StartChar: plusminus
Encoding: 177 177 114
Width: 576
GlyphClass: 2
Flags: W
LayerCount: 2
Fore
SplineSet
324 262 m 1,0,1
 324 185 324 185 333 90 c 1,2,-1
 263 86 l 1,3,-1
 253 88 l 1,4,-1
 253 262 l 1,5,-1
 69 262 l 1,6,-1
 61 269 l 1,7,-1
 70 340 l 1,8,9
 192 334 192 334 253 333 c 1,10,-1
 253 486 l 1,11,-1
 324 495 l 1,12,-1
 329 489 l 1,13,14
 324 401 324 401 324 333 c 2,15,-1
 324 332 l 1,16,17
 361 331 361 331 420 331 c 128,-1,18
 479 331 479 331 518 334 c 1,19,-1
 524 328 l 1,20,-1
 515 262 l 1,21,-1
 324 262 l 1,0,1
62 58 m 1,22,23
 232 49 232 49 351.5 49 c 128,-1,24
 471 49 471 49 510 52 c 1,25,-1
 516 46 l 1,26,-1
 507 -10 l 1,27,-1
 61 -10 l 1,28,-1
 53 -3 l 1,29,-1
 62 58 l 1,22,23
EndSplineSet
EndChar

StartChar: twosuperior
Encoding: 178 178 115
Width: 392
GlyphClass: 2
Flags: W
LayerCount: 2
Fore
SplineSet
198 599 m 0,0,1
 198 653 198 653 152 653 c 0,2,3
 132 653 132 653 114 647 c 1,4,5
 108 626 108 626 108 611.5 c 128,-1,6
 108 597 108 597 118 592 c 1,7,-1
 118 586 l 1,8,9
 70 570 70 570 46 544 c 1,10,11
 35 544 35 544 34 552 c 0,12,13
 33 555 33 555 33 560 c 2,14,-1
 33 566 l 2,15,16
 33 609 33 609 88.5 672 c 128,-1,17
 144 735 144 735 195 748 c 1,18,19
 274 748 274 748 309.5 717.5 c 128,-1,20
 345 687 345 687 345 612 c 1,21,22
 317 577 317 577 250.5 527 c 128,-1,23
 184 477 184 477 175 470 c 1,24,25
 202 462 202 462 237.5 462 c 128,-1,26
 273 462 273 462 295 469 c 1,27,28
 313 497 313 497 335 522 c 1,29,-1
 346 516 l 1,30,31
 327 468 327 468 327 417.5 c 128,-1,32
 327 367 327 367 340 349 c 1,33,-1
 333 339 l 1,34,35
 210 362 210 362 98 362 c 0,36,37
 53 362 53 362 30 343 c 1,38,-1
 14 352 l 1,39,40
 37 404 37 404 122 476 c 1,41,42
 151 502 151 502 174.5 535.5 c 128,-1,43
 198 569 198 569 198 599 c 0,0,1
EndSplineSet
EndChar

StartChar: threesuperior
Encoding: 179 179 116
Width: 361
GlyphClass: 2
Flags: W
LayerCount: 2
Fore
SplineSet
202 488 m 0,0,1
 202 544 202 544 153 544 c 0,2,3
 139 544 139 544 127 540 c 1,4,-1
 122 556 l 1,5,6
 168 585 168 585 193 638 c 1,7,8
 157 647 157 647 136.5 647 c 128,-1,9
 116 647 116 647 107 644 c 1,10,11
 92 613 92 613 81 599 c 1,12,-1
 66 604 l 1,13,14
 82 641 82 641 82 683 c 128,-1,15
 82 725 82 725 72 742 c 1,16,-1
 81 752 l 1,17,18
 119 727 119 727 247 727 c 0,19,20
 294 727 294 727 329 732 c 1,21,-1
 333 717 l 1,22,23
 293 652 293 652 215 604 c 1,24,-1
 215 601 l 1,25,26
 347 601 347 601 347 516 c 0,27,28
 347 486 347 486 326 456 c 128,-1,29
 305 426 305 426 272 404 c 1,30,31
 213 362 213 362 151 340 c 1,32,33
 113 340 113 340 73 357 c 128,-1,34
 33 374 33 374 14 403 c 1,35,36
 76 445 76 445 102 505 c 1,37,-1
 123 497 l 1,38,39
 115 482 115 482 115 471 c 0,40,41
 115 407 115 407 165 390 c 1,42,43
 202 415 202 415 202 488 c 0,0,1
EndSplineSet
EndChar

StartChar: acute
Encoding: 180 180 117
Width: 278
GlyphClass: 2
Flags: W
LayerCount: 2
Fore
SplineSet
230 746 m 1,0,1
 244 747 244 747 258.5 747 c 128,-1,2
 273 747 273 747 284 745 c 1,3,4
 294 735 294 735 305.5 699.5 c 128,-1,5
 317 664 317 664 318 648 c 1,6,-1
 54 543 l 1,7,-1
 40 567 l 1,8,9
 185 663 185 663 230 746 c 1,0,1
EndSplineSet
EndChar

StartChar: mu
Encoding: 181 181 118
AltUni2: 0003bc.ffffffff.0
Width: 562
GlyphClass: 2
Flags: W
LayerCount: 2
Fore
SplineSet
324 158 m 1,0,1
 331 198 331 198 340 240 c 1,2,-1
 323 242 l 1,3,4
 288 86 288 86 240 30 c 0,5,6
 217 2 217 2 186 -15 c 1,7,8
 172 -12 172 -12 159 -1 c 1,9,10
 159 -106 159 -106 180 -196 c 1,11,-1
 177 -199 l 1,12,13
 106 -204 106 -204 51 -219 c 1,14,-1
 42 -212 l 1,15,16
 56 -116 56 -116 61 143 c 2,17,-1
 65 331 l 2,18,19
 66 357 66 357 66 398.5 c 128,-1,20
 66 440 66 440 59 487 c 1,21,-1
 63 490 l 1,22,23
 202 495 202 495 240 505 c 1,24,-1
 246 500 l 1,25,26
 213 376 213 376 213 163 c 0,27,28
 213 94 213 94 233 88 c 1,29,30
 266 131 266 131 293 238 c 128,-1,31
 320 345 320 345 320 396.5 c 128,-1,32
 320 448 320 448 312 490 c 1,33,34
 397 490 397 490 476 505 c 1,35,-1
 482 500 l 1,36,37
 462 431 462 431 462 244 c 0,38,39
 462 147 462 147 470 87 c 1,40,41
 505 131 505 131 541 248 c 1,42,-1
 557 244 l 1,43,44
 521 42 521 42 438 -15 c 1,45,46
 370 -15 370 -15 347 28.5 c 128,-1,47
 324 72 324 72 324 158 c 1,0,1
EndSplineSet
EndChar

StartChar: paragraph
Encoding: 182 182 119
Width: 575
GlyphClass: 2
Flags: W
LayerCount: 2
Fore
SplineSet
243 658 m 1,0,-1
 382 651 l 1,1,-1
 386 646 l 1,2,3
 362 536 362 536 347 325 c 2,4,-1
 337 181 l 2,5,6
 329 57 329 57 278 -25 c 0,7,8
 252 -67 252 -67 209 -91 c 128,-1,9
 166 -115 166 -115 110 -115 c 0,10,11
 95 -115 95 -115 85 -106 c 128,-1,12
 75 -97 75 -97 75 -82 c 1,13,14
 112 -55 112 -55 130 -22 c 1,15,-1
 139 -21 l 1,16,17
 152 -33 152 -33 181 -33 c 128,-1,18
 210 -33 210 -33 232 -23 c 1,19,20
 262 48 262 48 267 131 c 2,21,-1
 278 298 l 1,22,23
 260 295 260 295 244 295 c 0,24,25
 149 295 149 295 85 351 c 128,-1,26
 21 407 21 407 21 494 c 128,-1,27
 21 581 21 581 82.5 619.5 c 128,-1,28
 144 658 144 658 243 658 c 1,0,-1
508 499 m 128,-1,30
 482 364 482 364 482 210 c 128,-1,31
 482 56 482 56 497 0 c 1,32,33
 416 0 416 0 360 -15 c 1,34,-1
 356 -11 l 1,35,36
 380 54 380 54 398.5 310 c 128,-1,37
 417 566 417 566 434 651 c 1,38,39
 518 657 518 657 568 677 c 1,40,-1
 575 664 l 1,41,29
 534 634 534 634 508 499 c 128,-1,30
EndSplineSet
EndChar

StartChar: periodcentered
Encoding: 183 183 120
Width: 220
GlyphClass: 2
Flags: W
LayerCount: 2
Fore
SplineSet
199 286 m 1,0,1
 184 262 184 262 153.5 228 c 128,-1,2
 123 194 123 194 100 178 c 1,3,4
 79 193 79 193 56 226 c 128,-1,5
 33 259 33 259 21 286 c 1,6,7
 32 307 32 307 62.5 333 c 128,-1,8
 93 359 93 359 118 372 c 1,9,10
 161 345 161 345 199 286 c 1,0,1
EndSplineSet
EndChar

StartChar: cedilla
Encoding: 184 184 121
Width: 226
GlyphClass: 2
Flags: W
LayerCount: 2
Fore
SplineSet
224 -126 m 0,0,1
 224 -133 224 -133 223 -140 c 1,2,3
 176 -212 176 -212 102 -235 c 1,4,5
 49 -235 49 -235 1 -210 c 1,6,7
 18 -185 18 -185 39 -138 c 1,8,-1
 44 -136 l 1,9,10
 71 -176 71 -176 119 -176 c 0,11,12
 137 -176 137 -176 146 -172 c 1,13,14
 152 -164 152 -164 152 -146 c 0,15,16
 152 -101 152 -101 65 -101 c 1,17,-1
 58 -96 l 1,18,-1
 116 17 l 1,19,-1
 161 19 l 1,20,-1
 123 -38 l 1,21,-1
 127 -42 l 1,22,23
 175 -42 175 -42 199.5 -66 c 128,-1,24
 224 -90 224 -90 224 -126 c 0,0,1
EndSplineSet
EndChar

StartChar: onesuperior
Encoding: 185 185 122
Width: 310
GlyphClass: 2
Flags: W
LayerCount: 2
Fore
SplineSet
198 742 m 1,0,-1
 244 746 l 1,1,-1
 246 744 l 1,2,3
 226 591 226 591 226 510.5 c 128,-1,4
 226 430 226 430 229 395 c 1,5,6
 252 368 252 368 274 358 c 1,7,-1
 269 340 l 1,8,9
 229 351 229 351 152.5 351 c 128,-1,10
 76 351 76 351 28 341 c 1,11,-1
 24 358 l 1,12,13
 57 376 57 376 81 385 c 1,14,15
 96 490 96 490 96 589 c 1,16,-1
 92 646 l 1,17,-1
 32 646 l 1,18,-1
 30 648 l 1,19,20
 30 668 30 668 32 674 c 1,21,22
 130 693 130 693 198 742 c 1,0,-1
EndSplineSet
EndChar

StartChar: ordmasculine
Encoding: 186 186 123
Width: 392
GlyphClass: 2
Flags: W
LayerCount: 2
Fore
SplineSet
216 593 m 0,0,1
 208 602 208 602 197 602 c 128,-1,2
 186 602 186 602 178 598 c 1,3,4
 160 517 160 517 160 425 c 0,5,6
 160 348 160 348 174 332 c 0,7,8
 182 323 182 323 192.5 323 c 128,-1,9
 203 323 203 323 211 327 c 1,10,11
 230 406 230 406 230 491 c 128,-1,12
 230 576 230 576 216 593 c 0,0,1
74 300.5 m 128,-1,14
 38 342 38 342 38 415.5 c 128,-1,15
 38 489 38 489 88.5 559 c 128,-1,16
 139 629 139 629 213 666 c 1,17,18
 283 666 283 666 318 626 c 128,-1,19
 353 586 353 586 353 510.5 c 128,-1,20
 353 435 353 435 302.5 364.5 c 128,-1,21
 252 294 252 294 177 259 c 1,22,13
 110 259 110 259 74 300.5 c 128,-1,14
EndSplineSet
EndChar

StartChar: guillemotright
Encoding: 187 187 124
Width: 485
GlyphClass: 2
Flags: W
LayerCount: 2
Fore
SplineSet
321 265 m 1,0,-1
 226 463 l 1,1,-1
 254 480 l 1,2,3
 352 348 352 348 451 283 c 1,4,-1
 449 258 l 1,5,6
 322 193 322 193 204 70 c 1,7,-1
 181 86 l 1,8,-1
 321 265 l 1,0,-1
130 265 m 1,9,-1
 45 443 l 1,10,-1
 76 461 l 1,11,12
 120 401 120 401 161 361 c 128,-1,13
 202 321 202 321 260 283 c 1,14,-1
 258 258 l 1,15,16
 133 194 133 194 33 90 c 1,17,-1
 7 109 l 1,18,-1
 130 265 l 1,9,-1
EndSplineSet
EndChar

StartChar: onequarter
Encoding: 188 188 125
Width: 800
GlyphClass: 2
Flags: W
LayerCount: 2
Fore
SplineSet
130 -48 m 1,0,-1
 123 -48 l 1,1,2
 110 -38 110 -38 92 8 c 1,3,4
 228 163 228 163 277 225 c 2,5,-1
 498 504 l 1,6,7
 543 559 543 559 649 707 c 1,8,9
 680 699 680 699 715 697 c 1,10,-1
 720 693 l 1,11,12
 687 656 687 656 565 503 c 2,13,-1
 130 -48 l 1,0,-1
694 94 m 1,14,15
 694 76 694 76 697 53 c 1,16,17
 713 34 713 34 743 20 c 1,18,-1
 738 2 l 1,19,20
 698 13 698 13 622 13 c 128,-1,21
 546 13 546 13 498 3 c 1,22,-1
 494 20 l 1,23,24
 521 33 521 33 551 42 c 1,25,26
 560 66 560 66 561 94 c 1,27,-1
 395 94 l 1,28,-1
 386 130 l 1,29,30
 495 256 495 256 560 388 c 1,31,32
 644 392 644 392 717 416 c 1,33,-1
 723 413 l 1,34,35
 699 356 699 356 696 164 c 1,36,37
 736 164 736 164 762 186 c 1,38,-1
 775 177 l 1,39,40
 759 133 759 133 754 90 c 1,41,42
 729 94 729 94 694 94 c 1,14,15
563 313 m 1,43,44
 532 238 532 238 483 171 c 1,45,46
 517 165 517 165 562 165 c 1,47,-1
 568 313 l 1,48,-1
 563 313 l 1,43,44
202 663 m 1,49,-1
 248 667 l 1,50,-1
 250 665 l 1,51,52
 230 512 230 512 230 431 c 128,-1,53
 230 350 230 350 233 316 c 1,54,55
 256 289 256 289 278 279 c 1,56,-1
 273 261 l 1,57,58
 233 272 233 272 156.5 272 c 128,-1,59
 80 272 80 272 32 262 c 1,60,-1
 28 279 l 1,61,62
 61 297 61 297 85 306 c 1,63,64
 100 411 100 411 100 510 c 1,65,-1
 96 567 l 1,66,-1
 36 567 l 1,67,-1
 34 569 l 1,68,69
 34 589 34 589 36 595 c 1,70,71
 134 614 134 614 202 663 c 1,49,-1
EndSplineSet
EndChar

StartChar: onehalf
Encoding: 189 189 126
Width: 800
GlyphClass: 2
Flags: W
LayerCount: 2
Fore
SplineSet
130 -48 m 1,0,-1
 123 -48 l 1,1,2
 110 -38 110 -38 92 8 c 1,3,4
 228 163 228 163 277 225 c 2,5,-1
 498 504 l 1,6,7
 543 559 543 559 649 707 c 1,8,9
 680 699 680 699 715 697 c 1,10,-1
 720 693 l 1,11,12
 687 656 687 656 565 503 c 2,13,-1
 130 -48 l 1,0,-1
202 663 m 1,14,-1
 248 667 l 1,15,-1
 250 665 l 1,16,17
 230 512 230 512 230 431 c 128,-1,18
 230 350 230 350 233 316 c 1,19,20
 256 289 256 289 278 279 c 1,21,-1
 273 261 l 1,22,23
 233 272 233 272 156.5 272 c 128,-1,24
 80 272 80 272 32 262 c 1,25,-1
 28 279 l 1,26,27
 61 297 61 297 85 306 c 1,28,29
 100 411 100 411 100 510 c 1,30,-1
 96 567 l 1,31,-1
 36 567 l 1,32,-1
 34 569 l 1,33,34
 34 589 34 589 36 595 c 1,35,36
 134 614 134 614 202 663 c 1,14,-1
620 258 m 0,37,38
 620 312 620 312 574 312 c 0,39,40
 554 312 554 312 536 306 c 1,41,42
 530 285 530 285 530 270.5 c 128,-1,43
 530 256 530 256 540 251 c 1,44,-1
 540 245 l 1,45,46
 492 229 492 229 468 203 c 1,47,48
 457 203 457 203 456 211 c 0,49,50
 455 214 455 214 455 218 c 2,51,-1
 455 225 l 2,52,53
 455 268 455 268 510.5 331 c 128,-1,54
 566 394 566 394 617 407 c 1,55,56
 696 407 696 407 731.5 376.5 c 128,-1,57
 767 346 767 346 767 271 c 1,58,59
 739 236 739 236 672.5 186 c 128,-1,60
 606 136 606 136 597 129 c 1,61,62
 624 121 624 121 659.5 121 c 128,-1,63
 695 121 695 121 717 128 c 1,64,65
 735 156 735 156 757 181 c 1,66,-1
 768 175 l 1,67,68
 749 128 749 128 749 77 c 128,-1,69
 749 26 749 26 762 8 c 1,70,-1
 755 -2 l 1,71,72
 632 21 632 21 520 21 c 0,73,74
 475 21 475 21 452 2 c 1,75,-1
 436 11 l 1,76,77
 459 63 459 63 544 136 c 0,78,79
 573 161 573 161 596.5 194.5 c 128,-1,80
 620 228 620 228 620 258 c 0,37,38
EndSplineSet
EndChar

StartChar: threequarters
Encoding: 190 190 127
Width: 800
GlyphClass: 2
Flags: W
LayerCount: 2
Fore
SplineSet
202 408 m 0,0,1
 202 464 202 464 153 464 c 0,2,3
 139 464 139 464 127 460 c 1,4,-1
 122 476 l 1,5,6
 168 505 168 505 193 558 c 1,7,8
 157 567 157 567 136.5 567 c 128,-1,9
 116 567 116 567 107 564 c 1,10,11
 92 533 92 533 81 519 c 1,12,-1
 66 524 l 1,13,14
 82 561 82 561 82 603 c 128,-1,15
 82 645 82 645 72 662 c 1,16,-1
 81 672 l 1,17,18
 119 647 119 647 247 647 c 0,19,20
 294 647 294 647 329 652 c 1,21,-1
 333 637 l 1,22,23
 293 572 293 572 215 524 c 1,24,-1
 215 521 l 1,25,26
 347 521 347 521 347 436 c 0,27,28
 347 406 347 406 326 376 c 128,-1,29
 305 346 305 346 272 324 c 1,30,31
 213 282 213 282 151 260 c 1,32,33
 113 260 113 260 73 277 c 128,-1,34
 33 294 33 294 14 323 c 1,35,36
 76 365 76 365 102 425 c 1,37,-1
 123 417 l 1,38,39
 115 402 115 402 115 391 c 0,40,41
 115 327 115 327 165 310 c 1,42,43
 202 335 202 335 202 408 c 0,0,1
130 -48 m 1,44,-1
 123 -48 l 1,45,46
 110 -38 110 -38 92 8 c 1,47,48
 228 163 228 163 277 225 c 2,49,-1
 498 504 l 1,50,51
 543 559 543 559 649 707 c 1,52,53
 680 699 680 699 715 697 c 1,54,-1
 720 693 l 1,55,56
 687 656 687 656 565 503 c 2,57,-1
 130 -48 l 1,44,-1
694 94 m 1,58,59
 694 76 694 76 697 53 c 1,60,61
 713 34 713 34 743 20 c 1,62,-1
 738 2 l 1,63,64
 698 13 698 13 622 13 c 128,-1,65
 546 13 546 13 498 3 c 1,66,-1
 494 20 l 1,67,68
 521 33 521 33 551 42 c 1,69,70
 560 66 560 66 561 94 c 1,71,-1
 395 94 l 1,72,-1
 386 130 l 1,73,74
 495 256 495 256 560 388 c 1,75,76
 644 392 644 392 717 416 c 1,77,-1
 723 413 l 1,78,79
 699 356 699 356 696 164 c 1,80,81
 736 164 736 164 762 186 c 1,82,-1
 775 177 l 1,83,84
 759 133 759 133 754 90 c 1,85,86
 729 94 729 94 694 94 c 1,58,59
563 313 m 1,87,88
 532 238 532 238 483 171 c 1,89,90
 517 165 517 165 562 165 c 1,91,-1
 568 313 l 1,92,-1
 563 313 l 1,87,88
EndSplineSet
EndChar

StartChar: questiondown
Encoding: 191 191 128
Width: 315
GlyphClass: 2
Flags: W
LayerCount: 2
Fore
SplineSet
158.5 9 m 128,-1,1
 132 -37 132 -37 132 -84.5 c 128,-1,2
 132 -132 132 -132 169 -132 c 0,3,4
 186 -132 186 -132 198 -127 c 1,5,6
 207 -109 207 -109 207 -84.5 c 128,-1,7
 207 -60 207 -60 193 -48 c 1,8,-1
 195 -40 l 1,9,10
 251 -15 251 -15 284 18 c 1,11,12
 309 18 309 18 309 -12 c 0,13,14
 309 -81 309 -81 254 -135.5 c 128,-1,15
 199 -190 199 -190 122 -215 c 1,16,17
 51 -215 51 -215 6.5 -175 c 128,-1,18
 -38 -135 -38 -135 -38 -66 c 1,19,20
 -19 -42 -19 -42 -7 -31 c 128,-1,21
 5 -20 5 -20 12 -13 c 128,-1,22
 19 -6 19 -6 31.5 4 c 128,-1,23
 44 14 44 14 50.5 19 c 128,-1,24
 57 24 57 24 72 34 c 2,25,-1
 92 48 l 2,26,27
 97 52 97 52 113.5 64 c 128,-1,28
 130 76 130 76 134 78 c 1,29,30
 144 107 144 107 154 165.5 c 128,-1,31
 164 224 164 224 167 236 c 1,32,-1
 229 246 l 1,33,-1
 224 86 l 1,34,0
 185 55 185 55 158.5 9 c 128,-1,1
294 410 m 1,35,36
 279 386 279 386 248.5 352 c 128,-1,37
 218 318 218 318 195 302 c 1,38,39
 174 317 174 317 151 350 c 128,-1,40
 128 383 128 383 116 410 c 1,41,42
 128 432 128 432 159 463 c 128,-1,43
 190 494 190 494 213 506 c 1,44,45
 246 486 246 486 294 410 c 1,35,36
EndSplineSet
EndChar

StartChar: Agrave
Encoding: 192 192 129
Width: 583
GlyphClass: 2
Flags: W
LayerCount: 2
Fore
SplineSet
184 671 m 1,0,1
 274 651 274 651 365.5 651 c 128,-1,2
 457 651 457 651 521 662 c 1,3,-1
 527 657 l 1,4,5
 513 598 513 598 503 459.5 c 128,-1,6
 493 321 493 321 493 189.5 c 128,-1,7
 493 58 493 58 504 0 c 1,8,9
 370 -4 370 -4 317 -15 c 1,10,-1
 311 -10 l 1,11,12
 329 69 329 69 338 213 c 1,13,14
 317 219 317 219 295 219 c 128,-1,15
 273 219 273 219 255 219 c 128,-1,16
 237 219 237 219 212 213 c 1,17,18
 191 128 191 128 191 81 c 128,-1,19
 191 34 191 34 198 -1 c 1,20,21
 91 -1 91 -1 11 -15 c 1,22,-1
 -1 -7 l 1,23,-1
 197 572 l 1,24,25
 220 580 220 580 251 587 c 1,26,-1
 252 594 l 1,27,28
 122 594 122 594 87 561 c 1,29,30
 85 553 85 553 85 545 c 0,31,32
 85 513 85 513 99 492 c 1,33,-1
 99 484 l 1,34,35
 57 449 57 449 31 399 c 1,36,37
 14 399 14 399 5.5 414 c 128,-1,38
 -3 429 -3 429 -3 449 c 0,39,40
 -3 525 -3 525 50 583 c 128,-1,41
 103 641 103 641 184 671 c 1,0,1
226 289 m 1,42,43
 244 282 244 282 283 282 c 128,-1,44
 322 282 322 282 341 290 c 1,45,46
 346 398 346 398 346 470 c 128,-1,47
 346 542 346 542 342 591 c 1,48,49
 338 594 338 594 324.5 594 c 128,-1,50
 311 594 311 594 305 591 c 1,51,52
 287 564 287 564 275 503 c 1,53,-1
 226 289 l 1,42,43
157 905 m 1,54,55
 168 907 168 907 182.5 907 c 128,-1,56
 197 907 197 907 211 906 c 1,57,58
 229 874 229 874 269 841.5 c 128,-1,59
 309 809 309 809 336 793.5 c 128,-1,60
 363 778 363 778 415 751 c 1,61,-1
 404 726 l 1,62,-1
 130 802 l 1,63,64
 130 819 130 819 139 857.5 c 128,-1,65
 148 896 148 896 157 905 c 1,54,55
EndSplineSet
EndChar

StartChar: Aacute
Encoding: 193 193 130
Width: 583
GlyphClass: 2
Flags: W
LayerCount: 2
Fore
SplineSet
184 671 m 1,0,1
 274 651 274 651 365.5 651 c 128,-1,2
 457 651 457 651 521 662 c 1,3,-1
 527 657 l 1,4,5
 513 598 513 598 503 459.5 c 128,-1,6
 493 321 493 321 493 189.5 c 128,-1,7
 493 58 493 58 504 0 c 1,8,9
 370 -4 370 -4 317 -15 c 1,10,-1
 311 -10 l 1,11,12
 329 69 329 69 338 213 c 1,13,14
 317 219 317 219 295 219 c 128,-1,15
 273 219 273 219 255 219 c 128,-1,16
 237 219 237 219 212 213 c 1,17,18
 191 128 191 128 191 81 c 128,-1,19
 191 34 191 34 198 -1 c 1,20,21
 91 -1 91 -1 11 -15 c 1,22,-1
 -1 -7 l 1,23,-1
 197 572 l 1,24,25
 220 580 220 580 251 587 c 1,26,-1
 252 594 l 1,27,28
 122 594 122 594 87 561 c 1,29,30
 85 553 85 553 85 545 c 0,31,32
 85 513 85 513 99 492 c 1,33,-1
 99 484 l 1,34,35
 57 449 57 449 31 399 c 1,36,37
 14 399 14 399 5.5 414 c 128,-1,38
 -3 429 -3 429 -3 449 c 0,39,40
 -3 525 -3 525 50 583 c 128,-1,41
 103 641 103 641 184 671 c 1,0,1
226 289 m 1,42,43
 244 282 244 282 283 282 c 128,-1,44
 322 282 322 282 341 290 c 1,45,46
 346 398 346 398 346 470 c 128,-1,47
 346 542 346 542 342 591 c 1,48,49
 338 594 338 594 324.5 594 c 128,-1,50
 311 594 311 594 305 591 c 1,51,52
 287 564 287 564 275 503 c 1,53,-1
 226 289 l 1,42,43
510 906 m 1,54,55
 524 907 524 907 538.5 907 c 128,-1,56
 553 907 553 907 564 905 c 1,57,58
 573 896 573 896 582 857.5 c 128,-1,59
 591 819 591 819 591 802 c 1,60,-1
 317 726 l 1,61,-1
 306 751 l 1,62,63
 358 778 358 778 385 793.5 c 128,-1,64
 412 809 412 809 452 841.5 c 128,-1,65
 492 874 492 874 510 906 c 1,54,55
EndSplineSet
EndChar

StartChar: Acircumflex
Encoding: 194 194 131
Width: 583
GlyphClass: 2
Flags: W
LayerCount: 2
Fore
SplineSet
184 671 m 1,0,1
 274 651 274 651 365.5 651 c 128,-1,2
 457 651 457 651 521 662 c 1,3,-1
 527 657 l 1,4,5
 513 598 513 598 503 459.5 c 128,-1,6
 493 321 493 321 493 189.5 c 128,-1,7
 493 58 493 58 504 0 c 1,8,9
 370 -4 370 -4 317 -15 c 1,10,-1
 311 -10 l 1,11,12
 329 69 329 69 338 213 c 1,13,14
 317 219 317 219 295 219 c 128,-1,15
 273 219 273 219 255 219 c 128,-1,16
 237 219 237 219 212 213 c 1,17,18
 191 128 191 128 191 81 c 128,-1,19
 191 34 191 34 198 -1 c 1,20,21
 91 -1 91 -1 11 -15 c 1,22,-1
 -1 -7 l 1,23,-1
 197 572 l 1,24,25
 220 580 220 580 251 587 c 1,26,-1
 252 594 l 1,27,28
 122 594 122 594 87 561 c 1,29,30
 85 553 85 553 85 545 c 0,31,32
 85 513 85 513 99 492 c 1,33,-1
 99 484 l 1,34,35
 57 449 57 449 31 399 c 1,36,37
 14 399 14 399 5.5 414 c 128,-1,38
 -3 429 -3 429 -3 449 c 0,39,40
 -3 525 -3 525 50 583 c 128,-1,41
 103 641 103 641 184 671 c 1,0,1
226 289 m 1,42,43
 244 282 244 282 283 282 c 128,-1,44
 322 282 322 282 341 290 c 1,45,46
 346 398 346 398 346 470 c 128,-1,47
 346 542 346 542 342 591 c 1,48,49
 338 594 338 594 324.5 594 c 128,-1,50
 311 594 311 594 305 591 c 1,51,52
 287 564 287 564 275 503 c 1,53,-1
 226 289 l 1,42,43
566 726 m 1,54,-1
 360 786 l 1,55,-1
 174 726 l 1,56,-1
 163 751 l 1,57,58
 311 828 311 828 357 906 c 1,59,-1
 403 906 l 1,60,61
 458 813 458 813 577 751 c 1,62,-1
 566 726 l 1,54,-1
EndSplineSet
EndChar

StartChar: Atilde
Encoding: 195 195 132
Width: 583
GlyphClass: 2
Flags: W
LayerCount: 2
Fore
SplineSet
184 671 m 1,0,1
 274 651 274 651 365.5 651 c 128,-1,2
 457 651 457 651 521 662 c 1,3,-1
 527 657 l 1,4,5
 513 598 513 598 503 459.5 c 128,-1,6
 493 321 493 321 493 189.5 c 128,-1,7
 493 58 493 58 504 0 c 1,8,9
 370 -4 370 -4 317 -15 c 1,10,-1
 311 -10 l 1,11,12
 329 69 329 69 338 213 c 1,13,14
 317 219 317 219 295 219 c 128,-1,15
 273 219 273 219 255 219 c 128,-1,16
 237 219 237 219 212 213 c 1,17,18
 191 128 191 128 191 81 c 128,-1,19
 191 34 191 34 198 -1 c 1,20,21
 91 -1 91 -1 11 -15 c 1,22,-1
 -1 -7 l 1,23,-1
 197 572 l 1,24,25
 220 580 220 580 251 587 c 1,26,-1
 252 594 l 1,27,28
 122 594 122 594 87 561 c 1,29,30
 85 553 85 553 85 545 c 0,31,32
 85 513 85 513 99 492 c 1,33,-1
 99 484 l 1,34,35
 57 449 57 449 31 399 c 1,36,37
 14 399 14 399 5.5 414 c 128,-1,38
 -3 429 -3 429 -3 449 c 0,39,40
 -3 525 -3 525 50 583 c 128,-1,41
 103 641 103 641 184 671 c 1,0,1
226 289 m 1,42,43
 244 282 244 282 283 282 c 128,-1,44
 322 282 322 282 341 290 c 1,45,46
 346 398 346 398 346 470 c 128,-1,47
 346 542 346 542 342 591 c 1,48,49
 338 594 338 594 324.5 594 c 128,-1,50
 311 594 311 594 305 591 c 1,51,52
 287 564 287 564 275 503 c 1,53,-1
 226 289 l 1,42,43
471 832 m 0,54,55
 520 832 520 832 554 867 c 1,56,-1
 578 850 l 1,57,58
 514 762 514 762 438 731 c 1,59,60
 413 731 413 731 346.5 755 c 128,-1,61
 280 779 280 779 255 779 c 0,62,63
 207 779 207 779 174 744 c 1,64,-1
 149 761 l 1,65,66
 175 797 175 797 223.5 830.5 c 128,-1,67
 272 864 272 864 321 880 c 1,68,69
 394 832 394 832 471 832 c 0,54,55
EndSplineSet
EndChar

StartChar: Adieresis
Encoding: 196 196 133
Width: 583
GlyphClass: 2
Flags: W
LayerCount: 2
Fore
SplineSet
184 671 m 1,0,1
 274 651 274 651 365.5 651 c 128,-1,2
 457 651 457 651 521 662 c 1,3,-1
 527 657 l 1,4,5
 513 598 513 598 503 459.5 c 128,-1,6
 493 321 493 321 493 189.5 c 128,-1,7
 493 58 493 58 504 0 c 1,8,9
 370 -4 370 -4 317 -15 c 1,10,-1
 311 -10 l 1,11,12
 329 69 329 69 338 213 c 1,13,14
 317 219 317 219 295 219 c 128,-1,15
 273 219 273 219 255 219 c 128,-1,16
 237 219 237 219 212 213 c 1,17,18
 191 128 191 128 191 81 c 128,-1,19
 191 34 191 34 198 -1 c 1,20,21
 91 -1 91 -1 11 -15 c 1,22,-1
 -1 -7 l 1,23,-1
 197 572 l 1,24,25
 220 580 220 580 251 587 c 1,26,-1
 252 594 l 1,27,28
 122 594 122 594 87 561 c 1,29,30
 85 553 85 553 85 545 c 0,31,32
 85 513 85 513 99 492 c 1,33,-1
 99 484 l 1,34,35
 57 449 57 449 31 399 c 1,36,37
 14 399 14 399 5.5 414 c 128,-1,38
 -3 429 -3 429 -3 449 c 0,39,40
 -3 525 -3 525 50 583 c 128,-1,41
 103 641 103 641 184 671 c 1,0,1
226 289 m 1,42,43
 244 282 244 282 283 282 c 128,-1,44
 322 282 322 282 341 290 c 1,45,46
 346 398 346 398 346 470 c 128,-1,47
 346 542 346 542 342 591 c 1,48,49
 338 594 338 594 324.5 594 c 128,-1,50
 311 594 311 594 305 591 c 1,51,52
 287 564 287 564 275 503 c 1,53,-1
 226 289 l 1,42,43
342 814 m 1,54,55
 327 791 327 791 297.5 759 c 128,-1,56
 268 727 268 727 247 712 c 1,57,58
 207 742 207 742 172 814 c 1,59,60
 183 834 183 834 212 859 c 128,-1,61
 241 884 241 884 265 896 c 1,62,63
 304 871 304 871 342 814 c 1,54,55
563 814 m 1,64,65
 548 791 548 791 518.5 759 c 128,-1,66
 489 727 489 727 468 712 c 1,67,68
 428 742 428 742 393 814 c 1,69,70
 404 834 404 834 433 859 c 128,-1,71
 462 884 462 884 486 896 c 1,72,73
 525 871 525 871 563 814 c 1,64,65
EndSplineSet
EndChar

StartChar: Aring
Encoding: 197 197 134
Width: 583
GlyphClass: 2
Flags: W
LayerCount: 2
Fore
SplineSet
184 671 m 1,0,1
 274 651 274 651 365.5 651 c 128,-1,2
 457 651 457 651 521 662 c 1,3,-1
 527 657 l 1,4,5
 513 598 513 598 503 459.5 c 128,-1,6
 493 321 493 321 493 189.5 c 128,-1,7
 493 58 493 58 504 0 c 1,8,9
 370 -4 370 -4 317 -15 c 1,10,-1
 311 -10 l 1,11,12
 329 69 329 69 338 213 c 1,13,14
 317 219 317 219 295 219 c 128,-1,15
 273 219 273 219 255 219 c 128,-1,16
 237 219 237 219 212 213 c 1,17,18
 191 128 191 128 191 81 c 128,-1,19
 191 34 191 34 198 -1 c 1,20,21
 91 -1 91 -1 11 -15 c 1,22,-1
 -1 -7 l 1,23,-1
 197 572 l 1,24,25
 220 580 220 580 251 587 c 1,26,-1
 252 594 l 1,27,28
 122 594 122 594 87 561 c 1,29,30
 85 553 85 553 85 545 c 0,31,32
 85 513 85 513 99 492 c 1,33,-1
 99 484 l 1,34,35
 57 449 57 449 31 399 c 1,36,37
 14 399 14 399 5.5 414 c 128,-1,38
 -3 429 -3 429 -3 449 c 0,39,40
 -3 525 -3 525 50 583 c 128,-1,41
 103 641 103 641 184 671 c 1,0,1
226 289 m 1,42,43
 244 282 244 282 283 282 c 128,-1,44
 322 282 322 282 341 290 c 1,45,46
 346 398 346 398 346 470 c 128,-1,47
 346 542 346 542 342 591 c 1,48,49
 338 594 338 594 324.5 594 c 128,-1,50
 311 594 311 594 305 591 c 1,51,52
 287 564 287 564 275 503 c 1,53,-1
 226 289 l 1,42,43
279.5 719 m 128,-1,55
 251 737 251 737 251 778 c 128,-1,56
 251 819 251 819 288.5 853.5 c 128,-1,57
 326 888 326 888 381 904 c 1,58,59
 474 904 474 904 474 836 c 0,60,61
 474 786 474 786 439 751 c 128,-1,62
 404 716 404 716 351 701 c 1,63,54
 308 701 308 701 279.5 719 c 128,-1,55
329.5 761.5 m 128,-1,65
 343 748 343 748 363 748 c 128,-1,66
 383 748 383 748 397 757 c 1,67,68
 411 781 411 781 411 806.5 c 128,-1,69
 411 832 411 832 397.5 845.5 c 128,-1,70
 384 859 384 859 364 859 c 128,-1,71
 344 859 344 859 330 850 c 1,72,73
 316 826 316 826 316 800.5 c 128,-1,64
 316 775 316 775 329.5 761.5 c 128,-1,65
EndSplineSet
EndChar

StartChar: AE
Encoding: 198 198 135
Width: 732
GlyphClass: 2
Flags: W
LayerCount: 2
Fore
SplineSet
85 545 m 0,0,1
 85 513 85 513 99 492 c 1,2,-1
 99 484 l 1,3,4
 57 449 57 449 31 399 c 1,5,6
 14 399 14 399 5.5 414 c 128,-1,7
 -3 429 -3 429 -3 449 c 0,8,9
 -3 525 -3 525 50 583 c 128,-1,10
 103 641 103 641 184 671 c 1,11,12
 274 651 274 651 451 651 c 128,-1,13
 628 651 628 651 715 666 c 1,14,-1
 721 655 l 1,15,16
 679 607 679 607 674 497 c 1,17,-1
 657 497 l 1,18,19
 648 525 648 525 641 573 c 1,20,21
 595 594 595 594 545 594 c 0,22,23
 526 594 526 594 501 589 c 1,24,25
 490 515 490 515 481 373 c 1,26,27
 500 369 500 369 542.5 369 c 128,-1,28
 585 369 585 369 636 386 c 1,29,-1
 641 380 l 1,30,31
 635 363 635 363 626 296 c 1,32,33
 556 306 556 306 522.5 306 c 128,-1,34
 489 306 489 306 478 304 c 1,35,36
 476 270 476 270 476 243 c 128,-1,37
 476 216 476 216 478.5 189.5 c 128,-1,38
 481 163 481 163 490 132 c 0,39,40
 507 71 507 71 569 71 c 1,41,42
 596 109 596 109 596 166 c 0,43,44
 596 184 596 184 593 197 c 1,45,-1
 600 202 l 1,46,47
 665 203 665 203 725 213 c 1,48,49
 713 147 713 147 655 83 c 128,-1,50
 597 19 597 19 529 -15 c 1,51,52
 412 -15 412 -15 368 37.5 c 128,-1,53
 324 90 324 90 324 214 c 0,54,55
 324 260 324 260 327 303 c 1,56,57
 308 306 308 306 282.5 306 c 128,-1,58
 257 306 257 306 233 303 c 1,59,60
 201 133 201 133 201 61 c 0,61,62
 201 34 201 34 208 -1 c 1,63,64
 101 -1 101 -1 21 -15 c 1,65,-1
 9 -7 l 1,66,-1
 197 572 l 1,67,68
 220 580 220 580 251 587 c 1,69,-1
 252 594 l 1,70,71
 122 594 122 594 87 561 c 1,72,73
 85 553 85 553 85 545 c 0,0,1
247 372 m 1,74,75
 266 369 266 369 292 369 c 128,-1,76
 318 369 318 369 330 371 c 1,77,78
 332 431 332 431 332 479.5 c 128,-1,79
 332 528 332 528 329 592 c 1,80,81
 325 594 325 594 317 594 c 128,-1,82
 309 594 309 594 303 592 c 1,83,84
 291 575 291 575 275 503 c 2,85,-1
 247 372 l 1,74,75
EndSplineSet
EndChar

StartChar: Ccedilla
Encoding: 199 199 136
Width: 466
GlyphClass: 2
Flags: W
LayerCount: 2
Fore
SplineSet
89 -33.5 m 128,-1,1
 148 -115 148 -115 270 -115 c 1,2,3
 340 -79 340 -79 395.5 -6.5 c 128,-1,4
 451 66 451 66 466 143 c 1,5,6
 406 133 406 133 341 132 c 1,7,-1
 334 127 l 1,8,9
 337 114 337 114 337 96 c 0,10,11
 337 19 337 19 310 -29 c 1,12,13
 276 -29 276 -29 252 -4 c 128,-1,14
 228 21 228 21 217 62 c 0,15,16
 197 138 197 138 197 224 c 0,17,18
 197 455 197 455 252 570 c 1,19,20
 288 570 288 570 365 512 c 2,21,-1
 386 496 l 1,22,23
 395 446 395 446 405 420 c 1,24,-1
 422 420 l 1,25,26
 422 473 422 473 437.5 540 c 128,-1,27
 453 607 453 607 480 643 c 1,28,-1
 473 657 l 1,29,30
 454 651 454 651 402 651 c 128,-1,31
 350 651 350 651 309 666 c 1,32,33
 171 588 171 588 100.5 465 c 128,-1,34
 30 342 30 342 30 195 c 128,-1,0
 30 48 30 48 89 -33.5 c 128,-1,1
361 -226 m 0,35,36
 361 -233 361 -233 360 -240 c 1,37,38
 313 -312 313 -312 239 -335 c 1,39,40
 186 -335 186 -335 138 -310 c 1,41,42
 155 -285 155 -285 176 -238 c 1,43,-1
 181 -236 l 1,44,45
 208 -276 208 -276 256 -276 c 0,46,47
 274 -276 274 -276 283 -272 c 1,48,49
 289 -264 289 -264 289 -246 c 0,50,51
 289 -201 289 -201 202 -201 c 1,52,-1
 195 -196 l 1,53,-1
 253 -83 l 1,54,-1
 298 -81 l 1,55,-1
 260 -138 l 1,56,-1
 264 -142 l 1,57,58
 312 -142 312 -142 336.5 -166 c 128,-1,59
 361 -190 361 -190 361 -226 c 0,35,36
EndSplineSet
EndChar

StartChar: Egrave
Encoding: 200 200 137
Width: 568
GlyphClass: 2
Flags: W
LayerCount: 2
Fore
SplineSet
538 200 m 0,0,1
 538 114 538 114 452.5 39.5 c 128,-1,2
 367 -35 367 -35 262 -72 c 1,3,4
 147 -72 147 -72 80.5 -19 c 128,-1,5
 14 34 14 34 14 123 c 128,-1,6
 14 212 14 212 69 270 c 128,-1,7
 124 328 124 328 210 346 c 1,8,9
 222 346 222 346 255 341 c 1,10,-1
 256 348 l 1,11,12
 98 379 98 379 98 476 c 1,13,14
 148 541 148 541 213 593.5 c 128,-1,15
 278 646 278 646 345 666 c 1,16,17
 436 666 436 666 497 630 c 1,18,19
 454 566 454 566 439 489 c 1,20,-1
 430 489 l 1,21,22
 394 526 394 526 362.5 546.5 c 128,-1,23
 331 567 331 567 293 567 c 0,24,25
 279 567 279 567 264 564 c 1,26,27
 258 549 258 549 258 524 c 0,28,29
 258 454 258 454 282.5 417 c 128,-1,30
 307 380 307 380 370 371 c 1,31,-1
 364 333 l 1,32,33
 276 333 276 333 229 288.5 c 128,-1,34
 182 244 182 244 182 157 c 0,35,36
 182 97 182 97 209.5 56.5 c 128,-1,37
 237 16 237 16 286 16 c 128,-1,38
 335 16 335 16 355 31 c 1,39,40
 390 80 390 80 390 166 c 0,41,42
 390 204 390 204 381.5 225.5 c 128,-1,43
 373 247 373 247 345 247 c 0,44,45
 337 247 337 247 329 245 c 1,46,47
 326 234 326 234 326 221 c 0,48,49
 326 181 326 181 348 159 c 1,50,-1
 348 151 l 1,51,52
 307 127 307 127 280 78 c 1,53,54
 245 78 245 78 245 141 c 0,55,56
 245 221 245 221 299 268.5 c 128,-1,57
 353 316 353 316 439 324 c 1,58,59
 491 311 491 311 514.5 282 c 128,-1,60
 538 253 538 253 538 200 c 0,0,1
128 905 m 1,61,62
 139 907 139 907 153.5 907 c 128,-1,63
 168 907 168 907 182 906 c 1,64,65
 200 874 200 874 240 841.5 c 128,-1,66
 280 809 280 809 307 793.5 c 128,-1,67
 334 778 334 778 386 751 c 1,68,-1
 375 726 l 1,69,-1
 101 802 l 1,70,71
 101 819 101 819 110 857.5 c 128,-1,72
 119 896 119 896 128 905 c 1,61,62
EndSplineSet
EndChar

StartChar: Eacute
Encoding: 201 201 138
Width: 568
GlyphClass: 2
Flags: W
LayerCount: 2
Fore
SplineSet
538 200 m 0,0,1
 538 114 538 114 452.5 39.5 c 128,-1,2
 367 -35 367 -35 262 -72 c 1,3,4
 147 -72 147 -72 80.5 -19 c 128,-1,5
 14 34 14 34 14 123 c 128,-1,6
 14 212 14 212 69 270 c 128,-1,7
 124 328 124 328 210 346 c 1,8,9
 222 346 222 346 255 341 c 1,10,-1
 256 348 l 1,11,12
 98 379 98 379 98 476 c 1,13,14
 148 541 148 541 213 593.5 c 128,-1,15
 278 646 278 646 345 666 c 1,16,17
 436 666 436 666 497 630 c 1,18,19
 454 566 454 566 439 489 c 1,20,-1
 430 489 l 1,21,22
 394 526 394 526 362.5 546.5 c 128,-1,23
 331 567 331 567 293 567 c 0,24,25
 279 567 279 567 264 564 c 1,26,27
 258 549 258 549 258 524 c 0,28,29
 258 454 258 454 282.5 417 c 128,-1,30
 307 380 307 380 370 371 c 1,31,-1
 364 333 l 1,32,33
 276 333 276 333 229 288.5 c 128,-1,34
 182 244 182 244 182 157 c 0,35,36
 182 97 182 97 209.5 56.5 c 128,-1,37
 237 16 237 16 286 16 c 128,-1,38
 335 16 335 16 355 31 c 1,39,40
 390 80 390 80 390 166 c 0,41,42
 390 204 390 204 381.5 225.5 c 128,-1,43
 373 247 373 247 345 247 c 0,44,45
 337 247 337 247 329 245 c 1,46,47
 326 234 326 234 326 221 c 0,48,49
 326 181 326 181 348 159 c 1,50,-1
 348 151 l 1,51,52
 307 127 307 127 280 78 c 1,53,54
 245 78 245 78 245 141 c 0,55,56
 245 221 245 221 299 268.5 c 128,-1,57
 353 316 353 316 439 324 c 1,58,59
 491 311 491 311 514.5 282 c 128,-1,60
 538 253 538 253 538 200 c 0,0,1
481 906 m 1,61,62
 495 907 495 907 509.5 907 c 128,-1,63
 524 907 524 907 535 905 c 1,64,65
 544 896 544 896 553 857.5 c 128,-1,66
 562 819 562 819 562 802 c 1,67,-1
 288 726 l 1,68,-1
 277 751 l 1,69,70
 329 778 329 778 356 793.5 c 128,-1,71
 383 809 383 809 423 841.5 c 128,-1,72
 463 874 463 874 481 906 c 1,61,62
EndSplineSet
EndChar

StartChar: Ecircumflex
Encoding: 202 202 139
Width: 568
GlyphClass: 2
Flags: W
LayerCount: 2
Fore
SplineSet
538 200 m 0,0,1
 538 114 538 114 452.5 39.5 c 128,-1,2
 367 -35 367 -35 262 -72 c 1,3,4
 147 -72 147 -72 80.5 -19 c 128,-1,5
 14 34 14 34 14 123 c 128,-1,6
 14 212 14 212 69 270 c 128,-1,7
 124 328 124 328 210 346 c 1,8,9
 222 346 222 346 255 341 c 1,10,-1
 256 348 l 1,11,12
 98 379 98 379 98 476 c 1,13,14
 148 541 148 541 213 593.5 c 128,-1,15
 278 646 278 646 345 666 c 1,16,17
 436 666 436 666 497 630 c 1,18,19
 454 566 454 566 439 489 c 1,20,-1
 430 489 l 1,21,22
 394 526 394 526 362.5 546.5 c 128,-1,23
 331 567 331 567 293 567 c 0,24,25
 279 567 279 567 264 564 c 1,26,27
 258 549 258 549 258 524 c 0,28,29
 258 454 258 454 282.5 417 c 128,-1,30
 307 380 307 380 370 371 c 1,31,-1
 364 333 l 1,32,33
 276 333 276 333 229 288.5 c 128,-1,34
 182 244 182 244 182 157 c 0,35,36
 182 97 182 97 209.5 56.5 c 128,-1,37
 237 16 237 16 286 16 c 128,-1,38
 335 16 335 16 355 31 c 1,39,40
 390 80 390 80 390 166 c 0,41,42
 390 204 390 204 381.5 225.5 c 128,-1,43
 373 247 373 247 345 247 c 0,44,45
 337 247 337 247 329 245 c 1,46,47
 326 234 326 234 326 221 c 0,48,49
 326 181 326 181 348 159 c 1,50,-1
 348 151 l 1,51,52
 307 127 307 127 280 78 c 1,53,54
 245 78 245 78 245 141 c 0,55,56
 245 221 245 221 299 268.5 c 128,-1,57
 353 316 353 316 439 324 c 1,58,59
 491 311 491 311 514.5 282 c 128,-1,60
 538 253 538 253 538 200 c 0,0,1
537 726 m 1,61,-1
 331 786 l 1,62,-1
 145 726 l 1,63,-1
 134 751 l 1,64,65
 282 828 282 828 328 906 c 1,66,-1
 374 906 l 1,67,68
 429 813 429 813 548 751 c 1,69,-1
 537 726 l 1,61,-1
EndSplineSet
EndChar

StartChar: Edieresis
Encoding: 203 203 140
Width: 568
GlyphClass: 2
Flags: W
LayerCount: 2
Fore
SplineSet
538 200 m 0,0,1
 538 114 538 114 452.5 39.5 c 128,-1,2
 367 -35 367 -35 262 -72 c 1,3,4
 147 -72 147 -72 80.5 -19 c 128,-1,5
 14 34 14 34 14 123 c 128,-1,6
 14 212 14 212 69 270 c 128,-1,7
 124 328 124 328 210 346 c 1,8,9
 222 346 222 346 255 341 c 1,10,-1
 256 348 l 1,11,12
 98 379 98 379 98 476 c 1,13,14
 148 541 148 541 213 593.5 c 128,-1,15
 278 646 278 646 345 666 c 1,16,17
 436 666 436 666 497 630 c 1,18,19
 454 566 454 566 439 489 c 1,20,-1
 430 489 l 1,21,22
 394 526 394 526 362.5 546.5 c 128,-1,23
 331 567 331 567 293 567 c 0,24,25
 279 567 279 567 264 564 c 1,26,27
 258 549 258 549 258 524 c 0,28,29
 258 454 258 454 282.5 417 c 128,-1,30
 307 380 307 380 370 371 c 1,31,-1
 364 333 l 1,32,33
 276 333 276 333 229 288.5 c 128,-1,34
 182 244 182 244 182 157 c 0,35,36
 182 97 182 97 209.5 56.5 c 128,-1,37
 237 16 237 16 286 16 c 128,-1,38
 335 16 335 16 355 31 c 1,39,40
 390 80 390 80 390 166 c 0,41,42
 390 204 390 204 381.5 225.5 c 128,-1,43
 373 247 373 247 345 247 c 0,44,45
 337 247 337 247 329 245 c 1,46,47
 326 234 326 234 326 221 c 0,48,49
 326 181 326 181 348 159 c 1,50,-1
 348 151 l 1,51,52
 307 127 307 127 280 78 c 1,53,54
 245 78 245 78 245 141 c 0,55,56
 245 221 245 221 299 268.5 c 128,-1,57
 353 316 353 316 439 324 c 1,58,59
 491 311 491 311 514.5 282 c 128,-1,60
 538 253 538 253 538 200 c 0,0,1
313 814 m 1,61,62
 298 791 298 791 268.5 759 c 128,-1,63
 239 727 239 727 218 712 c 1,64,65
 178 742 178 742 143 814 c 1,66,67
 154 834 154 834 183 859 c 128,-1,68
 212 884 212 884 236 896 c 1,69,70
 275 871 275 871 313 814 c 1,61,62
534 814 m 1,71,72
 519 791 519 791 489.5 759 c 128,-1,73
 460 727 460 727 439 712 c 1,74,75
 399 742 399 742 364 814 c 1,76,77
 375 834 375 834 404 859 c 128,-1,78
 433 884 433 884 457 896 c 1,79,80
 496 871 496 871 534 814 c 1,71,72
EndSplineSet
EndChar

StartChar: Igrave
Encoding: 204 204 141
Width: 344
GlyphClass: 2
Flags: W
LayerCount: 2
Fore
SplineSet
265 453 m 128,-1,1
 253 308 253 308 253 188 c 128,-1,2
 253 68 253 68 268 0 c 1,3,4
 135 -4 135 -4 81 -15 c 1,5,-1
 75 -10 l 1,6,7
 89 49 89 49 99.5 190 c 128,-1,8
 110 331 110 331 110 411 c 128,-1,9
 110 491 110 491 108 561 c 1,10,11
 129 568 129 568 163 576 c 1,12,-1
 164 583 l 1,13,14
 50 583 50 583 16 551 c 1,15,16
 14 543 14 543 14 535 c 0,17,18
 14 503 14 503 28 482 c 1,19,-1
 28 474 l 1,20,21
 -14 439 -14 439 -40 389 c 1,22,23
 -57 389 -57 389 -65.5 403.5 c 128,-1,24
 -74 418 -74 418 -74 438 c 0,25,26
 -74 514 -74 514 -19.5 572 c 128,-1,27
 35 630 35 630 117 660 c 1,28,29
 150 653 150 653 197 653 c 128,-1,30
 244 653 244 653 286 664 c 1,31,-1
 292 659 l 1,32,0
 277 598 277 598 265 453 c 128,-1,1
5 905 m 1,33,34
 16 907 16 907 30.5 907 c 128,-1,35
 45 907 45 907 59 906 c 1,36,37
 77 874 77 874 117 841.5 c 128,-1,38
 157 809 157 809 184 793.5 c 128,-1,39
 211 778 211 778 263 751 c 1,40,-1
 252 726 l 1,41,-1
 -22 802 l 1,42,43
 -22 819 -22 819 -13 857.5 c 128,-1,44
 -4 896 -4 896 5 905 c 1,33,34
EndSplineSet
EndChar

StartChar: Iacute
Encoding: 205 205 142
Width: 344
GlyphClass: 2
Flags: W
LayerCount: 2
Fore
SplineSet
265 453 m 128,-1,1
 253 308 253 308 253 188 c 128,-1,2
 253 68 253 68 268 0 c 1,3,4
 135 -4 135 -4 81 -15 c 1,5,-1
 75 -10 l 1,6,7
 89 49 89 49 99.5 190 c 128,-1,8
 110 331 110 331 110 411 c 128,-1,9
 110 491 110 491 108 561 c 1,10,11
 129 568 129 568 163 576 c 1,12,-1
 164 583 l 1,13,14
 50 583 50 583 16 551 c 1,15,16
 14 543 14 543 14 535 c 0,17,18
 14 503 14 503 28 482 c 1,19,-1
 28 474 l 1,20,21
 -14 439 -14 439 -40 389 c 1,22,23
 -57 389 -57 389 -65.5 403.5 c 128,-1,24
 -74 418 -74 418 -74 438 c 0,25,26
 -74 514 -74 514 -19.5 572 c 128,-1,27
 35 630 35 630 117 660 c 1,28,29
 150 653 150 653 197 653 c 128,-1,30
 244 653 244 653 286 664 c 1,31,-1
 292 659 l 1,32,0
 277 598 277 598 265 453 c 128,-1,1
318 906 m 1,33,34
 332 907 332 907 346.5 907 c 128,-1,35
 361 907 361 907 372 905 c 1,36,37
 381 896 381 896 390 857.5 c 128,-1,38
 399 819 399 819 399 802 c 1,39,-1
 125 726 l 1,40,-1
 114 751 l 1,41,42
 166 778 166 778 193 793.5 c 128,-1,43
 220 809 220 809 260 841.5 c 128,-1,44
 300 874 300 874 318 906 c 1,33,34
EndSplineSet
EndChar

StartChar: Icircumflex
Encoding: 206 206 143
Width: 344
GlyphClass: 2
Flags: W
LayerCount: 2
Fore
SplineSet
265 453 m 128,-1,1
 253 308 253 308 253 188 c 128,-1,2
 253 68 253 68 268 0 c 1,3,4
 135 -4 135 -4 81 -15 c 1,5,-1
 75 -10 l 1,6,7
 89 49 89 49 99.5 190 c 128,-1,8
 110 331 110 331 110 411 c 128,-1,9
 110 491 110 491 108 561 c 1,10,11
 129 568 129 568 163 576 c 1,12,-1
 164 583 l 1,13,14
 50 583 50 583 16 551 c 1,15,16
 14 543 14 543 14 535 c 0,17,18
 14 503 14 503 28 482 c 1,19,-1
 28 474 l 1,20,21
 -14 439 -14 439 -40 389 c 1,22,23
 -57 389 -57 389 -65.5 403.5 c 128,-1,24
 -74 418 -74 418 -74 438 c 0,25,26
 -74 514 -74 514 -19.5 572 c 128,-1,27
 35 630 35 630 117 660 c 1,28,29
 150 653 150 653 197 653 c 128,-1,30
 244 653 244 653 286 664 c 1,31,-1
 292 659 l 1,32,0
 277 598 277 598 265 453 c 128,-1,1
394 726 m 1,33,-1
 188 786 l 1,34,-1
 2 726 l 1,35,-1
 -9 751 l 1,36,37
 139 828 139 828 185 906 c 1,38,-1
 231 906 l 1,39,40
 286 813 286 813 405 751 c 1,41,-1
 394 726 l 1,33,-1
EndSplineSet
EndChar

StartChar: Idieresis
Encoding: 207 207 144
Width: 344
GlyphClass: 2
Flags: W
LayerCount: 2
Fore
SplineSet
265 453 m 128,-1,1
 253 308 253 308 253 188 c 128,-1,2
 253 68 253 68 268 0 c 1,3,4
 135 -4 135 -4 81 -15 c 1,5,-1
 75 -10 l 1,6,7
 89 49 89 49 99.5 190 c 128,-1,8
 110 331 110 331 110 411 c 128,-1,9
 110 491 110 491 108 561 c 1,10,11
 129 568 129 568 163 576 c 1,12,-1
 164 583 l 1,13,14
 50 583 50 583 16 551 c 1,15,16
 14 543 14 543 14 535 c 0,17,18
 14 503 14 503 28 482 c 1,19,-1
 28 474 l 1,20,21
 -14 439 -14 439 -40 389 c 1,22,23
 -57 389 -57 389 -65.5 403.5 c 128,-1,24
 -74 418 -74 418 -74 438 c 0,25,26
 -74 514 -74 514 -19.5 572 c 128,-1,27
 35 630 35 630 117 660 c 1,28,29
 150 653 150 653 197 653 c 128,-1,30
 244 653 244 653 286 664 c 1,31,-1
 292 659 l 1,32,0
 277 598 277 598 265 453 c 128,-1,1
170 814 m 1,33,34
 155 791 155 791 125.5 759 c 128,-1,35
 96 727 96 727 75 712 c 1,36,37
 35 742 35 742 0 814 c 1,38,39
 11 834 11 834 40 859 c 128,-1,40
 69 884 69 884 93 896 c 1,41,42
 132 871 132 871 170 814 c 1,33,34
391 814 m 1,43,44
 376 791 376 791 346.5 759 c 128,-1,45
 317 727 317 727 296 712 c 1,46,47
 256 742 256 742 221 814 c 1,48,49
 232 834 232 834 261 859 c 128,-1,50
 290 884 290 884 314 896 c 1,51,52
 353 871 353 871 391 814 c 1,43,44
EndSplineSet
EndChar

StartChar: Eth
Encoding: 208 208 145
Width: 602
GlyphClass: 2
Flags: W
LayerCount: 2
Fore
SplineSet
35 651 m 1,0,-1
 309 662 l 1,1,2
 448 662 448 662 510 595.5 c 128,-1,3
 572 529 572 529 572 384.5 c 128,-1,4
 572 240 572 240 483 132 c 128,-1,5
 394 24 394 24 249 -15 c 1,6,-1
 218 -7 l 2,7,8
 149 11 149 11 114 11 c 128,-1,9
 79 11 79 11 59 7 c 1,10,-1
 53 20 l 1,11,12
 74 42 74 42 81 99 c 1,13,14
 91 195 91 195 96 310 c 1,15,-1
 15 303 l 1,16,-1
 7 309 l 1,17,18
 30 330 30 330 42 358 c 1,19,-1
 97 358 l 1,20,21
 99 426 99 426 99 494 c 128,-1,22
 99 562 99 562 91 616 c 1,23,24
 57 622 57 622 34 633 c 1,25,-1
 35 651 l 1,0,-1
248 324 m 1,26,27
 246 276 246 276 246 204 c 128,-1,28
 246 132 246 132 251 82 c 1,29,30
 266 73 266 73 304 73 c 128,-1,31
 342 73 342 73 366 94 c 1,32,33
 386 136 386 136 397 205.5 c 128,-1,34
 408 275 408 275 408 320.5 c 128,-1,35
 408 366 408 366 407.5 383.5 c 128,-1,36
 407 401 407 401 405 433.5 c 128,-1,37
 403 466 403 466 399.5 486 c 128,-1,38
 396 506 396 506 388 531 c 128,-1,39
 380 556 380 556 369 570 c 128,-1,40
 358 584 358 584 340.5 594 c 128,-1,41
 323 604 323 604 301 604 c 128,-1,42
 279 604 279 604 264 598 c 1,43,44
 255 498 255 498 250 369 c 1,45,46
 313 375 313 375 355 383 c 1,47,-1
 361 378 l 1,48,49
 348 358 348 358 336 332 c 1,50,-1
 248 324 l 1,26,27
EndSplineSet
EndChar

StartChar: Ntilde
Encoding: 209 209 146
Width: 624
GlyphClass: 2
Flags: W
LayerCount: 2
Fore
SplineSet
560 466.5 m 128,-1,1
 549 333 549 333 549 210.5 c 128,-1,2
 549 88 549 88 564 0 c 1,3,4
 558 -1 558 -1 514 -3 c 0,5,6
 391 -9 391 -9 378 -13 c 1,7,-1
 371 -10 l 1,8,9
 319 170 319 170 210 407 c 0,10,11
 185 461 185 461 167 485 c 1,12,-1
 163 483 l 1,13,14
 163 306 163 306 172 172 c 128,-1,15
 181 38 181 38 189 0 c 1,16,17
 105 -5 105 -5 65 -15 c 1,18,-1
 59 -10 l 1,19,20
 73 49 73 49 83 189 c 128,-1,21
 93 329 93 329 93 410 c 128,-1,22
 93 491 93 491 91 561 c 1,23,24
 112 568 112 568 146 576 c 1,25,-1
 147 583 l 1,26,27
 33 583 33 583 -1 551 c 1,28,29
 -3 543 -3 543 -3 535 c 0,30,31
 -3 503 -3 503 11 482 c 1,32,-1
 11 474 l 1,33,34
 -31 439 -31 439 -57 389 c 1,35,36
 -74 389 -74 389 -82.5 403.5 c 128,-1,37
 -91 418 -91 418 -91 438 c 0,38,39
 -91 514 -91 514 -36.5 572 c 128,-1,40
 18 630 18 630 100 660 c 1,41,42
 133 653 133 653 187.5 653 c 128,-1,43
 242 653 242 653 284 664 c 1,44,-1
 290 659 l 1,45,46
 307 571 307 571 352.5 445.5 c 128,-1,47
 398 320 398 320 444 239 c 2,48,-1
 478 179 l 1,49,-1
 481 180 l 1,50,51
 481 357 481 357 472 484.5 c 128,-1,52
 463 612 463 612 455 651 c 1,53,54
 540 656 540 656 579 666 c 1,55,-1
 585 661 l 1,56,0
 571 600 571 600 560 466.5 c 128,-1,1
460 832 m 0,57,58
 509 832 509 832 543 867 c 1,59,-1
 567 850 l 1,60,61
 503 762 503 762 427 731 c 1,62,63
 402 731 402 731 335.5 755 c 128,-1,64
 269 779 269 779 244 779 c 0,65,66
 196 779 196 779 163 744 c 1,67,-1
 138 761 l 1,68,69
 164 797 164 797 212.5 830.5 c 128,-1,70
 261 864 261 864 310 880 c 1,71,72
 383 832 383 832 460 832 c 0,57,58
EndSplineSet
EndChar

StartChar: Ograve
Encoding: 210 210 147
Width: 588
GlyphClass: 2
Flags: W
LayerCount: 2
Fore
SplineSet
198 282 m 1,0,1
 137 314 137 314 137 406 c 128,-1,2
 137 498 137 498 189.5 568 c 128,-1,3
 242 638 242 638 324 666 c 1,4,5
 558 666 558 666 558 413 c 0,6,7
 558 277 558 277 474 152 c 128,-1,8
 390 27 390 27 265 -15 c 1,9,10
 154 -15 154 -15 92 54 c 128,-1,11
 30 123 30 123 30 234 c 128,-1,12
 30 345 30 345 82 446 c 0,13,14
 105 490 105 490 131 523 c 1,15,-1
 146 516 l 1,16,17
 120 467 120 467 120 412 c 0,18,19
 120 304 120 304 197 255 c 1,20,21
 197 177 197 177 219.5 122.5 c 128,-1,22
 242 68 242 68 288 68 c 0,23,24
 318 68 318 68 337 79 c 1,25,26
 364 133 364 133 377.5 225.5 c 128,-1,27
 391 318 391 318 391 396 c 0,28,29
 391 582 391 582 300 582 c 0,30,31
 269 582 269 582 250 571 c 1,32,33
 215 522 215 522 215 436 c 0,34,35
 215 398 215 398 223.5 376.5 c 128,-1,36
 232 355 232 355 260 355 c 0,37,38
 268 355 268 355 276 357 c 1,39,40
 279 368 279 368 279 381 c 0,41,42
 279 421 279 421 257 443 c 1,43,-1
 257 451 l 1,44,45
 301 481 301 481 325 524 c 1,46,47
 361 524 361 524 361 458.5 c 128,-1,48
 361 393 361 393 316.5 345.5 c 128,-1,49
 272 298 272 298 198 282 c 1,0,1
121 905 m 1,50,51
 132 907 132 907 146.5 907 c 128,-1,52
 161 907 161 907 175 906 c 1,53,54
 193 874 193 874 233 841.5 c 128,-1,55
 273 809 273 809 300 793.5 c 128,-1,56
 327 778 327 778 379 751 c 1,57,-1
 368 726 l 1,58,-1
 94 802 l 1,59,60
 94 819 94 819 103 857.5 c 128,-1,61
 112 896 112 896 121 905 c 1,50,51
EndSplineSet
EndChar

StartChar: Oacute
Encoding: 211 211 148
Width: 588
GlyphClass: 2
Flags: W
LayerCount: 2
Fore
SplineSet
198 282 m 1,0,1
 137 314 137 314 137 406 c 128,-1,2
 137 498 137 498 189.5 568 c 128,-1,3
 242 638 242 638 324 666 c 1,4,5
 558 666 558 666 558 413 c 0,6,7
 558 277 558 277 474 152 c 128,-1,8
 390 27 390 27 265 -15 c 1,9,10
 154 -15 154 -15 92 54 c 128,-1,11
 30 123 30 123 30 234 c 128,-1,12
 30 345 30 345 82 446 c 0,13,14
 105 490 105 490 131 523 c 1,15,-1
 146 516 l 1,16,17
 120 467 120 467 120 412 c 0,18,19
 120 304 120 304 197 255 c 1,20,21
 197 177 197 177 219.5 122.5 c 128,-1,22
 242 68 242 68 288 68 c 0,23,24
 318 68 318 68 337 79 c 1,25,26
 364 133 364 133 377.5 225.5 c 128,-1,27
 391 318 391 318 391 396 c 0,28,29
 391 582 391 582 300 582 c 0,30,31
 269 582 269 582 250 571 c 1,32,33
 215 522 215 522 215 436 c 0,34,35
 215 398 215 398 223.5 376.5 c 128,-1,36
 232 355 232 355 260 355 c 0,37,38
 268 355 268 355 276 357 c 1,39,40
 279 368 279 368 279 381 c 0,41,42
 279 421 279 421 257 443 c 1,43,-1
 257 451 l 1,44,45
 301 481 301 481 325 524 c 1,46,47
 361 524 361 524 361 458.5 c 128,-1,48
 361 393 361 393 316.5 345.5 c 128,-1,49
 272 298 272 298 198 282 c 1,0,1
474 906 m 1,50,51
 488 907 488 907 502.5 907 c 128,-1,52
 517 907 517 907 528 905 c 1,53,54
 537 896 537 896 546 857.5 c 128,-1,55
 555 819 555 819 555 802 c 1,56,-1
 281 726 l 1,57,-1
 270 751 l 1,58,59
 322 778 322 778 349 793.5 c 128,-1,60
 376 809 376 809 416 841.5 c 128,-1,61
 456 874 456 874 474 906 c 1,50,51
EndSplineSet
EndChar

StartChar: Ocircumflex
Encoding: 212 212 149
Width: 588
GlyphClass: 2
Flags: W
LayerCount: 2
Fore
SplineSet
198 282 m 1,0,1
 137 314 137 314 137 406 c 128,-1,2
 137 498 137 498 189.5 568 c 128,-1,3
 242 638 242 638 324 666 c 1,4,5
 558 666 558 666 558 413 c 0,6,7
 558 277 558 277 474 152 c 128,-1,8
 390 27 390 27 265 -15 c 1,9,10
 154 -15 154 -15 92 54 c 128,-1,11
 30 123 30 123 30 234 c 128,-1,12
 30 345 30 345 82 446 c 0,13,14
 105 490 105 490 131 523 c 1,15,-1
 146 516 l 1,16,17
 120 467 120 467 120 412 c 0,18,19
 120 304 120 304 197 255 c 1,20,21
 197 177 197 177 219.5 122.5 c 128,-1,22
 242 68 242 68 288 68 c 0,23,24
 318 68 318 68 337 79 c 1,25,26
 364 133 364 133 377.5 225.5 c 128,-1,27
 391 318 391 318 391 396 c 0,28,29
 391 582 391 582 300 582 c 0,30,31
 269 582 269 582 250 571 c 1,32,33
 215 522 215 522 215 436 c 0,34,35
 215 398 215 398 223.5 376.5 c 128,-1,36
 232 355 232 355 260 355 c 0,37,38
 268 355 268 355 276 357 c 1,39,40
 279 368 279 368 279 381 c 0,41,42
 279 421 279 421 257 443 c 1,43,-1
 257 451 l 1,44,45
 301 481 301 481 325 524 c 1,46,47
 361 524 361 524 361 458.5 c 128,-1,48
 361 393 361 393 316.5 345.5 c 128,-1,49
 272 298 272 298 198 282 c 1,0,1
530 726 m 1,50,-1
 324 786 l 1,51,-1
 138 726 l 1,52,-1
 127 751 l 1,53,54
 275 828 275 828 321 906 c 1,55,-1
 367 906 l 1,56,57
 422 813 422 813 541 751 c 1,58,-1
 530 726 l 1,50,-1
EndSplineSet
EndChar

StartChar: Otilde
Encoding: 213 213 150
Width: 588
GlyphClass: 2
Flags: W
LayerCount: 2
Fore
SplineSet
198 282 m 1,0,1
 137 314 137 314 137 406 c 128,-1,2
 137 498 137 498 189.5 568 c 128,-1,3
 242 638 242 638 324 666 c 1,4,5
 558 666 558 666 558 413 c 0,6,7
 558 277 558 277 474 152 c 128,-1,8
 390 27 390 27 265 -15 c 1,9,10
 154 -15 154 -15 92 54 c 128,-1,11
 30 123 30 123 30 234 c 128,-1,12
 30 345 30 345 82 446 c 0,13,14
 105 490 105 490 131 523 c 1,15,-1
 146 516 l 1,16,17
 120 467 120 467 120 412 c 0,18,19
 120 304 120 304 197 255 c 1,20,21
 197 177 197 177 219.5 122.5 c 128,-1,22
 242 68 242 68 288 68 c 0,23,24
 318 68 318 68 337 79 c 1,25,26
 364 133 364 133 377.5 225.5 c 128,-1,27
 391 318 391 318 391 396 c 0,28,29
 391 582 391 582 300 582 c 0,30,31
 269 582 269 582 250 571 c 1,32,33
 215 522 215 522 215 436 c 0,34,35
 215 398 215 398 223.5 376.5 c 128,-1,36
 232 355 232 355 260 355 c 0,37,38
 268 355 268 355 276 357 c 1,39,40
 279 368 279 368 279 381 c 0,41,42
 279 421 279 421 257 443 c 1,43,-1
 257 451 l 1,44,45
 301 481 301 481 325 524 c 1,46,47
 361 524 361 524 361 458.5 c 128,-1,48
 361 393 361 393 316.5 345.5 c 128,-1,49
 272 298 272 298 198 282 c 1,0,1
435 832 m 0,50,51
 484 832 484 832 518 867 c 1,52,-1
 542 850 l 1,53,54
 478 762 478 762 402 731 c 1,55,56
 377 731 377 731 310.5 755 c 128,-1,57
 244 779 244 779 219 779 c 0,58,59
 171 779 171 779 138 744 c 1,60,-1
 113 761 l 1,61,62
 139 797 139 797 187.5 830.5 c 128,-1,63
 236 864 236 864 285 880 c 1,64,65
 358 832 358 832 435 832 c 0,50,51
EndSplineSet
EndChar

StartChar: Odieresis
Encoding: 214 214 151
Width: 588
GlyphClass: 2
Flags: W
LayerCount: 2
Fore
SplineSet
198 282 m 1,0,1
 137 314 137 314 137 406 c 128,-1,2
 137 498 137 498 189.5 568 c 128,-1,3
 242 638 242 638 324 666 c 1,4,5
 558 666 558 666 558 413 c 0,6,7
 558 277 558 277 474 152 c 128,-1,8
 390 27 390 27 265 -15 c 1,9,10
 154 -15 154 -15 92 54 c 128,-1,11
 30 123 30 123 30 234 c 128,-1,12
 30 345 30 345 82 446 c 0,13,14
 105 490 105 490 131 523 c 1,15,-1
 146 516 l 1,16,17
 120 467 120 467 120 412 c 0,18,19
 120 304 120 304 197 255 c 1,20,21
 197 177 197 177 219.5 122.5 c 128,-1,22
 242 68 242 68 288 68 c 0,23,24
 318 68 318 68 337 79 c 1,25,26
 364 133 364 133 377.5 225.5 c 128,-1,27
 391 318 391 318 391 396 c 0,28,29
 391 582 391 582 300 582 c 0,30,31
 269 582 269 582 250 571 c 1,32,33
 215 522 215 522 215 436 c 0,34,35
 215 398 215 398 223.5 376.5 c 128,-1,36
 232 355 232 355 260 355 c 0,37,38
 268 355 268 355 276 357 c 1,39,40
 279 368 279 368 279 381 c 0,41,42
 279 421 279 421 257 443 c 1,43,-1
 257 451 l 1,44,45
 301 481 301 481 325 524 c 1,46,47
 361 524 361 524 361 458.5 c 128,-1,48
 361 393 361 393 316.5 345.5 c 128,-1,49
 272 298 272 298 198 282 c 1,0,1
306 814 m 1,50,51
 291 791 291 791 261.5 759 c 128,-1,52
 232 727 232 727 211 712 c 1,53,54
 171 742 171 742 136 814 c 1,55,56
 147 834 147 834 176 859 c 128,-1,57
 205 884 205 884 229 896 c 1,58,59
 268 871 268 871 306 814 c 1,50,51
527 814 m 1,60,61
 512 791 512 791 482.5 759 c 128,-1,62
 453 727 453 727 432 712 c 1,63,64
 392 742 392 742 357 814 c 1,65,66
 368 834 368 834 397 859 c 128,-1,67
 426 884 426 884 450 896 c 1,68,69
 489 871 489 871 527 814 c 1,60,61
EndSplineSet
EndChar

StartChar: multiply
Encoding: 215 215 152
Width: 576
GlyphClass: 2
Flags: W
LayerCount: 2
Fore
SplineSet
77 91 m 1,0,1
 182 179 182 179 241 239 c 1,2,-1
 87 392 l 1,3,-1
 139 442 l 1,4,-1
 147 441 l 1,5,6
 172 413 172 413 291 288 c 1,7,-1
 429 440 l 1,8,-1
 437 441 l 1,9,-1
 489 393 l 1,10,-1
 333 241 l 1,11,12
 386 186 386 186 499 92 c 1,13,-1
 457 38 l 1,14,-1
 446 39 l 1,15,-1
 286 195 l 1,16,-1
 130 38 l 1,17,-1
 119 38 l 1,18,-1
 77 91 l 1,0,1
EndSplineSet
EndChar

StartChar: Oslash
Encoding: 216 216 153
Width: 588
GlyphClass: 2
Flags: W
LayerCount: 2
Fore
SplineSet
30 238 m 0,0,1
 30 377 30 377 112 497 c 128,-1,2
 194 617 194 617 324 666 c 1,3,4
 363 666 363 666 398 658 c 1,5,6
 403 671 403 671 410 697 c 128,-1,7
 417 723 417 723 420 732 c 1,8,9
 449 734 449 734 467 741 c 1,10,-1
 471 737 l 1,11,12
 452 696 452 696 433 648 c 1,13,14
 558 599 558 599 558 413 c 0,15,16
 558 277 558 277 474 152 c 128,-1,17
 390 27 390 27 265 -15 c 1,18,19
 224 -15 224 -15 183 -3 c 1,20,-1
 153 -87 l 1,21,-1
 147 -87 l 1,22,23
 120 -69 120 -69 113 -55 c 1,24,-1
 144 12 l 1,25,26
 30 74 30 74 30 238 c 0,0,1
377.5 225.5 m 128,-1,28
 391 318 391 318 391 389.5 c 128,-1,29
 391 461 391 461 379 507 c 1,30,-1
 226 110 l 1,31,32
 249 68 249 68 283.5 68 c 128,-1,33
 318 68 318 68 337 79 c 1,34,27
 364 133 364 133 377.5 225.5 c 128,-1,28
197 255 m 0,35,36
 197 207 197 207 206 165 c 1,37,-1
 358 553 l 1,38,39
 335 582 335 582 302 582 c 128,-1,40
 269 582 269 582 250 571 c 1,41,42
 197 436 197 436 197 255 c 0,35,36
EndSplineSet
EndChar

StartChar: Ugrave
Encoding: 217 217 154
Width: 641
GlyphClass: 2
Flags: W
LayerCount: 2
Fore
SplineSet
85 205 m 1,0,-1
 100 457 l 1,1,2
 100 491 100 491 98 561 c 1,3,4
 119 568 119 568 153 576 c 1,5,-1
 154 583 l 1,6,7
 40 583 40 583 6 551 c 1,8,9
 4 543 4 543 4 535 c 0,10,11
 4 503 4 503 18 482 c 1,12,-1
 18 474 l 1,13,14
 -24 439 -24 439 -50 389 c 1,15,16
 -67 389 -67 389 -75.5 403.5 c 128,-1,17
 -84 418 -84 418 -84 438 c 0,18,19
 -84 514 -84 514 -29.5 572 c 128,-1,20
 25 630 25 630 107 660 c 1,21,22
 140 653 140 653 186 653 c 128,-1,23
 232 653 232 653 274 664 c 1,24,-1
 280 659 l 1,25,26
 265 592 265 592 253.5 479.5 c 128,-1,27
 242 367 242 367 242 297 c 128,-1,28
 242 227 242 227 243 202.5 c 128,-1,29
 244 178 244 178 249 147 c 0,30,31
 259 88 259 88 298 80 c 1,32,33
 361 125 361 125 396 200 c 1,34,35
 403 316 403 316 403 457 c 128,-1,36
 403 598 403 598 392 649 c 1,37,38
 526 653 526 653 579 664 c 1,39,-1
 585 659 l 1,40,41
 569 587 569 587 559.5 447 c 128,-1,42
 550 307 550 307 550 179 c 128,-1,43
 550 51 550 51 561 0 c 1,44,45
 430 -6 430 -6 387 -15 c 1,46,-1
 380 -10 l 1,47,48
 399 62 399 62 406 125 c 1,49,-1
 402 126 l 1,50,51
 346 22 346 22 263 -15 c 1,52,53
 165 -13 165 -13 125 42 c 128,-1,54
 85 97 85 97 85 205 c 1,0,-1
130 905 m 1,55,56
 141 907 141 907 155.5 907 c 128,-1,57
 170 907 170 907 184 906 c 1,58,59
 202 874 202 874 242 841.5 c 128,-1,60
 282 809 282 809 309 793.5 c 128,-1,61
 336 778 336 778 388 751 c 1,62,-1
 377 726 l 1,63,-1
 103 802 l 1,64,65
 103 819 103 819 112 857.5 c 128,-1,66
 121 896 121 896 130 905 c 1,55,56
EndSplineSet
EndChar

StartChar: Uacute
Encoding: 218 218 155
Width: 641
GlyphClass: 2
Flags: W
LayerCount: 2
Fore
SplineSet
85 205 m 1,0,-1
 100 457 l 1,1,2
 100 491 100 491 98 561 c 1,3,4
 119 568 119 568 153 576 c 1,5,-1
 154 583 l 1,6,7
 40 583 40 583 6 551 c 1,8,9
 4 543 4 543 4 535 c 0,10,11
 4 503 4 503 18 482 c 1,12,-1
 18 474 l 1,13,14
 -24 439 -24 439 -50 389 c 1,15,16
 -67 389 -67 389 -75.5 403.5 c 128,-1,17
 -84 418 -84 418 -84 438 c 0,18,19
 -84 514 -84 514 -29.5 572 c 128,-1,20
 25 630 25 630 107 660 c 1,21,22
 140 653 140 653 186 653 c 128,-1,23
 232 653 232 653 274 664 c 1,24,-1
 280 659 l 1,25,26
 265 592 265 592 253.5 479.5 c 128,-1,27
 242 367 242 367 242 297 c 128,-1,28
 242 227 242 227 243 202.5 c 128,-1,29
 244 178 244 178 249 147 c 0,30,31
 259 88 259 88 298 80 c 1,32,33
 361 125 361 125 396 200 c 1,34,35
 403 316 403 316 403 457 c 128,-1,36
 403 598 403 598 392 649 c 1,37,38
 526 653 526 653 579 664 c 1,39,-1
 585 659 l 1,40,41
 569 587 569 587 559.5 447 c 128,-1,42
 550 307 550 307 550 179 c 128,-1,43
 550 51 550 51 561 0 c 1,44,45
 430 -6 430 -6 387 -15 c 1,46,-1
 380 -10 l 1,47,48
 399 62 399 62 406 125 c 1,49,-1
 402 126 l 1,50,51
 346 22 346 22 263 -15 c 1,52,53
 165 -13 165 -13 125 42 c 128,-1,54
 85 97 85 97 85 205 c 1,0,-1
483 906 m 1,55,56
 497 907 497 907 511.5 907 c 128,-1,57
 526 907 526 907 537 905 c 1,58,59
 546 896 546 896 555 857.5 c 128,-1,60
 564 819 564 819 564 802 c 1,61,-1
 290 726 l 1,62,-1
 279 751 l 1,63,64
 331 778 331 778 358 793.5 c 128,-1,65
 385 809 385 809 425 841.5 c 128,-1,66
 465 874 465 874 483 906 c 1,55,56
EndSplineSet
EndChar

StartChar: Ucircumflex
Encoding: 219 219 156
Width: 641
GlyphClass: 2
Flags: W
LayerCount: 2
Fore
SplineSet
85 205 m 1,0,-1
 100 457 l 1,1,2
 100 491 100 491 98 561 c 1,3,4
 119 568 119 568 153 576 c 1,5,-1
 154 583 l 1,6,7
 40 583 40 583 6 551 c 1,8,9
 4 543 4 543 4 535 c 0,10,11
 4 503 4 503 18 482 c 1,12,-1
 18 474 l 1,13,14
 -24 439 -24 439 -50 389 c 1,15,16
 -67 389 -67 389 -75.5 403.5 c 128,-1,17
 -84 418 -84 418 -84 438 c 0,18,19
 -84 514 -84 514 -29.5 572 c 128,-1,20
 25 630 25 630 107 660 c 1,21,22
 140 653 140 653 186 653 c 128,-1,23
 232 653 232 653 274 664 c 1,24,-1
 280 659 l 1,25,26
 265 592 265 592 253.5 479.5 c 128,-1,27
 242 367 242 367 242 297 c 128,-1,28
 242 227 242 227 243 202.5 c 128,-1,29
 244 178 244 178 249 147 c 0,30,31
 259 88 259 88 298 80 c 1,32,33
 361 125 361 125 396 200 c 1,34,35
 403 316 403 316 403 457 c 128,-1,36
 403 598 403 598 392 649 c 1,37,38
 526 653 526 653 579 664 c 1,39,-1
 585 659 l 1,40,41
 569 587 569 587 559.5 447 c 128,-1,42
 550 307 550 307 550 179 c 128,-1,43
 550 51 550 51 561 0 c 1,44,45
 430 -6 430 -6 387 -15 c 1,46,-1
 380 -10 l 1,47,48
 399 62 399 62 406 125 c 1,49,-1
 402 126 l 1,50,51
 346 22 346 22 263 -15 c 1,52,53
 165 -13 165 -13 125 42 c 128,-1,54
 85 97 85 97 85 205 c 1,0,-1
539 726 m 1,55,-1
 333 786 l 1,56,-1
 147 726 l 1,57,-1
 136 751 l 1,58,59
 284 828 284 828 330 906 c 1,60,-1
 376 906 l 1,61,62
 431 813 431 813 550 751 c 1,63,-1
 539 726 l 1,55,-1
EndSplineSet
EndChar

StartChar: Udieresis
Encoding: 220 220 157
Width: 641
GlyphClass: 2
Flags: W
LayerCount: 2
Fore
SplineSet
85 205 m 1,0,-1
 100 457 l 1,1,2
 100 491 100 491 98 561 c 1,3,4
 119 568 119 568 153 576 c 1,5,-1
 154 583 l 1,6,7
 40 583 40 583 6 551 c 1,8,9
 4 543 4 543 4 535 c 0,10,11
 4 503 4 503 18 482 c 1,12,-1
 18 474 l 1,13,14
 -24 439 -24 439 -50 389 c 1,15,16
 -67 389 -67 389 -75.5 403.5 c 128,-1,17
 -84 418 -84 418 -84 438 c 0,18,19
 -84 514 -84 514 -29.5 572 c 128,-1,20
 25 630 25 630 107 660 c 1,21,22
 140 653 140 653 186 653 c 128,-1,23
 232 653 232 653 274 664 c 1,24,-1
 280 659 l 1,25,26
 265 592 265 592 253.5 479.5 c 128,-1,27
 242 367 242 367 242 297 c 128,-1,28
 242 227 242 227 243 202.5 c 128,-1,29
 244 178 244 178 249 147 c 0,30,31
 259 88 259 88 298 80 c 1,32,33
 361 125 361 125 396 200 c 1,34,35
 403 316 403 316 403 457 c 128,-1,36
 403 598 403 598 392 649 c 1,37,38
 526 653 526 653 579 664 c 1,39,-1
 585 659 l 1,40,41
 569 587 569 587 559.5 447 c 128,-1,42
 550 307 550 307 550 179 c 128,-1,43
 550 51 550 51 561 0 c 1,44,45
 430 -6 430 -6 387 -15 c 1,46,-1
 380 -10 l 1,47,48
 399 62 399 62 406 125 c 1,49,-1
 402 126 l 1,50,51
 346 22 346 22 263 -15 c 1,52,53
 165 -13 165 -13 125 42 c 128,-1,54
 85 97 85 97 85 205 c 1,0,-1
315 814 m 1,55,56
 300 791 300 791 270.5 759 c 128,-1,57
 241 727 241 727 220 712 c 1,58,59
 180 742 180 742 145 814 c 1,60,61
 156 834 156 834 185 859 c 128,-1,62
 214 884 214 884 238 896 c 1,63,64
 277 871 277 871 315 814 c 1,55,56
536 814 m 1,65,66
 521 791 521 791 491.5 759 c 128,-1,67
 462 727 462 727 441 712 c 1,68,69
 401 742 401 742 366 814 c 1,70,71
 377 834 377 834 406 859 c 128,-1,72
 435 884 435 884 459 896 c 1,73,74
 498 871 498 871 536 814 c 1,65,66
EndSplineSet
EndChar

StartChar: Yacute
Encoding: 221 221 158
Width: 526
GlyphClass: 2
Flags: W
LayerCount: 2
Fore
SplineSet
354 491.5 m 128,-1,1
 374 571 374 571 374 601.5 c 128,-1,2
 374 632 374 632 369 646 c 1,3,-1
 373 651 l 1,4,5
 468 651 468 651 527 666 c 1,6,7
 523 597 523 597 467.5 503.5 c 128,-1,8
 412 410 412 410 343 327 c 1,9,10
 338 258 338 258 338 163 c 128,-1,11
 338 68 338 68 353 0 c 1,12,13
 220 -4 220 -4 166 -15 c 1,14,-1
 160 -10 l 1,15,16
 187 101 187 101 194 294 c 1,17,18
 173 342 173 342 134 437 c 128,-1,19
 95 532 95 532 78 572 c 0,20,21
 30 682 30 682 -27 727 c 1,22,23
 -42 732 -42 732 -54 732 c 0,24,25
 -97 732 -97 732 -124 693 c 1,26,-1
 -132 693 l 1,27,28
 -164 746 -164 746 -207 768 c 1,29,30
 -207 807 -207 807 -143 807 c 128,-1,31
 -79 807 -79 807 33.5 755 c 128,-1,32
 146 703 146 703 243 645 c 1,33,34
 251 565 251 565 313 371 c 1,35,0
 334 412 334 412 354 491.5 c 128,-1,1
463 907 m 1,36,37
 477 908 477 908 491.5 908 c 128,-1,38
 506 908 506 908 517 906 c 1,39,40
 526 897 526 897 535 858.5 c 128,-1,41
 544 820 544 820 544 803 c 1,42,-1
 270 727 l 1,43,-1
 259 752 l 1,44,45
 311 779 311 779 338 794.5 c 128,-1,46
 365 810 365 810 405 842.5 c 128,-1,47
 445 875 445 875 463 907 c 1,36,37
EndSplineSet
EndChar

StartChar: Thorn
Encoding: 222 222 159
Width: 556
GlyphClass: 2
Flags: W
LayerCount: 2
Fore
SplineSet
254 522 m 1,0,1
 296 524 296 524 328.5 524 c 128,-1,2
 361 524 361 524 397.5 517.5 c 128,-1,3
 434 511 434 511 464 495 c 0,4,5
 526 462 526 462 526 371.5 c 128,-1,6
 526 281 526 281 448 224 c 128,-1,7
 370 167 370 167 259 167 c 1,8,-1
 262 204 l 1,9,10
 357 204 357 204 357 346 c 0,11,12
 357 466 357 466 289 466 c 0,13,14
 269 466 269 466 249 461 c 1,15,16
 236 315 236 315 236 191.5 c 128,-1,17
 236 68 236 68 251 0 c 1,18,19
 118 -4 118 -4 64 -15 c 1,20,-1
 58 -10 l 1,21,22
 72 49 72 49 82.5 190 c 128,-1,23
 93 331 93 331 93 444 c 128,-1,24
 93 557 93 557 88 616 c 1,25,26
 54 622 54 622 31 633 c 1,27,-1
 32 651 l 1,28,29
 183 651 183 651 269 664 c 1,30,-1
 275 659 l 1,31,32
 263 608 263 608 254 522 c 1,0,1
EndSplineSet
EndChar

StartChar: germandbls
Encoding: 223 223 160
Width: 807
GlyphClass: 2
Flags: W
LayerCount: 2
Fore
SplineSet
164 444 m 0,0,1
 164 417 164 417 197.5 393 c 128,-1,2
 231 369 231 369 271 353 c 128,-1,3
 311 337 311 337 344.5 312 c 128,-1,4
 378 287 378 287 378 260 c 0,5,6
 378 198 378 198 314.5 115 c 128,-1,7
 251 32 251 32 185 -15 c 1,8,9
 76 -15 76 -15 24 71 c 2,10,-1
 10 94 l 1,11,12
 79 157 79 157 105 221 c 1,13,-1
 128 213 l 1,14,15
 122 192 122 192 122 168 c 128,-1,16
 122 144 122 144 149.5 112.5 c 128,-1,17
 177 81 177 81 210 68 c 1,18,19
 227 85 227 85 241.5 114 c 128,-1,20
 256 143 256 143 256 167.5 c 128,-1,21
 256 192 256 192 223.5 216.5 c 128,-1,22
 191 241 191 241 152 257.5 c 128,-1,23
 113 274 113 274 80.5 299 c 128,-1,24
 48 324 48 324 48 352 c 0,25,26
 48 403 48 403 103 466.5 c 128,-1,27
 158 530 158 530 211 552 c 1,28,29
 260 540 260 540 315.5 540 c 128,-1,30
 371 540 371 540 393 547 c 1,31,-1
 399 536 l 1,32,33
 376 506 376 506 363.5 456 c 128,-1,34
 351 406 351 406 351 362 c 1,35,-1
 331 362 l 1,36,37
 326 377 326 377 317 415 c 1,38,-1
 295 430 l 2,39,40
 272 446 272 446 236 458 c 128,-1,41
 200 470 200 470 171 470 c 1,42,43
 164 460 164 460 164 444 c 0,0,1
564 444 m 0,44,45
 564 417 564 417 597.5 393 c 128,-1,46
 631 369 631 369 671 353 c 128,-1,47
 711 337 711 337 744.5 312 c 128,-1,48
 778 287 778 287 778 260 c 0,49,50
 778 198 778 198 714.5 115 c 128,-1,51
 651 32 651 32 585 -15 c 1,52,53
 476 -15 476 -15 424 71 c 2,54,-1
 410 94 l 1,55,56
 479 157 479 157 505 221 c 1,57,-1
 528 213 l 1,58,59
 522 192 522 192 522 168 c 128,-1,60
 522 144 522 144 549.5 112.5 c 128,-1,61
 577 81 577 81 610 68 c 1,62,63
 627 85 627 85 641.5 114 c 128,-1,64
 656 143 656 143 656 167.5 c 128,-1,65
 656 192 656 192 623.5 216.5 c 128,-1,66
 591 241 591 241 552 257.5 c 128,-1,67
 513 274 513 274 480.5 299 c 128,-1,68
 448 324 448 324 448 352 c 0,69,70
 448 403 448 403 503 466.5 c 128,-1,71
 558 530 558 530 611 552 c 1,72,73
 660 540 660 540 715.5 540 c 128,-1,74
 771 540 771 540 793 547 c 1,75,-1
 799 536 l 1,76,77
 776 506 776 506 763.5 456 c 128,-1,78
 751 406 751 406 751 362 c 1,79,-1
 731 362 l 1,80,81
 726 377 726 377 717 415 c 1,82,-1
 695 430 l 2,83,84
 672 446 672 446 636 458 c 128,-1,85
 600 470 600 470 571 470 c 1,86,87
 564 460 564 460 564 444 c 0,44,45
EndSplineSet
EndChar

StartChar: agrave
Encoding: 224 224 161
Width: 519
GlyphClass: 2
Flags: W
LayerCount: 2
Fore
SplineSet
289 171 m 1,0,1
 269 176 269 176 237 176 c 128,-1,2
 205 176 205 176 183 171 c 1,3,4
 166 105 166 105 166 67 c 128,-1,5
 166 29 166 29 172 -3 c 1,6,7
 68 -3 68 -3 -4 -15 c 1,8,-1
 -14 -8 l 1,9,-1
 172 506 l 1,10,11
 142 519 142 519 127 530 c 1,12,-1
 132 549 l 1,13,14
 194 540 194 540 293 540 c 128,-1,15
 392 540 392 540 461 551 c 1,16,-1
 466 547 l 1,17,18
 454 498 454 498 446 382 c 128,-1,19
 438 266 438 266 438 155 c 128,-1,20
 438 44 438 44 447 -3 c 1,21,22
 336 -3 336 -3 271 -15 c 1,23,-1
 266 -11 l 1,24,25
 282 60 282 60 289 171 c 1,0,1
196 242 m 1,26,27
 212 236 212 236 243 236 c 128,-1,28
 274 236 274 236 291 243 c 1,29,30
 295 315 295 315 295 374.5 c 128,-1,31
 295 434 295 434 292 481 c 1,32,33
 287 484 287 484 276.5 484 c 128,-1,34
 266 484 266 484 258 481 c 1,35,36
 247 464 247 464 236 417 c 2,37,-1
 196 242 l 1,26,27
139 781 m 1,38,39
 150 783 150 783 164.5 783 c 128,-1,40
 179 783 179 783 193 782 c 1,41,42
 238 699 238 699 383 603 c 1,43,-1
 369 579 l 1,44,-1
 105 684 l 1,45,46
 106 700 106 700 117.5 735.5 c 128,-1,47
 129 771 129 771 139 781 c 1,38,39
EndSplineSet
EndChar

StartChar: aacute
Encoding: 225 225 162
Width: 519
GlyphClass: 2
Flags: W
LayerCount: 2
Fore
SplineSet
289 171 m 1,0,1
 269 176 269 176 237 176 c 128,-1,2
 205 176 205 176 183 171 c 1,3,4
 166 105 166 105 166 67 c 128,-1,5
 166 29 166 29 172 -3 c 1,6,7
 68 -3 68 -3 -4 -15 c 1,8,-1
 -14 -8 l 1,9,-1
 172 506 l 1,10,11
 142 519 142 519 127 530 c 1,12,-1
 132 549 l 1,13,14
 194 540 194 540 293 540 c 128,-1,15
 392 540 392 540 461 551 c 1,16,-1
 466 547 l 1,17,18
 454 498 454 498 446 382 c 128,-1,19
 438 266 438 266 438 155 c 128,-1,20
 438 44 438 44 447 -3 c 1,21,22
 336 -3 336 -3 271 -15 c 1,23,-1
 266 -11 l 1,24,25
 282 60 282 60 289 171 c 1,0,1
196 242 m 1,26,27
 212 236 212 236 243 236 c 128,-1,28
 274 236 274 236 291 243 c 1,29,30
 295 315 295 315 295 374.5 c 128,-1,31
 295 434 295 434 292 481 c 1,32,33
 287 484 287 484 276.5 484 c 128,-1,34
 266 484 266 484 258 481 c 1,35,36
 247 464 247 464 236 417 c 2,37,-1
 196 242 l 1,26,27
443 782 m 1,38,39
 457 783 457 783 471.5 783 c 128,-1,40
 486 783 486 783 497 781 c 1,41,42
 507 771 507 771 518.5 735.5 c 128,-1,43
 530 700 530 700 531 684 c 1,44,-1
 267 579 l 1,45,-1
 253 603 l 1,46,47
 398 699 398 699 443 782 c 1,38,39
EndSplineSet
EndChar

StartChar: acircumflex
Encoding: 226 226 163
Width: 519
GlyphClass: 2
Flags: W
LayerCount: 2
Fore
SplineSet
289 171 m 1,0,1
 269 176 269 176 237 176 c 128,-1,2
 205 176 205 176 183 171 c 1,3,4
 166 105 166 105 166 67 c 128,-1,5
 166 29 166 29 172 -3 c 1,6,7
 68 -3 68 -3 -4 -15 c 1,8,-1
 -14 -8 l 1,9,-1
 172 506 l 1,10,11
 142 519 142 519 127 530 c 1,12,-1
 132 549 l 1,13,14
 194 540 194 540 293 540 c 128,-1,15
 392 540 392 540 461 551 c 1,16,-1
 466 547 l 1,17,18
 454 498 454 498 446 382 c 128,-1,19
 438 266 438 266 438 155 c 128,-1,20
 438 44 438 44 447 -3 c 1,21,22
 336 -3 336 -3 271 -15 c 1,23,-1
 266 -11 l 1,24,25
 282 60 282 60 289 171 c 1,0,1
196 242 m 1,26,27
 212 236 212 236 243 236 c 128,-1,28
 274 236 274 236 291 243 c 1,29,30
 295 315 295 315 295 374.5 c 128,-1,31
 295 434 295 434 292 481 c 1,32,33
 287 484 287 484 276.5 484 c 128,-1,34
 266 484 266 484 258 481 c 1,35,36
 247 464 247 464 236 417 c 2,37,-1
 196 242 l 1,26,27
521 579 m 1,38,-1
 318 659 l 1,39,-1
 135 579 l 1,40,-1
 121 603 l 1,41,42
 264 693 264 693 321 782 c 1,43,-1
 365 782 l 1,44,45
 422 678 422 678 535 603 c 1,46,-1
 521 579 l 1,38,-1
EndSplineSet
EndChar

StartChar: atilde
Encoding: 227 227 164
Width: 519
GlyphClass: 2
Flags: W
LayerCount: 2
Fore
SplineSet
289 171 m 1,0,1
 269 176 269 176 237 176 c 128,-1,2
 205 176 205 176 183 171 c 1,3,4
 166 105 166 105 166 67 c 128,-1,5
 166 29 166 29 172 -3 c 1,6,7
 68 -3 68 -3 -4 -15 c 1,8,-1
 -14 -8 l 1,9,-1
 172 506 l 1,10,11
 142 519 142 519 127 530 c 1,12,-1
 132 549 l 1,13,14
 194 540 194 540 293 540 c 128,-1,15
 392 540 392 540 461 551 c 1,16,-1
 466 547 l 1,17,18
 454 498 454 498 446 382 c 128,-1,19
 438 266 438 266 438 155 c 128,-1,20
 438 44 438 44 447 -3 c 1,21,22
 336 -3 336 -3 271 -15 c 1,23,-1
 266 -11 l 1,24,25
 282 60 282 60 289 171 c 1,0,1
196 242 m 1,26,27
 212 236 212 236 243 236 c 128,-1,28
 274 236 274 236 291 243 c 1,29,30
 295 315 295 315 295 374.5 c 128,-1,31
 295 434 295 434 292 481 c 1,32,33
 287 484 287 484 276.5 484 c 128,-1,34
 266 484 266 484 258 481 c 1,35,36
 247 464 247 464 236 417 c 2,37,-1
 196 242 l 1,26,27
301 756 m 1,38,39
 374 708 374 708 427 708 c 128,-1,40
 480 708 480 708 514 743 c 1,41,-1
 538 726 l 1,42,43
 474 638 474 638 398 607 c 1,44,45
 373 607 373 607 316.5 631 c 128,-1,46
 260 655 260 655 235 655 c 0,47,48
 187 655 187 655 154 620 c 1,49,-1
 129 637 l 1,50,51
 155 673 155 673 203.5 706.5 c 128,-1,52
 252 740 252 740 301 756 c 1,38,39
EndSplineSet
EndChar

StartChar: adieresis
Encoding: 228 228 165
Width: 519
GlyphClass: 2
Flags: W
LayerCount: 2
Fore
SplineSet
289 171 m 1,0,1
 269 176 269 176 237 176 c 128,-1,2
 205 176 205 176 183 171 c 1,3,4
 166 105 166 105 166 67 c 128,-1,5
 166 29 166 29 172 -3 c 1,6,7
 68 -3 68 -3 -4 -15 c 1,8,-1
 -14 -8 l 1,9,-1
 172 506 l 1,10,11
 142 519 142 519 127 530 c 1,12,-1
 132 549 l 1,13,14
 194 540 194 540 293 540 c 128,-1,15
 392 540 392 540 461 551 c 1,16,-1
 466 547 l 1,17,18
 454 498 454 498 446 382 c 128,-1,19
 438 266 438 266 438 155 c 128,-1,20
 438 44 438 44 447 -3 c 1,21,22
 336 -3 336 -3 271 -15 c 1,23,-1
 266 -11 l 1,24,25
 282 60 282 60 289 171 c 1,0,1
196 242 m 1,26,27
 212 236 212 236 243 236 c 128,-1,28
 274 236 274 236 291 243 c 1,29,30
 295 315 295 315 295 374.5 c 128,-1,31
 295 434 295 434 292 481 c 1,32,33
 287 484 287 484 276.5 484 c 128,-1,34
 266 484 266 484 258 481 c 1,35,36
 247 464 247 464 236 417 c 2,37,-1
 196 242 l 1,26,27
299 688 m 1,38,39
 284 665 284 665 254.5 633 c 128,-1,40
 225 601 225 601 204 586 c 1,41,42
 164 616 164 616 129 688 c 1,43,44
 140 708 140 708 169 733 c 128,-1,45
 198 758 198 758 222 770 c 1,46,47
 261 745 261 745 299 688 c 1,38,39
520 688 m 1,48,49
 505 665 505 665 475.5 633 c 128,-1,50
 446 601 446 601 425 586 c 1,51,52
 385 616 385 616 350 688 c 1,53,54
 361 708 361 708 390 733 c 128,-1,55
 419 758 419 758 443 770 c 1,56,57
 482 745 482 745 520 688 c 1,48,49
EndSplineSet
EndChar

StartChar: aring
Encoding: 229 229 166
Width: 519
GlyphClass: 2
Flags: W
LayerCount: 2
Fore
SplineSet
289 171 m 1,0,1
 269 176 269 176 237 176 c 128,-1,2
 205 176 205 176 183 171 c 1,3,4
 166 105 166 105 166 67 c 128,-1,5
 166 29 166 29 172 -3 c 1,6,7
 68 -3 68 -3 -4 -15 c 1,8,-1
 -14 -8 l 1,9,-1
 172 506 l 1,10,11
 142 519 142 519 127 530 c 1,12,-1
 132 549 l 1,13,14
 194 540 194 540 293 540 c 128,-1,15
 392 540 392 540 461 551 c 1,16,-1
 466 547 l 1,17,18
 454 498 454 498 446 382 c 128,-1,19
 438 266 438 266 438 155 c 128,-1,20
 438 44 438 44 447 -3 c 1,21,22
 336 -3 336 -3 271 -15 c 1,23,-1
 266 -11 l 1,24,25
 282 60 282 60 289 171 c 1,0,1
196 242 m 1,26,27
 212 236 212 236 243 236 c 128,-1,28
 274 236 274 236 291 243 c 1,29,30
 295 315 295 315 295 374.5 c 128,-1,31
 295 434 295 434 292 481 c 1,32,33
 287 484 287 484 276.5 484 c 128,-1,34
 266 484 266 484 258 481 c 1,35,36
 247 464 247 464 236 417 c 2,37,-1
 196 242 l 1,26,27
238.5 597 m 128,-1,39
 210 615 210 615 210 656 c 128,-1,40
 210 697 210 697 247.5 731.5 c 128,-1,41
 285 766 285 766 340 782 c 1,42,43
 433 782 433 782 433 714 c 0,44,45
 433 664 433 664 398 629 c 128,-1,46
 363 594 363 594 310 579 c 1,47,38
 267 579 267 579 238.5 597 c 128,-1,39
288.5 638.5 m 128,-1,49
 302 625 302 625 322 625 c 128,-1,50
 342 625 342 625 356 634 c 1,51,52
 370 658 370 658 370 683.5 c 128,-1,53
 370 709 370 709 356.5 722.5 c 128,-1,54
 343 736 343 736 322.5 736 c 128,-1,55
 302 736 302 736 289 727 c 1,56,57
 275 703 275 703 275 677.5 c 128,-1,48
 275 652 275 652 288.5 638.5 c 128,-1,49
EndSplineSet
EndChar

StartChar: ae
Encoding: 230 230 167
Width: 645
GlyphClass: 2
Flags: W
LayerCount: 2
Fore
SplineSet
281 242 m 1,0,1
 265 246 265 246 244.5 246 c 128,-1,2
 224 246 224 246 200 244 c 1,3,-1
 187 171 l 2,4,5
 173 94 173 94 173 61.5 c 128,-1,6
 173 29 173 29 179 -3 c 1,7,8
 75 -3 75 -3 3 -15 c 1,9,-1
 -7 -8 l 1,10,-1
 162 506 l 1,11,12
 132 519 132 519 117 530 c 1,13,-1
 122 549 l 1,14,15
 184 540 184 540 366.5 540 c 128,-1,16
 549 540 549 540 626 553 c 1,17,-1
 631 544 l 1,18,19
 597 505 597 505 592 412 c 1,20,-1
 574 412 l 1,21,22
 566 434 566 434 561 469 c 1,23,24
 523 485 523 485 492 485 c 128,-1,25
 461 485 461 485 445 481 c 1,26,27
 436 410 436 410 430 315 c 1,28,29
 450 311 450 311 484 311 c 128,-1,30
 518 311 518 311 562 325 c 1,31,-1
 567 320 l 1,32,33
 557 296 557 296 552 241 c 1,34,35
 493 250 493 250 467.5 250 c 128,-1,36
 442 250 442 250 428 247 c 1,37,-1
 428 172 l 2,38,39
 428 121 428 121 443 94 c 128,-1,40
 458 67 458 67 500 67 c 0,41,42
 524 67 524 67 537 74 c 1,43,44
 542 91 542 91 542 116 c 128,-1,45
 542 141 542 141 528 156 c 1,46,-1
 530 163 l 1,47,48
 586 181 586 181 614 216 c 1,49,50
 644 210 644 210 644 177 c 0,51,52
 644 113 644 113 595 61 c 128,-1,53
 546 9 546 9 477 -15 c 1,54,55
 377 -15 377 -15 328 23 c 128,-1,56
 279 61 279 61 279 153 c 1,57,-1
 281 242 l 1,0,1
210 308 m 1,58,59
 230 306 230 306 249.5 306 c 128,-1,60
 269 306 269 306 284 311 c 1,61,62
 285 341 285 341 285 387.5 c 128,-1,63
 285 434 285 434 282 481 c 1,64,65
 278 484 278 484 267 484 c 128,-1,66
 256 484 256 484 248 481 c 1,67,68
 233 458 233 458 227 416 c 2,69,-1
 210 308 l 1,58,59
EndSplineSet
EndChar

StartChar: ccedilla
Encoding: 231 231 168
Width: 418
GlyphClass: 2
Flags: W
LayerCount: 2
Fore
SplineSet
28 192 m 0,0,1
 28 92 28 92 86.5 38.5 c 128,-1,2
 145 -15 145 -15 248 -15 c 1,3,4
 313 18 313 18 361.5 79 c 128,-1,5
 410 140 410 140 422 208 c 1,6,7
 373 200 373 200 305 198 c 1,8,-1
 299 194 l 1,9,10
 301 180 301 180 301 165 c 0,11,12
 301 105 301 105 281 65 c 1,13,14
 187 65 187 65 187 225 c 0,15,16
 187 361 187 361 230 464 c 1,17,18
 269 464 269 464 327 416 c 2,19,-1
 343 403 l 1,20,21
 348 376 348 376 358 348 c 1,22,-1
 377 348 l 1,23,24
 377 392 377 392 390 447.5 c 128,-1,25
 403 503 403 503 425 533 c 1,26,-1
 418 546 l 1,27,28
 400 540 400 540 356.5 540 c 128,-1,29
 313 540 313 540 280 552 c 1,30,31
 28 410 28 410 28 192 c 0,0,1
336 -126 m 0,32,33
 336 -133 336 -133 335 -140 c 1,34,35
 288 -212 288 -212 214 -235 c 1,36,37
 161 -235 161 -235 113 -210 c 1,38,39
 130 -185 130 -185 151 -138 c 1,40,-1
 156 -136 l 1,41,42
 183 -176 183 -176 231 -176 c 0,43,44
 249 -176 249 -176 258 -172 c 1,45,46
 264 -164 264 -164 264 -146 c 0,47,48
 264 -101 264 -101 177 -101 c 1,49,-1
 170 -96 l 1,50,-1
 228 17 l 1,51,-1
 273 19 l 1,52,-1
 235 -38 l 1,53,-1
 239 -42 l 1,54,55
 287 -42 287 -42 311.5 -66 c 128,-1,56
 336 -90 336 -90 336 -126 c 0,32,33
EndSplineSet
EndChar

StartChar: egrave
Encoding: 232 232 169
Width: 416
GlyphClass: 2
Flags: W
LayerCount: 2
Fore
SplineSet
290.5 457 m 128,-1,1
 268 469 268 469 251 469 c 128,-1,2
 234 469 234 469 222 466 c 1,3,4
 217 456 217 456 217 433 c 0,5,6
 217 373 217 373 243.5 345 c 128,-1,7
 270 317 270 317 331 312 c 1,8,-1
 326 273 l 1,9,10
 260 273 260 273 220.5 243 c 128,-1,11
 181 213 181 213 181 153 c 0,12,13
 181 113 181 113 201.5 90 c 128,-1,14
 222 67 222 67 258 67 c 128,-1,15
 294 67 294 67 311 80 c 1,16,17
 316 97 316 97 316 122 c 128,-1,18
 316 147 316 147 302 162 c 1,19,-1
 304 169 l 1,20,21
 360 187 360 187 388 222 c 1,22,23
 418 216 418 216 418 183 c 0,24,25
 418 120 418 120 363 65 c 128,-1,26
 308 10 308 10 237 -15 c 1,27,28
 112 -15 112 -15 54 48 c 1,29,30
 21 82 21 82 21 133 c 0,31,32
 21 202 21 202 74 242.5 c 128,-1,33
 127 283 127 283 207 291 c 1,34,-1
 207 294 l 1,35,36
 146 294 146 294 104 320 c 128,-1,37
 62 346 62 346 62 397 c 1,38,39
 163 515 163 515 290 556 c 1,40,41
 367 556 367 556 419 525 c 1,42,43
 385 473 385 473 369 400 c 1,44,-1
 360 400 l 1,45,46
 336 424 336 424 324.5 434.5 c 128,-1,0
 313 445 313 445 290.5 457 c 128,-1,1
67 781 m 1,47,48
 78 783 78 783 92.5 783 c 128,-1,49
 107 783 107 783 121 782 c 1,50,51
 166 699 166 699 311 603 c 1,52,-1
 297 579 l 1,53,-1
 33 684 l 1,54,55
 34 700 34 700 45.5 735.5 c 128,-1,56
 57 771 57 771 67 781 c 1,47,48
EndSplineSet
EndChar

StartChar: eacute
Encoding: 233 233 170
Width: 416
GlyphClass: 2
Flags: W
LayerCount: 2
Fore
SplineSet
290.5 457 m 128,-1,1
 268 469 268 469 251 469 c 128,-1,2
 234 469 234 469 222 466 c 1,3,4
 217 456 217 456 217 433 c 0,5,6
 217 373 217 373 243.5 345 c 128,-1,7
 270 317 270 317 331 312 c 1,8,-1
 326 273 l 1,9,10
 260 273 260 273 220.5 243 c 128,-1,11
 181 213 181 213 181 153 c 0,12,13
 181 113 181 113 201.5 90 c 128,-1,14
 222 67 222 67 258 67 c 128,-1,15
 294 67 294 67 311 80 c 1,16,17
 316 97 316 97 316 122 c 128,-1,18
 316 147 316 147 302 162 c 1,19,-1
 304 169 l 1,20,21
 360 187 360 187 388 222 c 1,22,23
 418 216 418 216 418 183 c 0,24,25
 418 120 418 120 363 65 c 128,-1,26
 308 10 308 10 237 -15 c 1,27,28
 112 -15 112 -15 54 48 c 1,29,30
 21 82 21 82 21 133 c 0,31,32
 21 202 21 202 74 242.5 c 128,-1,33
 127 283 127 283 207 291 c 1,34,-1
 207 294 l 1,35,36
 146 294 146 294 104 320 c 128,-1,37
 62 346 62 346 62 397 c 1,38,39
 163 515 163 515 290 556 c 1,40,41
 367 556 367 556 419 525 c 1,42,43
 385 473 385 473 369 400 c 1,44,-1
 360 400 l 1,45,46
 336 424 336 424 324.5 434.5 c 128,-1,0
 313 445 313 445 290.5 457 c 128,-1,1
371 782 m 1,47,48
 385 783 385 783 399.5 783 c 128,-1,49
 414 783 414 783 425 781 c 1,50,51
 435 771 435 771 446.5 735.5 c 128,-1,52
 458 700 458 700 459 684 c 1,53,-1
 195 579 l 1,54,-1
 181 603 l 1,55,56
 326 699 326 699 371 782 c 1,47,48
EndSplineSet
EndChar

StartChar: ecircumflex
Encoding: 234 234 171
Width: 416
GlyphClass: 2
Flags: W
LayerCount: 2
Fore
SplineSet
290.5 457 m 128,-1,1
 268 469 268 469 251 469 c 128,-1,2
 234 469 234 469 222 466 c 1,3,4
 217 456 217 456 217 433 c 0,5,6
 217 373 217 373 243.5 345 c 128,-1,7
 270 317 270 317 331 312 c 1,8,-1
 326 273 l 1,9,10
 260 273 260 273 220.5 243 c 128,-1,11
 181 213 181 213 181 153 c 0,12,13
 181 113 181 113 201.5 90 c 128,-1,14
 222 67 222 67 258 67 c 128,-1,15
 294 67 294 67 311 80 c 1,16,17
 316 97 316 97 316 122 c 128,-1,18
 316 147 316 147 302 162 c 1,19,-1
 304 169 l 1,20,21
 360 187 360 187 388 222 c 1,22,23
 418 216 418 216 418 183 c 0,24,25
 418 120 418 120 363 65 c 128,-1,26
 308 10 308 10 237 -15 c 1,27,28
 112 -15 112 -15 54 48 c 1,29,30
 21 82 21 82 21 133 c 0,31,32
 21 202 21 202 74 242.5 c 128,-1,33
 127 283 127 283 207 291 c 1,34,-1
 207 294 l 1,35,36
 146 294 146 294 104 320 c 128,-1,37
 62 346 62 346 62 397 c 1,38,39
 163 515 163 515 290 556 c 1,40,41
 367 556 367 556 419 525 c 1,42,43
 385 473 385 473 369 400 c 1,44,-1
 360 400 l 1,45,46
 336 424 336 424 324.5 434.5 c 128,-1,0
 313 445 313 445 290.5 457 c 128,-1,1
449 579 m 1,47,-1
 246 659 l 1,48,-1
 63 579 l 1,49,-1
 49 603 l 1,50,51
 192 693 192 693 249 782 c 1,52,-1
 293 782 l 1,53,54
 350 678 350 678 463 603 c 1,55,-1
 449 579 l 1,47,-1
EndSplineSet
EndChar

StartChar: edieresis
Encoding: 235 235 172
Width: 416
GlyphClass: 2
Flags: W
LayerCount: 2
Fore
SplineSet
290.5 457 m 128,-1,1
 268 469 268 469 251 469 c 128,-1,2
 234 469 234 469 222 466 c 1,3,4
 217 456 217 456 217 433 c 0,5,6
 217 373 217 373 243.5 345 c 128,-1,7
 270 317 270 317 331 312 c 1,8,-1
 326 273 l 1,9,10
 260 273 260 273 220.5 243 c 128,-1,11
 181 213 181 213 181 153 c 0,12,13
 181 113 181 113 201.5 90 c 128,-1,14
 222 67 222 67 258 67 c 128,-1,15
 294 67 294 67 311 80 c 1,16,17
 316 97 316 97 316 122 c 128,-1,18
 316 147 316 147 302 162 c 1,19,-1
 304 169 l 1,20,21
 360 187 360 187 388 222 c 1,22,23
 418 216 418 216 418 183 c 0,24,25
 418 120 418 120 363 65 c 128,-1,26
 308 10 308 10 237 -15 c 1,27,28
 112 -15 112 -15 54 48 c 1,29,30
 21 82 21 82 21 133 c 0,31,32
 21 202 21 202 74 242.5 c 128,-1,33
 127 283 127 283 207 291 c 1,34,-1
 207 294 l 1,35,36
 146 294 146 294 104 320 c 128,-1,37
 62 346 62 346 62 397 c 1,38,39
 163 515 163 515 290 556 c 1,40,41
 367 556 367 556 419 525 c 1,42,43
 385 473 385 473 369 400 c 1,44,-1
 360 400 l 1,45,46
 336 424 336 424 324.5 434.5 c 128,-1,0
 313 445 313 445 290.5 457 c 128,-1,1
227 688 m 1,47,48
 212 665 212 665 182.5 633 c 128,-1,49
 153 601 153 601 132 586 c 1,50,51
 92 616 92 616 57 688 c 1,52,53
 68 708 68 708 97 733 c 128,-1,54
 126 758 126 758 150 770 c 1,55,56
 189 745 189 745 227 688 c 1,47,48
448 688 m 1,57,58
 433 665 433 665 403.5 633 c 128,-1,59
 374 601 374 601 353 586 c 1,60,61
 313 616 313 616 278 688 c 1,62,63
 289 708 289 708 318 733 c 128,-1,64
 347 758 347 758 371 770 c 1,65,66
 410 745 410 745 448 688 c 1,57,58
EndSplineSet
EndChar

StartChar: igrave
Encoding: 236 236 173
Width: 313
GlyphClass: 2
Flags: W
LayerCount: 2
Fore
SplineSet
237.5 374.5 m 128,-1,1
 227 254 227 254 227 154 c 128,-1,2
 227 54 227 54 240 -2 c 1,3,4
 121 -2 121 -2 62 -15 c 1,5,-1
 57 -11 l 1,6,7
 69 40 69 40 78.5 157.5 c 128,-1,8
 88 275 88 275 88 365 c 128,-1,9
 88 455 88 455 84 507 c 1,10,11
 60 513 60 513 44 521 c 1,12,-1
 45 540 l 1,13,14
 177 540 177 540 255 551 c 1,15,-1
 260 547 l 1,16,0
 248 495 248 495 237.5 374.5 c 128,-1,1
4 781 m 1,17,18
 15 783 15 783 29.5 783 c 128,-1,19
 44 783 44 783 58 782 c 1,20,21
 103 699 103 699 248 603 c 1,22,-1
 234 579 l 1,23,-1
 -30 684 l 1,24,25
 -29 700 -29 700 -17.5 735.5 c 128,-1,26
 -6 771 -6 771 4 781 c 1,17,18
EndSplineSet
EndChar

StartChar: iacute
Encoding: 237 237 174
Width: 313
GlyphClass: 2
Flags: W
LayerCount: 2
Fore
SplineSet
237.5 374.5 m 128,-1,1
 227 254 227 254 227 154 c 128,-1,2
 227 54 227 54 240 -2 c 1,3,4
 121 -2 121 -2 62 -15 c 1,5,-1
 57 -11 l 1,6,7
 69 40 69 40 78.5 157.5 c 128,-1,8
 88 275 88 275 88 365 c 128,-1,9
 88 455 88 455 84 507 c 1,10,11
 60 513 60 513 44 521 c 1,12,-1
 45 540 l 1,13,14
 177 540 177 540 255 551 c 1,15,-1
 260 547 l 1,16,0
 248 495 248 495 237.5 374.5 c 128,-1,1
268 782 m 1,17,18
 282 783 282 783 296.5 783 c 128,-1,19
 311 783 311 783 322 781 c 1,20,21
 332 771 332 771 343.5 735.5 c 128,-1,22
 355 700 355 700 356 684 c 1,23,-1
 92 579 l 1,24,-1
 78 603 l 1,25,26
 223 699 223 699 268 782 c 1,17,18
EndSplineSet
EndChar

StartChar: icircumflex
Encoding: 238 238 175
Width: 313
GlyphClass: 2
Flags: W
LayerCount: 2
Fore
SplineSet
356 579 m 1,0,-1
 163 659 l 1,1,-1
 -10 579 l 1,2,-1
 -24 603 l 1,3,4
 102 682 102 682 166 782 c 1,5,-1
 210 782 l 1,6,7
 273 668 273 668 370 603 c 1,8,-1
 356 579 l 1,0,-1
237.5 374.5 m 128,-1,10
 227 254 227 254 227 154 c 128,-1,11
 227 54 227 54 240 -2 c 1,12,13
 121 -2 121 -2 62 -15 c 1,14,-1
 57 -11 l 1,15,16
 69 40 69 40 78.5 157.5 c 128,-1,17
 88 275 88 275 88 365 c 128,-1,18
 88 455 88 455 84 507 c 1,19,20
 60 513 60 513 44 521 c 1,21,-1
 45 540 l 1,22,23
 177 540 177 540 255 551 c 1,24,-1
 260 547 l 1,25,9
 248 495 248 495 237.5 374.5 c 128,-1,10
EndSplineSet
EndChar

StartChar: idieresis
Encoding: 239 239 176
Width: 313
GlyphClass: 2
Flags: W
LayerCount: 2
Fore
SplineSet
151 688 m 1,0,1
 136 665 136 665 106.5 633 c 128,-1,2
 77 601 77 601 56 586 c 1,3,4
 16 616 16 616 -19 688 c 1,5,6
 -8 708 -8 708 21 733 c 128,-1,7
 50 758 50 758 74 770 c 1,8,9
 113 745 113 745 151 688 c 1,0,1
358 688 m 1,10,11
 343 665 343 665 313.5 633 c 128,-1,12
 284 601 284 601 263 586 c 1,13,14
 223 616 223 616 188 688 c 1,15,16
 199 708 199 708 228 733 c 128,-1,17
 257 758 257 758 281 770 c 1,18,19
 320 745 320 745 358 688 c 1,10,11
237.5 374.5 m 128,-1,21
 227 254 227 254 227 154 c 128,-1,22
 227 54 227 54 240 -2 c 1,23,24
 121 -2 121 -2 62 -15 c 1,25,-1
 57 -11 l 1,26,27
 69 40 69 40 78.5 157.5 c 128,-1,28
 88 275 88 275 88 365 c 128,-1,29
 88 455 88 455 84 507 c 1,30,31
 60 513 60 513 44 521 c 1,32,-1
 45 540 l 1,33,34
 177 540 177 540 255 551 c 1,35,-1
 260 547 l 1,36,20
 248 495 248 495 237.5 374.5 c 128,-1,21
EndSplineSet
EndChar

StartChar: eth
Encoding: 240 240 177
Width: 443
GlyphClass: 2
Flags: W
LayerCount: 2
Fore
SplineSet
51 540 m 1,0,-1
 302 549 l 1,1,2
 420 549 420 549 475.5 493 c 128,-1,3
 531 437 531 437 531 315.5 c 128,-1,4
 531 194 531 194 449.5 106.5 c 128,-1,5
 368 19 368 19 242 -15 c 1,6,-1
 216 -8 l 2,7,8
 166 5 166 5 123 5 c 128,-1,9
 80 5 80 5 64 1 c 1,10,-1
 58 14 l 1,11,12
 76 34 76 34 84 92.5 c 128,-1,13
 92 151 92 151 95 249 c 1,14,-1
 16 242 l 1,15,-1
 8 248 l 1,16,17
 31 269 31 269 43 297 c 1,18,-1
 96 297 l 1,19,20
 97 325 97 325 97 392.5 c 128,-1,21
 97 460 97 460 90 507 c 1,22,23
 66 513 66 513 50 521 c 1,24,-1
 51 540 l 1,0,-1
244 71 m 1,25,26
 256 64 256 64 289.5 64 c 128,-1,27
 323 64 323 64 342 79 c 1,28,29
 374 152 374 152 374 276 c 0,30,31
 374 386 374 386 365.5 411 c 128,-1,32
 357 436 357 436 348 456 c 1,33,34
 329 493 329 493 285 493 c 0,35,36
 268 493 268 493 254 487 c 1,37,38
 247 415 247 415 242 307 c 1,39,40
 283 311 283 311 321 319 c 1,41,-1
 327 314 l 1,42,43
 314 294 314 294 302 268 c 1,44,-1
 241 262 l 1,45,46
 239 188 239 188 239 150.5 c 128,-1,47
 239 113 239 113 244 71 c 1,25,26
EndSplineSet
EndChar

StartChar: ntilde
Encoding: 241 241 178
Width: 610
GlyphClass: 2
Flags: W
LayerCount: 2
Fore
SplineSet
459 155 m 1,0,1
 459 447 459 447 441 540 c 1,2,3
 504 540 504 540 552 552 c 1,4,-1
 557 548 l 1,5,6
 544 495 544 495 534 383.5 c 128,-1,7
 524 272 524 272 524 171.5 c 128,-1,8
 524 71 524 71 537 -3 c 1,9,10
 418 -3 418 -3 354 -13 c 1,11,-1
 348 -11 l 1,12,13
 329 54 329 54 270 177 c 128,-1,14
 211 300 211 300 194 336 c 128,-1,15
 177 372 177 372 161 394 c 1,16,-1
 158 393 l 1,17,18
 158 106 158 106 179 -3 c 1,19,20
 118 -3 118 -3 68 -15 c 1,21,-1
 63 -11 l 1,22,23
 75 38 75 38 83 154 c 128,-1,24
 91 270 91 270 91 359.5 c 128,-1,25
 91 449 91 449 83 507 c 1,26,27
 61 512 61 512 44 521 c 1,28,-1
 45 540 l 1,29,30
 202 540 202 540 283 553 c 1,31,32
 306 419 306 419 429 204 c 2,33,-1
 457 155 l 1,34,-1
 459 155 l 1,0,1
293 756 m 1,35,36
 366 708 366 708 419 708 c 128,-1,37
 472 708 472 708 506 743 c 1,38,-1
 530 726 l 1,39,40
 466 638 466 638 390 607 c 1,41,42
 365 607 365 607 308.5 631 c 128,-1,43
 252 655 252 655 227 655 c 0,44,45
 179 655 179 655 146 620 c 1,46,-1
 121 637 l 1,47,48
 147 673 147 673 195.5 706.5 c 128,-1,49
 244 740 244 740 293 756 c 1,35,36
EndSplineSet
EndChar

StartChar: ograve
Encoding: 242 242 179
Width: 538
GlyphClass: 2
Flags: W
LayerCount: 2
Fore
SplineSet
28 197 m 0,0,1
 28 317 28 317 100.5 410.5 c 128,-1,2
 173 504 173 504 295 555 c 1,3,4
 397 555 397 555 453.5 499.5 c 128,-1,5
 510 444 510 444 510 335 c 128,-1,6
 510 226 510 226 435 127.5 c 128,-1,7
 360 29 360 29 244 -15 c 1,8,9
 149 -15 149 -15 88.5 44 c 128,-1,10
 28 103 28 103 28 197 c 0,0,1
309 72 m 1,11,12
 351 189 351 189 351 332.5 c 128,-1,13
 351 476 351 476 274 476 c 0,14,15
 247 476 247 476 229 468 c 1,16,17
 187 351 187 351 187 207.5 c 128,-1,18
 187 64 187 64 264 64 c 0,19,20
 291 64 291 64 309 72 c 1,11,12
116 781 m 1,21,22
 127 783 127 783 141.5 783 c 128,-1,23
 156 783 156 783 170 782 c 1,24,25
 215 699 215 699 360 603 c 1,26,-1
 346 579 l 1,27,-1
 82 684 l 1,28,29
 83 700 83 700 94.5 735.5 c 128,-1,30
 106 771 106 771 116 781 c 1,21,22
EndSplineSet
EndChar

StartChar: oacute
Encoding: 243 243 180
Width: 538
GlyphClass: 2
Flags: W
LayerCount: 2
Fore
SplineSet
28 197 m 0,0,1
 28 317 28 317 100.5 410.5 c 128,-1,2
 173 504 173 504 295 555 c 1,3,4
 397 555 397 555 453.5 499.5 c 128,-1,5
 510 444 510 444 510 335 c 128,-1,6
 510 226 510 226 435 127.5 c 128,-1,7
 360 29 360 29 244 -15 c 1,8,9
 149 -15 149 -15 88.5 44 c 128,-1,10
 28 103 28 103 28 197 c 0,0,1
309 72 m 1,11,12
 351 189 351 189 351 332.5 c 128,-1,13
 351 476 351 476 274 476 c 0,14,15
 247 476 247 476 229 468 c 1,16,17
 187 351 187 351 187 207.5 c 128,-1,18
 187 64 187 64 264 64 c 0,19,20
 291 64 291 64 309 72 c 1,11,12
420 782 m 1,21,22
 434 783 434 783 448.5 783 c 128,-1,23
 463 783 463 783 474 781 c 1,24,25
 484 771 484 771 495.5 735.5 c 128,-1,26
 507 700 507 700 508 684 c 1,27,-1
 244 579 l 1,28,-1
 230 603 l 1,29,30
 375 699 375 699 420 782 c 1,21,22
EndSplineSet
EndChar

StartChar: ocircumflex
Encoding: 244 244 181
Width: 538
GlyphClass: 2
Flags: W
LayerCount: 2
Fore
SplineSet
28 197 m 0,0,1
 28 317 28 317 100.5 410.5 c 128,-1,2
 173 504 173 504 295 555 c 1,3,4
 397 555 397 555 453.5 499.5 c 128,-1,5
 510 444 510 444 510 335 c 128,-1,6
 510 226 510 226 435 127.5 c 128,-1,7
 360 29 360 29 244 -15 c 1,8,9
 149 -15 149 -15 88.5 44 c 128,-1,10
 28 103 28 103 28 197 c 0,0,1
309 72 m 1,11,12
 351 189 351 189 351 332.5 c 128,-1,13
 351 476 351 476 274 476 c 0,14,15
 247 476 247 476 229 468 c 1,16,17
 187 351 187 351 187 207.5 c 128,-1,18
 187 64 187 64 264 64 c 0,19,20
 291 64 291 64 309 72 c 1,11,12
498 579 m 1,21,-1
 295 659 l 1,22,-1
 112 579 l 1,23,-1
 98 603 l 1,24,25
 241 693 241 693 298 782 c 1,26,-1
 342 782 l 1,27,28
 399 678 399 678 512 603 c 1,29,-1
 498 579 l 1,21,-1
EndSplineSet
EndChar

StartChar: otilde
Encoding: 245 245 182
Width: 538
GlyphClass: 2
Flags: W
LayerCount: 2
Fore
SplineSet
28 197 m 0,0,1
 28 317 28 317 100.5 410.5 c 128,-1,2
 173 504 173 504 295 555 c 1,3,4
 397 555 397 555 453.5 499.5 c 128,-1,5
 510 444 510 444 510 335 c 128,-1,6
 510 226 510 226 435 127.5 c 128,-1,7
 360 29 360 29 244 -15 c 1,8,9
 149 -15 149 -15 88.5 44 c 128,-1,10
 28 103 28 103 28 197 c 0,0,1
309 72 m 1,11,12
 351 189 351 189 351 332.5 c 128,-1,13
 351 476 351 476 274 476 c 0,14,15
 247 476 247 476 229 468 c 1,16,17
 187 351 187 351 187 207.5 c 128,-1,18
 187 64 187 64 264 64 c 0,19,20
 291 64 291 64 309 72 c 1,11,12
278 756 m 1,21,22
 351 708 351 708 404 708 c 128,-1,23
 457 708 457 708 491 743 c 1,24,-1
 515 726 l 1,25,26
 451 638 451 638 375 607 c 1,27,28
 350 607 350 607 293.5 631 c 128,-1,29
 237 655 237 655 212 655 c 0,30,31
 164 655 164 655 131 620 c 1,32,-1
 106 637 l 1,33,34
 132 673 132 673 180.5 706.5 c 128,-1,35
 229 740 229 740 278 756 c 1,21,22
EndSplineSet
EndChar

StartChar: odieresis
Encoding: 246 246 183
Width: 538
GlyphClass: 2
Flags: W
LayerCount: 2
Fore
SplineSet
28 197 m 0,0,1
 28 317 28 317 100.5 410.5 c 128,-1,2
 173 504 173 504 295 555 c 1,3,4
 397 555 397 555 453.5 499.5 c 128,-1,5
 510 444 510 444 510 335 c 128,-1,6
 510 226 510 226 435 127.5 c 128,-1,7
 360 29 360 29 244 -15 c 1,8,9
 149 -15 149 -15 88.5 44 c 128,-1,10
 28 103 28 103 28 197 c 0,0,1
309 72 m 1,11,12
 351 189 351 189 351 332.5 c 128,-1,13
 351 476 351 476 274 476 c 0,14,15
 247 476 247 476 229 468 c 1,16,17
 187 351 187 351 187 207.5 c 128,-1,18
 187 64 187 64 264 64 c 0,19,20
 291 64 291 64 309 72 c 1,11,12
276 688 m 1,21,22
 261 665 261 665 231.5 633 c 128,-1,23
 202 601 202 601 181 586 c 1,24,25
 141 616 141 616 106 688 c 1,26,27
 117 708 117 708 146 733 c 128,-1,28
 175 758 175 758 199 770 c 1,29,30
 238 745 238 745 276 688 c 1,21,22
497 688 m 1,31,32
 482 665 482 665 452.5 633 c 128,-1,33
 423 601 423 601 402 586 c 1,34,35
 362 616 362 616 327 688 c 1,36,37
 338 708 338 708 367 733 c 128,-1,38
 396 758 396 758 420 770 c 1,39,40
 459 745 459 745 497 688 c 1,31,32
EndSplineSet
EndChar

StartChar: divide
Encoding: 247 247 184
Width: 576
GlyphClass: 2
Flags: W
LayerCount: 2
Fore
SplineSet
343 390 m 128,-1,1
 343 369 343 369 326 351 c 128,-1,2
 309 333 309 333 288.5 333 c 128,-1,3
 268 333 268 333 250 351.5 c 128,-1,4
 232 370 232 370 232 390.5 c 128,-1,5
 232 411 232 411 250 428.5 c 128,-1,6
 268 446 268 446 288.5 446 c 128,-1,7
 309 446 309 446 326 428.5 c 128,-1,0
 343 411 343 411 343 390 c 128,-1,1
343 107 m 128,-1,9
 343 86 343 86 326 68 c 128,-1,10
 309 50 309 50 288.5 50 c 128,-1,11
 268 50 268 50 250 68.5 c 128,-1,12
 232 87 232 87 232 107.5 c 128,-1,13
 232 128 232 128 250 145.5 c 128,-1,14
 268 163 268 163 288.5 163 c 128,-1,15
 309 163 309 163 326 145.5 c 128,-1,8
 343 128 343 128 343 107 c 128,-1,9
66 290 m 1,16,17
 236 281 236 281 355.5 281 c 128,-1,18
 475 281 475 281 514 284 c 1,19,-1
 520 278 l 1,20,-1
 511 217 l 1,21,-1
 65 217 l 1,22,-1
 57 224 l 1,23,-1
 66 290 l 1,16,17
EndSplineSet
EndChar

StartChar: oslash
Encoding: 248 248 185
Width: 538
GlyphClass: 2
Flags: W
LayerCount: 2
Fore
SplineSet
28 197 m 0,0,1
 28 317 28 317 100.5 410.5 c 128,-1,2
 173 504 173 504 295 555 c 1,3,4
 321 555 321 555 349 550 c 1,5,6
 354 563 354 563 361 589 c 128,-1,7
 368 615 368 615 371 624 c 1,8,9
 400 626 400 626 418 633 c 1,10,-1
 422 629 l 1,11,12
 400 581 400 581 384 541 c 1,13,14
 510 498 510 498 510 343 c 0,15,16
 510 226 510 226 435 127.5 c 128,-1,17
 360 29 360 29 244 -15 c 1,18,19
 209 -15 209 -15 174 -5 c 1,20,-1
 145 -87 l 1,21,-1
 139 -87 l 1,22,23
 112 -69 112 -69 105 -55 c 1,24,-1
 135 10 l 1,25,26
 85 36 85 36 56.5 84.5 c 128,-1,27
 28 133 28 133 28 197 c 0,0,1
351 329 m 0,28,29
 351 389 351 389 339 424 c 1,30,-1
 210 91 l 1,31,32
 229 64 229 64 260 64 c 128,-1,33
 291 64 291 64 309 72 c 1,34,35
 351 189 351 189 351 329 c 0,28,29
187 211 m 0,36,37
 187 172 187 172 191 147 c 1,38,-1
 315 462 l 1,39,40
 299 476 299 476 273 476 c 128,-1,41
 247 476 247 476 229 468 c 1,42,43
 187 351 187 351 187 211 c 0,36,37
EndSplineSet
EndChar

StartChar: ugrave
Encoding: 249 249 186
Width: 579
GlyphClass: 2
Flags: W
LayerCount: 2
Fore
SplineSet
69 168 m 1,0,-1
 82 378 l 1,1,2
 82 455 82 455 74 507 c 1,3,4
 50 513 50 513 34 521 c 1,5,-1
 35 540 l 1,6,7
 167 540 167 540 245 551 c 1,8,-1
 250 547 l 1,9,10
 220 414 220 414 220 227 c 0,11,12
 220 113 220 113 240 88 c 0,13,14
 251 75 251 75 267 72 c 1,15,16
 322 111 322 111 350 172 c 1,17,18
 354 264 354 264 354 381.5 c 128,-1,19
 354 499 354 499 345 538 c 1,20,21
 462 538 462 538 521 551 c 1,22,-1
 526 547 l 1,23,24
 513 487 513 487 505 370.5 c 128,-1,25
 497 254 497 254 497 145.5 c 128,-1,26
 497 37 497 37 506 -2 c 1,27,28
 401 -2 401 -2 341 -15 c 1,29,-1
 335 -11 l 1,30,31
 352 56 352 56 357 102 c 1,32,-1
 353 103 l 1,33,34
 308 19 308 19 238 -15 c 1,35,36
 150 -13 150 -13 109.5 32.5 c 128,-1,37
 69 78 69 78 69 168 c 1,0,-1
118 781 m 1,38,39
 129 783 129 783 143.5 783 c 128,-1,40
 158 783 158 783 172 782 c 1,41,42
 217 699 217 699 362 603 c 1,43,-1
 348 579 l 1,44,-1
 84 684 l 1,45,46
 85 700 85 700 96.5 735.5 c 128,-1,47
 108 771 108 771 118 781 c 1,38,39
EndSplineSet
EndChar

StartChar: uacute
Encoding: 250 250 187
Width: 579
GlyphClass: 2
Flags: W
LayerCount: 2
Fore
SplineSet
69 168 m 1,0,-1
 82 378 l 1,1,2
 82 455 82 455 74 507 c 1,3,4
 50 513 50 513 34 521 c 1,5,-1
 35 540 l 1,6,7
 167 540 167 540 245 551 c 1,8,-1
 250 547 l 1,9,10
 220 414 220 414 220 227 c 0,11,12
 220 113 220 113 240 88 c 0,13,14
 251 75 251 75 267 72 c 1,15,16
 322 111 322 111 350 172 c 1,17,18
 354 264 354 264 354 381.5 c 128,-1,19
 354 499 354 499 345 538 c 1,20,21
 462 538 462 538 521 551 c 1,22,-1
 526 547 l 1,23,24
 513 487 513 487 505 370.5 c 128,-1,25
 497 254 497 254 497 145.5 c 128,-1,26
 497 37 497 37 506 -2 c 1,27,28
 401 -2 401 -2 341 -15 c 1,29,-1
 335 -11 l 1,30,31
 352 56 352 56 357 102 c 1,32,-1
 353 103 l 1,33,34
 308 19 308 19 238 -15 c 1,35,36
 150 -13 150 -13 109.5 32.5 c 128,-1,37
 69 78 69 78 69 168 c 1,0,-1
422 782 m 1,38,39
 436 783 436 783 450.5 783 c 128,-1,40
 465 783 465 783 476 781 c 1,41,42
 486 771 486 771 497.5 735.5 c 128,-1,43
 509 700 509 700 510 684 c 1,44,-1
 246 579 l 1,45,-1
 232 603 l 1,46,47
 377 699 377 699 422 782 c 1,38,39
EndSplineSet
EndChar

StartChar: ucircumflex
Encoding: 251 251 188
Width: 579
GlyphClass: 2
Flags: W
LayerCount: 2
Fore
SplineSet
69 168 m 1,0,-1
 82 378 l 1,1,2
 82 455 82 455 74 507 c 1,3,4
 50 513 50 513 34 521 c 1,5,-1
 35 540 l 1,6,7
 167 540 167 540 245 551 c 1,8,-1
 250 547 l 1,9,10
 220 414 220 414 220 227 c 0,11,12
 220 113 220 113 240 88 c 0,13,14
 251 75 251 75 267 72 c 1,15,16
 322 111 322 111 350 172 c 1,17,18
 354 264 354 264 354 381.5 c 128,-1,19
 354 499 354 499 345 538 c 1,20,21
 462 538 462 538 521 551 c 1,22,-1
 526 547 l 1,23,24
 513 487 513 487 505 370.5 c 128,-1,25
 497 254 497 254 497 145.5 c 128,-1,26
 497 37 497 37 506 -2 c 1,27,28
 401 -2 401 -2 341 -15 c 1,29,-1
 335 -11 l 1,30,31
 352 56 352 56 357 102 c 1,32,-1
 353 103 l 1,33,34
 308 19 308 19 238 -15 c 1,35,36
 150 -13 150 -13 109.5 32.5 c 128,-1,37
 69 78 69 78 69 168 c 1,0,-1
500 579 m 1,38,-1
 297 659 l 1,39,-1
 114 579 l 1,40,-1
 100 603 l 1,41,42
 243 693 243 693 300 782 c 1,43,-1
 344 782 l 1,44,45
 401 678 401 678 514 603 c 1,46,-1
 500 579 l 1,38,-1
EndSplineSet
EndChar

StartChar: udieresis
Encoding: 252 252 189
Width: 579
GlyphClass: 2
Flags: W
LayerCount: 2
Fore
SplineSet
69 168 m 1,0,-1
 82 378 l 1,1,2
 82 455 82 455 74 507 c 1,3,4
 50 513 50 513 34 521 c 1,5,-1
 35 540 l 1,6,7
 167 540 167 540 245 551 c 1,8,-1
 250 547 l 1,9,10
 220 414 220 414 220 227 c 0,11,12
 220 113 220 113 240 88 c 0,13,14
 251 75 251 75 267 72 c 1,15,16
 322 111 322 111 350 172 c 1,17,18
 354 264 354 264 354 381.5 c 128,-1,19
 354 499 354 499 345 538 c 1,20,21
 462 538 462 538 521 551 c 1,22,-1
 526 547 l 1,23,24
 513 487 513 487 505 370.5 c 128,-1,25
 497 254 497 254 497 145.5 c 128,-1,26
 497 37 497 37 506 -2 c 1,27,28
 401 -2 401 -2 341 -15 c 1,29,-1
 335 -11 l 1,30,31
 352 56 352 56 357 102 c 1,32,-1
 353 103 l 1,33,34
 308 19 308 19 238 -15 c 1,35,36
 150 -13 150 -13 109.5 32.5 c 128,-1,37
 69 78 69 78 69 168 c 1,0,-1
278 688 m 1,38,39
 263 665 263 665 233.5 633 c 128,-1,40
 204 601 204 601 183 586 c 1,41,42
 143 616 143 616 108 688 c 1,43,44
 119 708 119 708 148 733 c 128,-1,45
 177 758 177 758 201 770 c 1,46,47
 240 745 240 745 278 688 c 1,38,39
499 688 m 1,48,49
 484 665 484 665 454.5 633 c 128,-1,50
 425 601 425 601 404 586 c 1,51,52
 364 616 364 616 329 688 c 1,53,54
 340 708 340 708 369 733 c 128,-1,55
 398 758 398 758 422 770 c 1,56,57
 461 745 461 745 499 688 c 1,48,49
EndSplineSet
EndChar

StartChar: yacute
Encoding: 253 253 190
Width: 439
GlyphClass: 2
Flags: W
LayerCount: 2
Fore
SplineSet
296 404.5 m 128,-1,1
 312 472 312 472 312 499 c 128,-1,2
 312 526 312 526 308 535 c 1,3,-1
 312 540 l 1,4,5
 407 540 407 540 455 552 c 1,6,7
 449 452 449 452 296 269 c 1,8,9
 292 209 292 209 292 131.5 c 128,-1,10
 292 54 292 54 305 -2 c 1,11,12
 167 -7 167 -7 130 -15 c 1,13,-1
 125 -11 l 1,14,15
 147 80 147 80 152 243 c 1,16,17
 145 263 145 263 133.5 288.5 c 128,-1,18
 122 314 122 314 108 346 c 0,19,20
 55 466 55 466 22 507 c 1,21,22
 0 512 0 512 -17 521 c 1,23,-1
 -16 540 l 1,24,25
 121 540 121 540 199 551 c 1,26,-1
 204 547 l 1,27,28
 212 449 212 449 262 303 c 1,29,0
 280 337 280 337 296 404.5 c 128,-1,1
374 782 m 1,30,31
 388 783 388 783 402.5 783 c 128,-1,32
 417 783 417 783 428 781 c 1,33,34
 438 771 438 771 449.5 735.5 c 128,-1,35
 461 700 461 700 462 684 c 1,36,-1
 198 579 l 1,37,-1
 184 603 l 1,38,39
 329 699 329 699 374 782 c 1,30,31
EndSplineSet
EndChar

